<?xml version="1.0" encoding="utf-8"?>
<!-- Generator: Adobe Illustrator 26.3.1, SVG Export Plug-In . SVG Version: 6.00 Build 0)  -->
<svg version="1.1" id="Layer_1" xmlns="http://www.w3.org/2000/svg" xmlns:xlink="http://www.w3.org/1999/xlink" x="0px" y="0px"
	 viewBox="0 0 1080 400" style="enable-background:new 0 0 1080 400;" xml:space="preserve">
<style type="text/css">
	.st0{fill:#0C0507;}
	.st1{fill:#192A3B;}
	.st2{fill:#FCD300;}
	.st3{fill:#FCFCFC;}
	.st4{fill:#10190D;}
	.st5{fill:#FFFFFF;}
	.st6{fill:#F7F7F7;}
	.st7{fill:url(#SVGID_1_);}
	.st8{fill:#781615;}
	.st9{fill:url(#SVGID_00000034780900624913544140000012852866191514388394_);}
	.st10{fill:url(#SVGID_00000148626855080171352630000002275152865388152993_);}
	.st11{fill:#254399;}
	.st12{fill:#FFDE03;}
	.st13{fill:#F01E27;}
	.st14{fill:#09A14C;}
	.st15{fill:#4B4B4C;}
	.st16{fill:#3BBF1A;}
	.st17{fill:#FEFEFE;}
	.st18{fill:#C12D25;}
	.st19{fill:url(#SVGID_00000071538191123047897120000004504794758408877759_);}
	.st20{fill:url(#SVGID_00000095312324483463655440000007175211671855407787_);}
	.st21{fill:url(#SVGID_00000109717968231227873820000016588175997795864710_);}
	.st22{fill:url(#SVGID_00000066484147607266043750000007136776756625714576_);}
	.st23{fill:url(#SVGID_00000152254134457906965220000013729455264437508497_);}
	.st24{fill:#F9D309;}
	.st25{fill:#1C1C1C;}
	.st26{fill:#E7311F;}
	.st27{fill:url(#SVGID_00000029034564281386203030000005471044652475990429_);}
	.st28{fill:url(#SVGID_00000005257110527584146570000013278016353565564306_);}
	.st29{fill:url(#SVGID_00000046330284625345958970000000087302935497393079_);}
	.st30{fill:url(#SVGID_00000030468217529916996590000002793212972541838219_);}
	.st31{fill:url(#SVGID_00000013176575872868223790000008792059155437095837_);}
	.st32{fill:url(#SVGID_00000008848673365992912740000000835635832275499695_);}
	.st33{fill:url(#SVGID_00000168816643207978357720000004671314499537487748_);}
	.st34{fill:none;stroke:#000000;stroke-miterlimit:10;}
	.st35{fill:url(#SVGID_00000128463765662221929040000004969139874623471003_);}
	.st36{fill:url(#SVGID_00000095328568089723025740000016397635750897278907_);}
	.st37{fill:url(#SVGID_00000040534146390544148050000010711780118827145615_);}
	.st38{fill:url(#SVGID_00000087386912760573070420000010432169926140600193_);}
	.st39{fill:url(#SVGID_00000094616663628203700500000001029055517489591948_);}
	.st40{fill:url(#SVGID_00000034048503478972551410000001911023539246915764_);}
	.st41{fill:url(#SVGID_00000034778938935465973820000018050546948930046396_);}
	.st42{fill:url(#SVGID_00000150812901822367377080000016591588324427723654_);}
	.st43{fill:url(#SVGID_00000018955737092188030710000013877921009794628759_);}
	.st44{fill:url(#SVGID_00000072962199981695860590000003178188744242192262_);}
	.st45{fill:#070707;}
	.st46{fill:#4E189A;}
	.st47{fill:#F769EF;}
	.st48{fill:url(#SVGID_00000181082786458770132480000014847898943960085141_);}
	.st49{fill:url(#SVGID_00000050625987160363446910000010316762630762602120_);}
	.st50{fill:url(#SVGID_00000074440073276516258180000012705778464176635535_);}
	.st51{fill:url(#SVGID_00000124126577324998829120000004699500229446931372_);}
	.st52{fill:url(#SVGID_00000019673235210429517130000009246143736158236564_);}
</style>
<g>
	<path class="st0" d="M379.9,79.1c0,0,0.9-4.2-12.5-0.5c-13.4,3.7-33.2,18.4-38.1,44.3c-4.9,25.8-10.9,55.1-11.1,68.4
		c-0.1,7.2-10.4,44.6,10.5,44.5c11.3,0,16.6,0,28,0c15.7,0,47.5-9.2,56.4-26c10.8-20.4,1.2-24.8-2.5-23.1c-8.8,4-13.5,9.1-27,7.2
		c-5.8-0.8-19.2-3.1-28.1,1.7c0,0-12.2,10.2,9.4-36.9c12.8-28.1,4.9-52.9,9.3-61.3S381.5,84.6,379.9,79.1z"/>
	<path class="st0" d="M396.1,216.6c5.2-1.2,9.1-4,11.4-8.7c0.8-1.5,1.5-3.2,2.3-4.9c1,3.8,0.1,8.2-2.6,11.1
		C404.4,217.1,399.7,218.3,396.1,216.6L396.1,216.6z"/>
</g>
<g>
	<path class="st1" d="M300.5,55.4c1.4-0.6,2.2-1.9,1.7-3s-1.9-1.5-3.4-0.9c-1.4,0.6-2.2,1.9-1.7,3c0.1,0.3,0.4,0.6,0.7,0.8
		c0.1-0.4,0.4-0.8,0.9-1c0.7-0.3,1.4-0.1,1.6,0.4c0.1,0.2,0.1,0.5-0.1,0.7C300.3,55.4,300.4,55.4,300.5,55.4z"/>
	<path class="st1" d="M278.7,70.2c-1.4,0.6-2.2,1.9-1.7,3c0.1,0.3,0.4,0.6,0.7,0.8c0.1-0.4,0.4-0.8,0.9-1c0.7-0.3,1.4-0.1,1.6,0.4
		c0.1,0.2,0.1,0.5-0.1,0.7c0.1,0,0.2-0.1,0.3-0.1c1.4-0.6,2.2-1.9,1.7-3S280.1,69.6,278.7,70.2z"/>
	<g>
		<path class="st1" d="M379.4,26.7c-2.4,1-3.7,3.4-2.9,5.3c0.6,1.3,2,2.1,3.6,2.1c-1.7,10.1-5.6,18.7-8.3,23.6
			c-1.3-1.2-3.1-2.8-4.9-4.8c-0.9-4.1-1.6-8.5-1.9-13c0.1,0,0.3-0.1,0.4-0.1c1-0.4,1.5-1.3,1.2-2.1c-0.3-0.8-1.4-1-2.3-0.6
			s-1.5,1.3-1.2,2.1c0.3,0.6,1,0.9,1.9,0.8c0,3.6-0.2,6.9-0.6,10c-3.4-4.2-6.8-9.5-8.8-15.6c1.9-1.1,2.9-3.2,2.2-4.9
			c-0.8-1.9-3.4-2.7-5.8-1.7c-2.4,1-3.7,3.4-2.9,5.3c0.7,1.7,2.7,2.4,4.8,2c1.1,6.4,0.6,12.7-0.3,17.9c-2.8-4.3-5.5-9.4-7.5-15
			c0.1,0,0.1,0,0.2-0.1c1-0.4,1.5-1.3,1.2-2.1c-0.3-0.8-1.4-1-2.3-0.6c-1,0.4-1.5,1.3-1.2,2.1c0.3,0.7,1.2,1,2,0.7
			c2.2,8.5,2.2,16.7,1.7,22.7c-5.7-3.2-15.2-9.5-20.2-19c1.8-1.1,2.7-3.2,2-4.8c-0.8-1.9-3.4-2.7-5.8-1.7c-2.4,1-3.7,3.4-2.9,5.3
			c0.7,1.7,2.8,2.5,4.9,2c3.2,10.3,1,21.5-0.8,27.7c-4.7-3.9-10.4-9.7-14.9-17.3c0.8-0.5,1.2-1.3,0.9-2c-0.3-0.8-1.4-1-2.3-0.6
			c-1,0.4-1.5,1.3-1.2,2.1c0.3,0.8,1.4,1,2.3,0.6c0.1,0,0.1-0.1,0.2-0.1c2.5,5.3,4.2,10.9,5.3,15.9c-4.4-3-9.2-7.1-12.9-12.4
			c1.8-1.2,2.6-3.1,1.9-4.8c-0.8-1.9-3.4-2.7-5.8-1.7c-2.4,1-3.7,3.4-2.9,5.3c0.7,1.7,2.9,2.5,5,2c2.9,5.8,4.2,11.9,4.8,17.3
			c-2.4-1.9-5-4.1-7.5-6.6c0.7-0.5,1-1.2,0.8-1.9c-0.3-0.8-1.4-1-2.3-0.6c-1,0.4-1.5,1.3-1.2,2.1c0.3,0.8,1.4,1,2.3,0.6
			c0.1-0.1,0.2-0.1,0.4-0.2c3,3.4,5.6,7,7.8,10.5c0.1,2.7,0,5.1-0.1,6.9c-5.3-1.6-14.2-4.9-22.5-10.8c1.1-1.2,1.6-2.7,1-4.1
			c-0.8-1.9-3.4-2.7-5.8-1.7c-2.4,1-3.7,3.4-2.9,5.3c0.8,1.9,3.4,2.7,5.8,1.7c0.1,0,0.2-0.1,0.3-0.1c6,5.4,10.4,11.4,13.2,15.8
			c1.5,2.4,2.7,4.6,3.6,6.3c-0.7,1.7-0.8,3.3-0.3,4.6c0.9,2.1,3.1,3.4,6.8,3.9l4.5,9.6c-1.1,2.2-1.3,4.2-0.6,5.8
			c1.6,3.8,7.7,5.4,17.2,4.5c9.2-0.9,20.5-4,32-8.8c11.5-4.8,21.7-10.6,28.8-16.4c7.4-6,10.5-11.5,8.9-15.3c-0.6-1.5-2-2.7-3.9-3.5
			l-4.2-10.2c2.2-2.9,2.9-5.5,2-7.5c-0.6-1.3-1.7-2.4-3.4-3.1c-0.6-1.8-1.3-4.2-1.9-7c-1.1-5-2.3-12.5-1.8-20.5
			c0.1,0,0.2-0.1,0.3-0.1c2.4-1,3.7-3.4,2.9-5.3C384.4,26.4,381.8,25.7,379.4,26.7z M300.7,93.4c-1.5-2.7-3.2-5.2-4.5-6.9
			c2.1,0.9,5.2,2.1,8.3,3.1C303.1,90.9,301.8,92.2,300.7,93.4z M311.1,84.5c-0.1-0.2-0.2-0.3-0.3-0.5c0.1-1,0.1-2.1,0.1-3.1
			c0.9,0.6,1.8,1.2,2.8,1.8C312.9,83.3,312,83.9,311.1,84.5z M316.7,80.9c-0.3,0.2-0.6,0.3-0.9,0.5c-1.5-0.8-3.1-1.7-5-2.9
			c-0.1-2.5-0.4-4.8-0.6-6.3c1.4,1,3.5,2.5,5.9,3.9C316.5,77.9,316.6,79.5,316.7,80.9z M319.3,79.4c-0.1-0.5-0.1-1.1-0.2-1.6
			c0.5,0.3,1.1,0.5,1.6,0.8C320.3,78.8,319.8,79.1,319.3,79.4z M323.5,73.8c-1.5-0.7-3.3-1.7-5.5-3c-0.5-2.3-0.8-3.8-0.8-3.8
			s2.9,3.1,6.5,6.2C323.6,73.4,323.5,73.6,323.5,73.8z M338.1,70.2c-2.2,0.9-4.3,1.8-6.4,2.8c0.7-3.4,0.9-7.5,0.9-10.7
			c0.2-1.7,0.4-3.2,0.5-4.2c0.8,0.7,1.9,1.6,3.3,2.6c2.3,2.3,5.2,5,8.2,6.9C342.4,68.5,340.2,69.3,338.1,70.2z M350.9,62.4
			c-0.2-0.1-0.4-0.2-0.6-0.3c0.4-4.7,0.2-9,0.2-9s0.8,1.3,2.1,3.3C352,58.8,351.4,60.9,350.9,62.4z M356.2,63.9
			c0.2-0.6,0.4-1.1,0.6-1.7c0.3,0.4,0.7,0.8,1,1.3C357.3,63.6,356.7,63.7,356.2,63.9z M360.7,62.7c-0.9-1.1-1.9-2.3-3-3.7
			c0.7-2.8,1.2-5.3,1.4-6.9c0.9,1.2,2.3,3,4.1,4.8c-0.5,2.1-1,4-1.5,5.6C361.4,62.5,361,62.6,360.7,62.7z M367.2,61.3
			c-1,0.2-2.1,0.4-3.1,0.6c0.3-1.1,0.5-2.3,0.8-3.3c0.7,0.7,1.5,1.4,2.2,2.1C367.1,60.9,367.2,61.1,367.2,61.3z M380.9,60.2
			c-1.6-0.1-3.5-0.1-5.5,0c1.5-2.9,2.8-5.9,3.7-8.1C379.5,54.3,380.1,57.3,380.9,60.2z"/>
		<g>
			<g>
				<path class="st2" d="M380.6,36.1c-0.1,0.7-0.3,1.4-0.5,2.1c-0.2,0.7-0.3,1.4-0.5,2.1c-0.5,2-1.1,4-1.8,5.8
					c-0.3,0.9-0.7,1.8-1,2.7c-0.1,0.3-0.2,0.6-0.3,0.9c-0.5,1.1-0.9,2.2-1.4,3.3c-0.2,0.5-0.5,1-0.7,1.5c-0.1,0.2-0.2,0.5-0.3,0.7
					c-0.2,0.5-0.5,0.9-0.7,1.4c-0.5,0.9-0.9,1.7-1.3,2.4c-0.2-0.1-0.3-0.3-0.5-0.4c-0.1,0-0.1-0.1-0.2-0.1c-0.1-0.1-0.2-0.2-0.4-0.3
					c-0.1-0.1-0.1-0.1-0.2-0.2c-0.1-0.1-0.2-0.2-0.3-0.3c-0.1-0.1-0.1-0.1-0.2-0.2c-0.1-0.1-0.3-0.3-0.4-0.4c0,0-0.1-0.1-0.1-0.1
					c-0.2-0.2-0.4-0.3-0.5-0.5c-0.1-0.1-0.1-0.1-0.2-0.2c-0.1-0.1-0.3-0.2-0.4-0.4c-0.1-0.1-0.1-0.1-0.2-0.2
					c-0.1-0.1-0.2-0.2-0.4-0.4c-0.1-0.1-0.2-0.2-0.2-0.2c-0.1-0.1-0.3-0.3-0.4-0.4c-0.1-0.1-0.1-0.1-0.2-0.2
					c-0.2-0.2-0.4-0.4-0.6-0.6c-0.1-0.1-0.1-0.1-0.2-0.2c-0.1-0.1-0.3-0.3-0.4-0.4c-0.1-0.1-0.2-0.2-0.3-0.3
					c-0.1-0.1-0.2-0.3-0.3-0.4c-0.1-0.1-0.2-0.2-0.3-0.3c-0.1-0.1-0.2-0.3-0.3-0.4c-0.1-0.1-0.2-0.2-0.3-0.3
					c-0.2-0.2-0.3-0.4-0.5-0.6c-0.1-0.1-0.2-0.2-0.3-0.4c-0.1-0.2-0.3-0.3-0.4-0.5c-0.1-0.1-0.2-0.2-0.3-0.3
					c-0.1-0.1-0.2-0.3-0.3-0.4c-0.1-0.1-0.2-0.2-0.3-0.4c-0.1-0.1-0.2-0.3-0.3-0.4c-0.1-0.1-0.2-0.2-0.3-0.4
					c-0.1-0.2-0.2-0.3-0.4-0.5c-0.1-0.2-0.2-0.3-0.4-0.5c-0.1-0.2-0.3-0.4-0.4-0.6c-0.1-0.1-0.2-0.3-0.3-0.4
					c-0.1-0.1-0.2-0.3-0.3-0.4c-0.1-0.1-0.2-0.3-0.3-0.4c-0.1-0.1-0.2-0.3-0.3-0.4c-0.1-0.1-0.2-0.3-0.3-0.4
					c-0.1-0.2-0.2-0.3-0.3-0.5c-0.1-0.1-0.2-0.3-0.2-0.4c-0.2-0.3-0.3-0.5-0.5-0.8c-0.1-0.1-0.2-0.3-0.2-0.4
					c-0.1-0.2-0.2-0.3-0.3-0.5c-0.1-0.1-0.2-0.3-0.2-0.4c-0.1-0.2-0.2-0.3-0.3-0.5c-0.1-0.1-0.2-0.3-0.2-0.5
					c-0.1-0.2-0.2-0.3-0.3-0.5c-0.1-0.1-0.1-0.3-0.2-0.4c-0.4-0.9-0.8-1.8-1.2-2.8c-0.2-0.4-0.3-0.8-0.5-1.2c0,0,0,0,0,0
					c-0.1-0.3-0.2-0.7-0.4-1c-0.1,0-0.1,0-0.2,0.1c0.2,1.3,0.4,2.7,0.5,4c0.1,0.7,0.1,1.5,0.1,2.2c0.1,1.9,0,3.7-0.1,5.5
					c-0.5,6.8-2.2,12.9-3.7,17c-1.6-0.7-3.7-1.8-6-3.1c-0.9-0.5-1.8-1.1-2.7-1.7c-0.6-0.4-1.2-0.8-1.9-1.3c-0.9-0.7-1.9-1.4-2.8-2.1
					c-0.3-0.3-0.6-0.5-0.9-0.8c-2.8-2.4-5.6-5.1-7.9-8.3c-1-1.3-1.8-2.7-2.6-4.2c0,0-0.1,0-0.1,0.1c0,0,0,0,0,0c0,0,0,0,0,0
					c0,0-0.1,0-0.1,0.1c1.1,3.7,1.6,7.5,1.6,11.2c0,1.3,0,2.5-0.1,3.8c-0.1,1.7-0.3,3.3-0.5,4.8c-0.1,0.4-0.1,0.8-0.2,1.1
					c-0.1,0.8-0.3,1.5-0.4,2.2c-0.1,0.4-0.2,0.7-0.2,1.1c-0.2,0.7-0.3,1.4-0.5,2c-0.3,1.3-0.7,2.5-1,3.6c-0.2,0.5-0.3,1.1-0.5,1.5
					c-0.2,0.5-0.3,0.9-0.5,1.3c-1.3-0.6-2.7-1.3-4.2-2.1c-0.5-0.3-1-0.6-1.5-0.9c-0.3-0.2-0.5-0.3-0.8-0.5c-0.5-0.3-1.1-0.7-1.6-1
					c-1.1-0.7-2.2-1.5-3.3-2.3c-4-3-8-6.7-11.2-11.3c-0.1,0-0.1,0.1-0.2,0.1c0.2,0.3,0.3,0.7,0.5,1c0,0,0,0,0,0
					c0.2,0.4,0.4,0.8,0.5,1.2v0c0.4,0.9,0.8,1.9,1.1,2.8c0.1,0.2,0.1,0.3,0.2,0.5c0.1,0.2,0.1,0.4,0.2,0.6c0.1,0.2,0.1,0.3,0.2,0.5
					c0.1,0.2,0.1,0.4,0.2,0.5c0,0.2,0.1,0.3,0.1,0.5c0.1,0.2,0.1,0.4,0.2,0.5c0,0.2,0.1,0.3,0.1,0.5c0.1,0.3,0.2,0.6,0.2,0.9
					c0,0.2,0.1,0.3,0.1,0.5c0,0.2,0.1,0.4,0.1,0.5c0,0.2,0.1,0.3,0.1,0.5c0,0.2,0.1,0.3,0.1,0.5c0,0.2,0.1,0.3,0.1,0.5
					c0,0.2,0.1,0.3,0.1,0.5c0,0.2,0.1,0.3,0.1,0.5c0,0.2,0.1,0.5,0.1,0.7c0,0.2,0.1,0.4,0.1,0.6c0,0.2,0.1,0.4,0.1,0.6
					c0,0.2,0,0.3,0.1,0.5c0,0.2,0,0.3,0.1,0.5c0,0.2,0,0.3,0.1,0.5c0,0.2,0,0.3,0.1,0.5c0,0.1,0,0.3,0,0.4c0,0.2,0,0.4,0.1,0.6
					c0,0.2,0,0.3,0,0.5c0,0.2,0,0.5,0.1,0.7c0,0.1,0,0.3,0,0.4c0,0.2,0,0.3,0,0.5c0,0.1,0,0.3,0,0.4c0,0.2,0,0.3,0,0.5
					c0,0.1,0,0.3,0,0.4c0,0.2,0,0.4,0,0.6c0,0.1,0,0.2,0,0.3c0,0.3,0,0.6,0,0.8c0,0.1,0,0.2,0,0.3c0,0.2,0,0.4,0,0.5
					c0,0.1,0,0.2,0,0.3c0,0.2,0,0.3,0,0.5c0,0.1,0,0.2,0,0.3c0,0.2,0,0.4,0,0.5c0,0.1,0,0.2,0,0.3c0,0.3,0,0.5,0,0.7
					c0,0.1,0,0.1,0,0.2c0,0.2,0,0.4,0,0.6c0,0.1,0,0.2,0,0.3c0,0.2,0,0.3,0,0.5c0,0.1,0,0.2,0,0.3c0,0.2,0,0.3,0,0.5
					c0,0.1,0,0.1,0,0.2c0,0.2,0,0.4,0,0.6c0,0,0,0,0,0c-1.6-0.5-3.5-1.1-5.6-1.8c-1-0.4-2.1-0.8-3.2-1.3c-2.2-0.9-4.6-2-7-3.3
					c-0.6-0.3-1.2-0.6-1.8-1c-2.1-1.2-4.2-2.5-6.2-4c-0.1,0-0.1,0.1-0.2,0.1c0.1,0.1,0.3,0.2,0.4,0.4c0,0,0.1,0.1,0.1,0.1
					c0.3,0.3,0.6,0.6,0.9,0.8c0,0,0.1,0.1,0.1,0.1c0.6,0.6,1.2,1.2,1.8,1.8c0,0,0,0,0.1,0.1c0.6,0.6,1.2,1.2,1.7,1.9
					c5.4,6,9.2,12.3,11.4,16.5c0.3-0.5,0.6-1,0.9-1.5c0.2-0.3,0.5-0.7,0.8-1c-2.8-5-6.4-9.7-6.4-9.7s5.8,2.8,11.6,4.4
					c0.1-0.1,0.3-0.2,0.4-0.3c0.5-0.4,1-0.8,1.6-1.3c0.1-0.1,0.2-0.1,0.3-0.2c0.8-0.6,1.5-1.2,2.4-1.8c0.6-7.2-0.7-15.1-0.7-15.1
					s6,4.8,12.5,7.7c0.7-0.4,1.3-0.7,2-1.1c0.6-0.3,1.3-0.7,2-1c0.9-0.5,1.9-0.9,2.8-1.4c3.4-7.9,3.8-18.2,3.8-18.2s7.6,7,15.5,10.1
					c1-0.3,2-0.7,3-1c0.7-0.2,1.4-0.5,2.1-0.7c0.7-0.2,1.5-0.4,2.2-0.7c2.5-6.6,3.4-14.3,3.4-14.3s4.6,6.5,10.1,11.2
					c1-0.2,2-0.3,2.9-0.4c0.1,0,0.2,0,0.4,0c0.7-0.1,1.4-0.2,2-0.2c0.2,0,0.3,0,0.5,0c2.9-5.3,5.1-11.4,5.1-11.4s0.8,5.8,2.3,11.4
					c0.4,0.1,0.9,0.1,1.3,0.2c0.6,0.1,1.2,0.2,1.7,0.4c-1.4-4.5-3.1-11.6-3.6-19.7c0-0.8-0.1-1.7-0.1-2.5c0,0,0-0.1,0-0.1
					c0-0.8,0-1.7,0-2.5c0,0,0-0.1,0-0.1c0-0.4,0-0.8,0-1.2c0-0.1,0-0.1,0-0.2c0-0.2,0-0.4,0-0.6c-0.1,0-0.1,0-0.2,0
					C380.9,34.7,380.7,35.4,380.6,36.1z"/>
				<path class="st2" d="M338.4,71c-24.8,10.3-42.7,24.1-39.9,30.9c0.7,1.7,2.7,2.8,5.6,3.3c-0.2-0.6-0.4-1.5-0.4-2.8l0-0.1l0-0.1
					c1-4.1,6.9-8.9,11.7-12.2c6.7-4.6,15.7-9.3,25.3-13.3c10.2-4.2,20.3-7.3,28.6-8.7c5.9-1,13.6-1.6,16.6,1.2l0.1,0.1l0,0.1
					c0.4,0.6,0.7,1.1,0.8,1.5c1.7-2.4,2.3-4.6,1.6-6.3C385.6,57.9,363.2,60.7,338.4,71z"/>
				<path class="st2" d="M307.6,97.6c-0.1,0.1-0.2,0.2-0.3,0.3c0,0,0,0,0,0c-0.2,0.2-0.3,0.4-0.5,0.6c-0.3,0.3-0.5,0.6-0.7,0.9
					c0,0,0,0.1-0.1,0.1c-0.1,0.1-0.1,0.1-0.2,0.2c0,0-0.1,0.1-0.1,0.1c0,0.1-0.1,0.1-0.1,0.2c0,0-0.1,0.1-0.1,0.1
					c0,0.1-0.1,0.1-0.1,0.2c0,0-0.1,0.1-0.1,0.1c0,0.1-0.1,0.1-0.1,0.2c0,0-0.1,0.1-0.1,0.1c0,0.1-0.1,0.1-0.1,0.2
					c0,0.1-0.1,0.1-0.1,0.2c0,0.1,0,0.1-0.1,0.2c0,0.1,0,0.1-0.1,0.2c0,0,0,0.1-0.1,0.1c0,0.1,0,0.1-0.1,0.2c0,0,0,0.1,0,0.1
					c0,0.1,0,0.1-0.1,0.2c0,0,0,0.1,0,0.1c0,0.1-0.1,0.2-0.1,0.3c0,0,0,0,0,0c0,0.2,0,0.3,0,0.5c0,0.2,0,0.3,0,0.5
					c0,0.1,0,0.2,0,0.3c0,0.2,0.1,0.3,0.1,0.5c0,0.2,0.1,0.4,0.1,0.5c0,0.1,0.1,0.2,0.1,0.3c0.1,0.2,0.2,0.4,0.2,0.4l0,0l2.2,5.1
					c0-0.1,0-0.2,0-0.4l2.2,4.7c0,0,0,0,0,0l-1.4-3.2c1.2-1.7,2.9-3.5,4.9-5.3l-1.3-3.1l1.8,2l-3.7-8.9l6,6.9l-3.6-7.3l2.1,2.9
					l0.8,1.1l2.1,2.9c2.4-1.8,5.1-3.7,8.1-5.5l-1-2.5l1.2,1.4L323,90l4.2,4.8l-2.5-5.1l4.1,5.6c4.9-2.8,10.4-5.5,16.4-8
					c5.9-2.5,11.8-4.5,17.2-6l-1-6.8l1.8,5.4l-0.4-6.4l2.6,6.2l-0.1-1.9l1,2.5c3.4-0.8,6.6-1.4,9.6-1.9l-1.3-8.4l2.6,7.7l-0.5-7.5
					l-0.1-1.6l3.7,8.9l-0.2-2.7l1.3,3.1c2.9-0.1,5.5,0,7.7,0.4l-2.7-6.5c0,0,0-0.1-0.1-0.2c0-0.1,0-0.2-0.1-0.3
					c0-0.1-0.1-0.2-0.1-0.3c0-0.1-0.1-0.2-0.2-0.3c0-0.1-0.1-0.1-0.1-0.2c-0.1-0.2-0.2-0.4-0.4-0.6c0,0,0,0,0,0
					c-0.1-0.1-0.2-0.2-0.3-0.2c0,0-0.1,0-0.1-0.1c-0.1-0.1-0.2-0.1-0.3-0.2c0,0,0,0-0.1,0c-0.1-0.1-0.2-0.1-0.4-0.2c0,0-0.1,0-0.1,0
					c-0.1-0.1-0.2-0.1-0.3-0.2c0,0-0.1,0-0.1,0c-0.1-0.1-0.3-0.1-0.4-0.2c0,0,0,0,0,0c-0.1,0-0.3-0.1-0.4-0.1c0,0-0.1,0-0.1,0
					c-0.3-0.1-0.7-0.2-1.1-0.2c0,0-0.1,0-0.1,0c-0.4-0.1-0.8-0.1-1.2-0.2c0,0,0,0,0,0c-0.2,0-0.4,0-0.7-0.1c0,0,0,0,0,0
					c-0.5,0-1,0-1.5-0.1c0,0,0,0,0,0c-0.2,0-0.4,0-0.6,0c-0.1,0-0.2,0-0.3,0c-0.1,0-0.2,0-0.3,0c-0.1,0-0.2,0-0.4,0
					c-0.1,0-0.2,0-0.3,0c-0.1,0-0.3,0-0.4,0c-0.1,0-0.2,0-0.3,0l0,0c-1.8,0.1-3.8,0.4-5.9,0.7l0,0c0,0,0,0,0,0
					c-0.4,0.1-0.8,0.1-1.2,0.2c0,0,0,0-0.1,0l0,0c-0.3,0-0.5,0.1-0.8,0.1l0,0c0,0,0,0-0.1,0c-0.3,0.1-0.7,0.1-1,0.2c0,0,0,0,0,0l0,0
					c-0.3,0.1-0.5,0.1-0.8,0.2l0,0c0,0,0,0,0,0c-0.7,0.1-1.4,0.3-2.1,0.5c0,0,0,0-0.1,0c-0.6,0.1-1.1,0.3-1.7,0.4
					c-0.1,0-0.2,0-0.3,0.1c-0.1,0-0.1,0-0.2,0l0,0c-1.8,0.5-3.7,1-5.6,1.6l0,0c0,0,0,0,0,0c-0.4,0.1-0.8,0.3-1.2,0.4l0,0
					c-0.2,0.1-0.5,0.2-0.7,0.2l0,0c0,0,0,0,0,0c-0.3,0.1-0.6,0.2-1,0.3l0,0c-0.2,0.1-0.5,0.2-0.7,0.2l0,0c0,0,0,0,0,0
					c-1.5,0.5-3,1-4.5,1.6c0,0,0,0-0.1,0c-0.7,0.3-1.5,0.5-2.2,0.8c0,0-0.1,0-0.1,0c-0.7,0.3-1.5,0.6-2.2,0.9c0,0-0.1,0-0.1,0l0,0
					c-0.6,0.3-1.3,0.5-1.9,0.8c-0.6,0.3-1.3,0.5-1.9,0.8c0,0,0,0,0,0c-0.5,0.2-0.9,0.4-1.4,0.6c-0.1,0-0.1,0.1-0.2,0.1
					c-0.5,0.2-0.9,0.4-1.3,0.6c-0.1,0-0.1,0.1-0.2,0.1c-0.9,0.4-1.8,0.8-2.7,1.3c0,0-0.1,0-0.1,0.1c-0.4,0.2-0.9,0.4-1.3,0.6
					c0,0-0.1,0-0.1,0.1c-0.9,0.4-1.8,0.9-2.7,1.3c0,0,0,0,0,0c-0.4,0.2-0.9,0.4-1.3,0.7c0,0,0,0,0,0l0,0c-0.2,0.1-0.5,0.2-0.7,0.4
					l0,0c-0.3,0.1-0.6,0.3-0.8,0.4c0,0-0.1,0-0.1,0.1l0,0c-0.2,0.1-0.5,0.2-0.7,0.4l0,0c0,0,0,0-0.1,0c-0.3,0.2-0.7,0.4-1,0.6
					c0,0,0,0-0.1,0l0,0c-1.8,1-3.4,2-5,3l0,0c0,0,0,0-0.1,0c-0.3,0.2-0.6,0.4-0.9,0.6c0,0,0,0,0,0c-0.6,0.4-1.2,0.8-1.8,1.2
					c0,0,0,0,0,0c-0.3,0.2-0.6,0.4-0.8,0.6c0,0,0,0,0,0l0,0c-0.2,0.2-0.4,0.3-0.6,0.5l0,0c0,0,0,0,0,0c-0.3,0.2-0.6,0.4-0.9,0.6
					c0,0,0,0,0,0l0,0c-0.2,0.2-0.4,0.3-0.6,0.5l0,0c0,0,0,0,0,0c-0.4,0.3-0.7,0.5-1.1,0.8c0,0,0,0,0,0l0,0
					C310.4,94.9,308.8,96.3,307.6,97.6L307.6,97.6C307.6,97.6,307.6,97.6,307.6,97.6z"/>
				<path class="st2" d="M346.5,90.5c-23.6,9.8-40.3,23.5-37.3,30.7c3,7.2,24.5,5.1,48.1-4.7s40.3-23.5,37.3-30.7
					C391.6,78.7,370,80.8,346.5,90.5z"/>
				<path class="st2" d="M326.1,41.3c2-0.8,3.1-2.7,2.4-4.2c-0.6-1.5-2.7-2.1-4.7-1.2c-2,0.8-3.1,2.7-2.4,4.2
					C322,41.6,324.1,42.2,326.1,41.3z"/>
				<path class="st2" d="M354.4,33.9c2-0.8,3.1-2.7,2.4-4.2c-0.6-1.5-2.7-2.1-4.7-1.2c-2,0.8-3.1,2.7-2.4,4.2
					C350.4,34.2,352.5,34.7,354.4,33.9z"/>
				<path class="st2" d="M300.8,56.1c2-0.8,3.1-2.7,2.4-4.2c-0.6-1.5-2.7-2.1-4.7-1.2c-2,0.8-3.1,2.7-2.4,4.2
					C296.7,56.4,298.8,56.9,300.8,56.1z"/>
				<path class="st2" d="M379.7,27.4c-2,0.8-3.1,2.7-2.4,4.2c0.6,1.5,2.7,2.1,4.7,1.2c2-0.8,3.1-2.7,2.4-4.2
					C383.8,27.2,381.7,26.6,379.7,27.4z"/>
				<path class="st2" d="M283,70.7c-0.6-1.5-2.7-2.1-4.7-1.2s-3.1,2.7-2.4,4.2c0.6,1.5,2.7,2.1,4.7,1.2
					C282.6,74.1,283.7,72.2,283,70.7z"/>
			</g>
		</g>
		<g>
			<path class="st3" d="M380.6,36.1c-0.1,0.7-0.3,1.4-0.5,2.1c-0.2,0.7-0.3,1.4-0.5,2.1c-0.5,2-1.1,4-1.8,5.8
				c-0.3,0.9-0.7,1.8-1,2.7c-0.1,0.3-0.2,0.6-0.3,0.9c-0.5,1.1-0.9,2.2-1.4,3.3c-0.2,0.5-0.5,1-0.7,1.5c-0.1,0.2-0.2,0.5-0.3,0.7
				c-0.2,0.5-0.5,0.9-0.7,1.4c-0.5,0.9-0.9,1.7-1.3,2.4c-0.2-0.1-0.3-0.3-0.5-0.4c-0.1,0-0.1-0.1-0.2-0.1c-0.1-0.1-0.2-0.2-0.4-0.3
				c-0.1-0.1-0.1-0.1-0.2-0.2c-0.1-0.1-0.2-0.2-0.3-0.3c-0.1-0.1-0.1-0.1-0.2-0.2c-0.1-0.1-0.3-0.3-0.4-0.4c0,0-0.1-0.1-0.1-0.1
				c-0.2-0.2-0.4-0.3-0.5-0.5c-0.1-0.1-0.1-0.1-0.2-0.2c-0.1-0.1-0.3-0.2-0.4-0.4c-0.1-0.1-0.1-0.1-0.2-0.2
				c-0.1-0.1-0.2-0.2-0.4-0.4c-0.1-0.1-0.2-0.2-0.2-0.2c-0.1-0.1-0.3-0.3-0.4-0.4c-0.1-0.1-0.1-0.1-0.2-0.2
				c-0.2-0.2-0.4-0.4-0.6-0.6c-0.1-0.1-0.1-0.1-0.2-0.2c-0.1-0.1-0.3-0.3-0.4-0.4c-0.1-0.1-0.2-0.2-0.3-0.3
				c-0.1-0.1-0.2-0.3-0.3-0.4c-0.1-0.1-0.2-0.2-0.3-0.3c-0.1-0.1-0.2-0.3-0.3-0.4c-0.1-0.1-0.2-0.2-0.3-0.3
				c-0.2-0.2-0.3-0.4-0.5-0.6c-0.1-0.1-0.2-0.2-0.3-0.4c-0.1-0.2-0.3-0.3-0.4-0.5c-0.1-0.1-0.2-0.2-0.3-0.3
				c-0.1-0.1-0.2-0.3-0.3-0.4c-0.1-0.1-0.2-0.2-0.3-0.4c-0.1-0.1-0.2-0.3-0.3-0.4c-0.1-0.1-0.2-0.2-0.3-0.4
				c-0.1-0.2-0.2-0.3-0.4-0.5c-0.1-0.2-0.2-0.3-0.4-0.5c-0.1-0.2-0.3-0.4-0.4-0.6c-0.1-0.1-0.2-0.3-0.3-0.4
				c-0.1-0.1-0.2-0.3-0.3-0.4c-0.1-0.1-0.2-0.3-0.3-0.4c-0.1-0.1-0.2-0.3-0.3-0.4c-0.1-0.1-0.2-0.3-0.3-0.4
				c-0.1-0.2-0.2-0.3-0.3-0.5c-0.1-0.1-0.2-0.3-0.2-0.4c-0.2-0.3-0.3-0.5-0.5-0.8c-0.1-0.1-0.2-0.3-0.2-0.4
				c-0.1-0.2-0.2-0.3-0.3-0.5c-0.1-0.1-0.2-0.3-0.2-0.4c-0.1-0.2-0.2-0.3-0.3-0.5c-0.1-0.1-0.2-0.3-0.2-0.5
				c-0.1-0.2-0.2-0.3-0.3-0.5c-0.1-0.1-0.1-0.3-0.2-0.4c-0.1-0.3-0.3-0.6-0.4-0.9c3.6,9.6,10.6,17.3,15.5,21.7
				c0.7-0.1,1.4-0.2,2-0.2c2.5-4.6,5.5-11.4,7.3-19.1c0,0,0,0,0,0c0-0.8-0.1-1.7-0.1-2.5c0,0,0-0.1,0-0.1c0-0.8,0-1.7,0-2.5
				c0,0,0-0.1,0-0.1c0-0.4,0-0.8,0-1.2c0-0.1,0-0.1,0-0.2c0-0.2,0-0.4,0-0.6c-0.1,0-0.1,0-0.2,0C380.9,34.7,380.7,35.4,380.6,36.1z"
				/>
			<path class="st3" d="M326.3,42.2c1.1,3.7,1.6,7.5,1.6,11.2c0,1.3,0,2.5-0.1,3.8c-0.1,1.7-0.3,3.3-0.5,4.8
				c-0.1,0.4-0.1,0.8-0.2,1.1c-0.1,0.8-0.3,1.5-0.4,2.2c-0.1,0.4-0.2,0.7-0.2,1.1c-0.2,0.7-0.3,1.4-0.5,2c-0.3,1.3-0.7,2.5-1,3.6
				c-0.2,0.5-0.3,1.1-0.5,1.5c-0.2,0.5-0.3,0.9-0.5,1.3c-1.3-0.6-2.7-1.3-4.2-2.1c-0.5-0.3-1-0.6-1.5-0.9c-0.3-0.2-0.5-0.3-0.8-0.5
				c-0.5-0.3-1.1-0.7-1.6-1c-1.1-0.7-2.2-1.5-3.3-2.3c-4-3-8-6.7-11.2-11.3c-0.1,0-0.1,0.1-0.2,0.1c0.2,0.3,0.3,0.7,0.5,1
				c0,0,0,0,0,0c0.2,0.4,0.4,0.8,0.5,1.2v0c6,8.9,15.2,14.8,21.6,17.9c0.6-0.3,1.3-0.7,2-1c2.5-7.3,5.8-21.6,0.8-33.8
				C326.4,42.1,326.3,42.2,326.3,42.2z"/>
			<path class="st3" d="M355.6,36.9c-0.2-0.4-0.3-0.8-0.5-1.2c0,0,0,0,0,0c-0.1-0.3-0.2-0.7-0.4-1c-0.1,0-0.1,0-0.2,0.1
				c0.2,1.3,0.4,2.7,0.5,4c0.1,0.7,0.1,1.5,0.1,2.2c0.1,1.9,0,3.7-0.1,5.5c-0.5,6.8-2.2,12.9-3.7,17c-1.6-0.7-3.7-1.8-6-3.1
				c-0.9-0.5-1.8-1.1-2.7-1.7c-0.6-0.4-1.2-0.8-1.9-1.3c-0.9-0.7-1.9-1.4-2.8-2.1c-0.3-0.3-0.6-0.5-0.9-0.8
				c-2.8-2.4-5.6-5.1-7.9-8.3c-1-1.3-1.8-2.7-2.6-4.2c0,0-0.1,0-0.1,0.1c5.1,12.1,17.5,20,24.4,23.4c0.7-0.2,1.4-0.5,2.1-0.7
				C355.2,58.1,357.6,47.4,355.6,36.9C355.6,36.9,355.6,36.9,355.6,36.9z"/>
			<path class="st3" d="M302.9,61c0.1,0.3,0.2,0.6,0.3,0.9c0.1,0.2,0.1,0.3,0.2,0.5c0.1,0.2,0.1,0.4,0.2,0.6
				c0.1,0.2,0.1,0.3,0.2,0.5c0.1,0.2,0.1,0.4,0.2,0.5c0,0.2,0.1,0.3,0.1,0.5c0.1,0.2,0.1,0.4,0.2,0.5c0,0.2,0.1,0.3,0.1,0.5
				c0.1,0.3,0.2,0.6,0.2,0.9c0,0.2,0.1,0.3,0.1,0.5c0,0.2,0.1,0.4,0.1,0.5c0,0.2,0.1,0.3,0.1,0.5c0,0.2,0.1,0.3,0.1,0.5
				c0,0.2,0.1,0.3,0.1,0.5c0,0.2,0.1,0.3,0.1,0.5c0,0.2,0.1,0.3,0.1,0.5c0,0.2,0.1,0.5,0.1,0.7c0,0.2,0.1,0.4,0.1,0.6
				c0,0.2,0.1,0.4,0.1,0.6c0,0.2,0,0.3,0.1,0.5c0,0.2,0,0.3,0.1,0.5c0,0.2,0,0.3,0.1,0.5c0,0.2,0,0.3,0.1,0.5c0,0.1,0,0.3,0,0.4
				c0,0.2,0,0.4,0.1,0.6c0,0.2,0,0.3,0,0.5c0,0.2,0,0.5,0.1,0.7c0,0.1,0,0.3,0,0.4c0,0.2,0,0.3,0,0.5c0,0.1,0,0.3,0,0.4
				c0,0.2,0,0.3,0,0.5c0,0.1,0,0.3,0,0.4c0,0.2,0,0.4,0,0.6c0,0.1,0,0.2,0,0.3c0,0.3,0,0.6,0,0.8c0,0.1,0,0.2,0,0.3
				c0,0.2,0,0.4,0,0.5c0,0.1,0,0.2,0,0.3c0,0.2,0,0.3,0,0.5c0,0.1,0,0.2,0,0.3c0,0.2,0,0.4,0,0.5c0,0.1,0,0.2,0,0.3
				c0,0.3,0,0.5,0,0.7c0,0.1,0,0.1,0,0.2c0,0.2,0,0.4,0,0.6c0,0.1,0,0.2,0,0.3c0,0.2,0,0.3,0,0.5c0,0.1,0,0.2,0,0.3
				c0,0.2,0,0.3,0,0.5c0,0.1,0,0.1,0,0.2c0,0.2,0,0.4,0,0.6c0,0,0,0,0,0c-1.6-0.5-3.5-1.1-5.6-1.8c-1-0.4-2.1-0.8-3.2-1.3
				c-2.2-0.9-4.6-2-7-3.3c-0.6-0.3-1.2-0.6-1.8-1c-2.1-1.2-4.2-2.5-6.2-4c-0.1,0-0.1,0.1-0.2,0.1c0.1,0.1,0.3,0.2,0.4,0.4
				c0,0,0.1,0.1,0.1,0.1c0.3,0.3,0.6,0.6,0.9,0.8c0,0,0.1,0.1,0.1,0.1c0.6,0.6,1.2,1.2,1.8,1.8c0,0,0,0,0.1,0.1
				c0.6,0.6,1.2,1.2,1.7,1.9c0,0,0,0,0,0c6.8,4.2,13.7,6.8,18.7,8.4c0.5-0.4,1-0.8,1.6-1.3C307.7,80.7,307.2,70.3,302.9,61z"/>
			<g>
				<path class="st3" d="M321.3,80.7c-2.7,1.6-4.5,3.4-4.2,3.9c0.3,0.5,2.8-0.4,5.4-2c2.7-1.6,4.5-3.4,4.2-3.9
					C326.4,78.2,323.9,79.1,321.3,80.7z"/>
				<path class="st3" d="M315.8,83.4c-0.2,0.1-0.3,0.4-0.2,0.6c0.1,0.2,0.4,0.2,0.6,0.1s0.3-0.4,0.2-0.6
					C316.3,83.3,316,83.3,315.8,83.4z"/>
				<path class="st3" d="M315.2,85.2c-0.4,0.2-0.5,0.7-0.3,1c0.2,0.3,0.6,0.3,1,0.1c0.4-0.2,0.5-0.7,0.3-1
					C316.1,85,315.6,84.9,315.2,85.2z"/>
				<polygon class="st3" points="349,67.8 348.7,70.4 351.3,69.5 351.7,66.9 				"/>
				<polygon class="st3" points="345.5,69.1 345.1,71.8 345.9,71.5 346.3,68.9 				"/>
			</g>
			<g>
				<path class="st3" d="M310.3,104.1l-2.7-6.5c0,0,0,0,0,0c-0.1,0.1-0.2,0.2-0.3,0.3c0,0,0,0,0,0c-0.2,0.2-0.3,0.4-0.5,0.6
					c-0.3,0.3-0.5,0.6-0.7,0.9c0,0,0,0.1-0.1,0.1c-0.1,0.1-0.1,0.1-0.2,0.2c0,0-0.1,0.1-0.1,0.1c0,0.1-0.1,0.1-0.1,0.2
					c0,0-0.1,0.1-0.1,0.1c0,0.1-0.1,0.1-0.1,0.2c0,0-0.1,0.1-0.1,0.1c0,0.1-0.1,0.1-0.1,0.2c0,0-0.1,0.1-0.1,0.1
					c0,0.1-0.1,0.1-0.1,0.2c0,0.1-0.1,0.1-0.1,0.2c0,0.1,0,0.1-0.1,0.2c0,0.1,0,0.1-0.1,0.2c0,0,0,0.1-0.1,0.1c0,0.1,0,0.1-0.1,0.2
					c0,0,0,0.1,0,0.1c0,0.1,0,0.1-0.1,0.2c0,0,0,0.1,0,0.1c0,0.1-0.1,0.2-0.1,0.3c0,0,0,0,0,0c0,0.2,0,0.3,0,0.5c0,0.2,0,0.3,0,0.5
					c0,0.1,0,0.2,0,0.3c0,0.2,0.1,0.3,0.1,0.5c0,0.2,0.1,0.4,0.1,0.5c0.1,0.4,0.3,0.6,0.3,0.6l0,0l2.2,5.1c0-0.1,0-0.2,0-0.4
					c0-0.3-0.1-0.7,0-1.1C307.6,107.5,308.7,105.9,310.3,104.1z"/>
				<path class="st3" d="M321.8,95.2l-2.7-6.5c0,0,0,0-0.1,0c-0.3,0.2-0.6,0.4-0.9,0.6c0,0,0,0,0,0c-0.6,0.4-1.2,0.8-1.8,1.2
					c0,0,0,0,0,0c-0.3,0.2-0.6,0.4-0.8,0.6c0,0,0,0,0,0l2.7,6.5C319.3,96.8,320.5,96,321.8,95.2z"/>
				<path class="st3" d="M317.5,98.1l-2.7-6.5c0,0,0,0,0,0c-0.3,0.2-0.6,0.4-0.9,0.6c0,0,0,0,0,0l2.7,6.5
					C316.9,98.5,317.2,98.3,317.5,98.1z"/>
				<path class="st3" d="M328,91.6l-2.7-6.5c0,0,0,0-0.1,0c-0.3,0.2-0.7,0.4-1,0.6c0,0,0,0-0.1,0l2.7,6.5
					C327.2,92,327.6,91.8,328,91.6z"/>
				<path class="st3" d="M342,85.1l-2.8-6.7c0,0,0,0,0,0c-0.5,0.2-0.9,0.4-1.4,0.6c-0.1,0-0.1,0.1-0.2,0.1c-0.5,0.2-0.9,0.4-1.3,0.6
					c-0.1,0-0.1,0.1-0.2,0.1c-0.9,0.4-1.8,0.8-2.7,1.3c0,0-0.1,0-0.1,0.1c-0.4,0.2-0.9,0.4-1.3,0.6c0,0-0.1,0-0.1,0.1
					c-0.9,0.4-1.8,0.9-2.7,1.3c0,0,0,0,0,0c-0.4,0.2-0.9,0.4-1.3,0.7c0,0,0,0,0,0l2.7,6.5C331.9,89.5,340.3,85.9,342,85.1z"/>
				<path class="st3" d="M329.7,90.7l-2.7-6.5c-0.3,0.1-0.6,0.3-0.8,0.4c0,0-0.1,0-0.1,0.1l2.7,6.5C329,91,329.3,90.9,329.7,90.7z"
					/>
				<path class="st3" d="M315.1,99.8c0.3-0.2,0.5-0.4,0.8-0.6l-2.7-6.5c0,0,0,0,0,0c-0.4,0.3-0.7,0.5-1.1,0.8c0,0,0,0,0,0l2.2,5.2
					L315.1,99.8z"/>
				<path class="st3" d="M356.6,79.3l-2.7-6.5c0,0,0,0,0,0c-0.3,0.1-0.6,0.2-1,0.3l2.7,6.5C356,79.5,356.3,79.4,356.6,79.3z"/>
				<path class="st3" d="M358.6,78.7l-2.7-6.5c0,0,0,0,0,0c-0.4,0.1-0.8,0.3-1.2,0.4l2.7,6.5C357.8,79,358.2,78.8,358.6,78.7z"/>
				<path class="st3" d="M372.5,75.3l-2.7-6.5c0,0,0,0,0,0c-0.4,0.1-0.8,0.1-1.2,0.2c0,0,0,0-0.1,0l2.7,6.5
					C371.6,75.5,372,75.4,372.5,75.3z"/>
				<path class="st3" d="M370.3,75.7l-2.7-6.5c0,0,0,0-0.1,0c-0.3,0.1-0.7,0.1-1,0.2c0,0,0,0,0,0l2.7,6.5
					C369.6,75.9,370,75.8,370.3,75.7z"/>
				<path class="st3" d="M368.5,76.1l-2.7-6.5c0,0,0,0,0,0c-0.7,0.1-1.4,0.3-2.1,0.5c0,0,0,0-0.1,0c-0.6,0.1-1.1,0.3-1.7,0.4
					c-0.1,0-0.2,0-0.3,0.1c-0.1,0-0.1,0-0.2,0l2.7,6.5C365.7,76.7,367.1,76.4,368.5,76.1z"/>
				<path class="st3" d="M376.5,68.6l2.5,6c4.4-0.2,7.6,0.4,9.1,1.8c0.1,0.2,0.2,0.4,0.3,0.5l-2.2-5.2c0,0,0-0.1-0.1-0.2
					c0-0.1,0-0.2-0.1-0.3c0-0.1-0.1-0.2-0.1-0.3c0-0.1-0.1-0.2-0.2-0.3c0-0.1-0.1-0.1-0.1-0.2c-0.1-0.2-0.2-0.4-0.4-0.6c0,0,0,0,0,0
					c-0.1-0.1-0.2-0.2-0.3-0.2c0,0-0.1,0-0.1-0.1c-0.1-0.1-0.2-0.1-0.3-0.2c0,0,0,0-0.1,0c-0.1-0.1-0.2-0.1-0.4-0.2c0,0-0.1,0-0.1,0
					c-0.1-0.1-0.2-0.1-0.3-0.2c0,0-0.1,0-0.1,0c-0.1-0.1-0.3-0.1-0.4-0.2c0,0,0,0,0,0c-0.1,0-0.3-0.1-0.4-0.1c0,0-0.1,0-0.1,0
					c-0.3-0.1-0.7-0.2-1.1-0.2c0,0-0.1,0-0.1,0c-0.4-0.1-0.8-0.1-1.2-0.2c0,0,0,0,0,0c-0.2,0-0.4,0-0.7-0.1c0,0,0,0,0,0
					c-0.5,0-1,0-1.5-0.1c0,0,0,0,0,0c-0.2,0-0.4,0-0.6,0c-0.1,0-0.2,0-0.3,0c-0.1,0-0.2,0-0.3,0c-0.1,0-0.2,0-0.4,0
					c-0.1,0-0.2,0-0.3,0c-0.1,0-0.3,0-0.4,0c-0.1,0-0.2,0-0.3,0l0.9,2.1L376.5,68.6z"/>
				<path class="st3" d="M354.9,79.9l-2.7-6.5c0,0,0,0,0,0c-1.5,0.5-3,1-4.5,1.6c0,0,0,0-0.1,0c-0.7,0.3-1.5,0.5-2.2,0.8
					c0,0-0.1,0-0.1,0c-0.7,0.3-1.5,0.6-2.2,0.9c0,0-0.1,0-0.1,0l2.8,6.7C346.6,83.2,354.1,80.2,354.9,79.9z"/>
			</g>
			<g>
				<path class="st3" d="M331.4,101.5c2.5-1.5,4.3-3.2,4-3.7c-0.3-0.5-2.6,0.4-5.1,1.9c-2.5,1.5-4.3,3.2-4,3.7
					C326.6,103.9,328.9,103,331.4,101.5z"/>
				<path class="st3" d="M325.4,102.9c0.2-0.1,0.2-0.3,0.1-0.5c-0.1-0.2-0.3-0.2-0.5-0.1c-0.2,0.1-0.2,0.3-0.1,0.5
					C325,103,325.2,103.1,325.4,102.9z"/>
				<path class="st3" d="M324.2,104.9c0.2,0.3,0.6,0.3,0.9,0.1c0.3-0.2,0.4-0.6,0.3-0.9c-0.2-0.3-0.6-0.3-0.9-0.1
					C324.2,104.2,324.1,104.6,324.2,104.9z"/>
			</g>
			<polygon class="st3" points="358.8,89.1 359.1,86.6 356.6,87.5 356.2,90 			"/>
			<polygon class="st3" points="353.6,91 353.9,88.5 353.2,88.7 352.9,91.2 			"/>
		</g>
		<path class="st1" d="M346.9,71.2c0.4-0.2,0.8-0.3,1.2-0.4l0.5-2.8c-0.4,0.1-0.8,0.3-1.2,0.4L346.9,71.2z"/>
		<path class="st4" d="M314.2,86.7c-0.2-0.4-0.1-1,0.4-1.7c-7.9,6.1-12.2,12.5-13.7,18.5c2.4-5.3,7.4-10.9,14.8-16.4
			C315,87.2,314.5,87.1,314.2,86.7z"/>
		<path class="st1" d="M371.1,65.4c0.4,0,0.8-0.1,1.2-0.1l0.3-1.9c-0.4,0-0.8,0-1.2,0L371.1,65.4z"/>
		<path class="st4" d="M327.5,76.9c1.3-0.3,2.2-0.2,2.5,0.2c0.2,0.3,0.1,0.9-0.3,1.5c3.1-1.6,6.4-3.1,10-4.6
			c1.7-0.7,3.3-1.3,4.8-1.9l0.5-2.9c-2,0.7-4.1,1.6-6.3,2.5C334.6,73.4,330.9,75.1,327.5,76.9z"/>
		<path class="st1" d="M352.4,69.3c6.2-2,11.6-3.1,16.4-3.7l0.4-2.1c-4.7,0.3-10,1.2-16.2,3L352.4,69.3z"/>
		<path class="st1" d="M376.6,63.7l-0.3,1.6c4.5,0.1,8.3,0.9,11.6,2.2C384.8,65.6,381.1,64.3,376.6,63.7z"/>
		<g>
			<g>
				<path class="st4" d="M356.2,87.6c-0.4,0.1-0.8,0.3-1.2,0.4l-0.5,2.7c0.4-0.1,0.8-0.3,1.2-0.4L356.2,87.6z"/>
				<path class="st4" d="M323.5,105.5c-0.2-0.4-0.1-0.9,0.4-1.6c-7.5,5.8-11.6,11.8-13.1,17.5c2.3-5,7-10.4,14.1-15.6
					C324.2,105.9,323.7,105.8,323.5,105.5z"/>
				<path class="st4" d="M378.9,83.4c-0.4,0-0.7,0-1.1,0l-0.3,1.9c0.4,0,0.8-0.1,1.1-0.1L378.9,83.4z"/>
				<path class="st4" d="M338.5,96.3c0.2,0.3,0.1,0.8-0.3,1.4c2.9-1.5,6.1-3,9.5-4.4c1.6-0.7,3.1-1.3,4.6-1.8l0.5-2.7
					c-1.9,0.7-3.9,1.5-6,2.3c-3.9,1.6-7.4,3.3-10.6,4.9C337.3,95.8,338.2,95.9,338.5,96.3z"/>
				<path class="st4" d="M375.7,83.4c-4.4,0.3-9.5,1.2-15.4,2.9l-0.4,2.6c5.9-1.9,11-3,15.5-3.5L375.7,83.4z"/>
				<path class="st4" d="M382.7,83.6l-0.2,1.5c4.2,0.1,7.8,0.9,11,2.1C390.5,85.4,387,84.2,382.7,83.6z"/>
				<path class="st4" d="M349.4,97.5c-17.3,7.2-30.8,15.6-33.4,20.7l-2.7,4.6l2.6-1.8c2.7,3.6,20.2,0.2,40-8
					c19.7-8.2,34.5-18.1,33.9-22.6l3-0.6l-4.4-1.1C383.6,86.5,367.4,90,349.4,97.5z"/>
			</g>
		</g>
		<path class="st1" d="M325.8,40.6c1.4-0.6,2.2-1.9,1.7-3c-0.4-1.1-1.9-1.5-3.4-0.9c-1.4,0.6-2.2,1.9-1.7,3c0.1,0.3,0.4,0.6,0.7,0.8
			c0.1-0.4,0.4-0.8,0.9-1c0.7-0.3,1.4-0.1,1.6,0.4c0.1,0.2,0.1,0.5-0.1,0.7C325.6,40.6,325.7,40.6,325.8,40.6z"/>
		<path class="st1" d="M354.1,33.1c1.4-0.6,2.2-1.9,1.7-3c-0.4-1.1-1.9-1.5-3.4-0.9c-1.4,0.6-2.2,1.9-1.7,3c0.1,0.3,0.4,0.6,0.7,0.8
			c0.1-0.4,0.4-0.8,0.9-1c0.7-0.3,1.4-0.1,1.6,0.4c0.1,0.2,0.1,0.5-0.1,0.7C353.9,33.2,354,33.2,354.1,33.1z"/>
		<path class="st1" d="M380.1,28.2c-1.4,0.6-2.2,1.9-1.7,3c0.1,0.3,0.4,0.6,0.7,0.8c0.1-0.4,0.4-0.8,0.9-1c0.7-0.3,1.4-0.1,1.6,0.4
			c0.1,0.2,0.1,0.5-0.1,0.7c0.1,0,0.2-0.1,0.3-0.1c1.4-0.6,2.2-1.9,1.7-3C383,28,381.5,27.6,380.1,28.2z"/>
		<g>
			<path class="st5" d="M325,37.7c-0.2-0.4-0.7-0.6-1.3-0.3c-0.5,0.2-0.8,0.7-0.7,1.1c0.2,0.4,0.7,0.6,1.3,0.3
				C324.9,38.6,325.2,38.1,325,37.7z"/>
			<path class="st5" d="M326.5,39c0.3-0.1,0.5-0.4,0.4-0.7c-0.1-0.3-0.5-0.3-0.8-0.2c-0.3,0.1-0.5,0.4-0.4,0.7
				C325.8,39,326.2,39.1,326.5,39z"/>
			<path class="st5" d="M353.4,30.3c-0.2-0.4-0.7-0.6-1.3-0.3c-0.5,0.2-0.8,0.7-0.7,1.1c0.2,0.4,0.7,0.6,1.3,0.3
				C353.3,31.2,353.6,30.7,353.4,30.3z"/>
			<path class="st5" d="M354.9,31.6c0.3-0.1,0.5-0.4,0.4-0.7c-0.1-0.3-0.5-0.3-0.8-0.2c-0.3,0.1-0.5,0.4-0.4,0.7
				C354.2,31.6,354.5,31.7,354.9,31.6z"/>
			<path class="st5" d="M299.7,52.5c-0.2-0.4-0.7-0.6-1.3-0.3c-0.5,0.2-0.8,0.7-0.7,1.1c0.2,0.4,0.7,0.6,1.3,0.3
				S299.9,52.9,299.7,52.5z"/>
			<path class="st5" d="M301.2,53.8c0.3-0.1,0.5-0.4,0.4-0.7c-0.1-0.3-0.5-0.3-0.8-0.2s-0.5,0.4-0.4,0.7
				C300.5,53.8,300.9,53.9,301.2,53.8z"/>
			<path class="st5" d="M379.7,28.9c-0.5,0.2-0.8,0.7-0.7,1.1c0.2,0.4,0.7,0.6,1.3,0.3c0.5-0.2,0.8-0.7,0.7-1.1
				C380.8,28.9,380.2,28.7,379.7,28.9z"/>
			<path class="st5" d="M382,29.6c-0.3,0.1-0.5,0.4-0.4,0.7c0.1,0.3,0.5,0.3,0.8,0.2c0.3-0.1,0.5-0.4,0.4-0.7
				C382.7,29.6,382.4,29.5,382,29.6z"/>
			<ellipse transform="matrix(0.9239 -0.3827 0.3827 0.9239 -6.2232 112.0841)" class="st5" cx="278.6" cy="71.7" rx="1" ry="0.8"/>
			<path class="st5" d="M280.7,71.6c-0.3,0.1-0.5,0.4-0.4,0.7c0.1,0.3,0.5,0.3,0.8,0.2c0.3-0.1,0.5-0.4,0.4-0.7
				C281.3,71.6,281,71.5,280.7,71.6z"/>
		</g>
	</g>
</g>
<g>
	<path class="st0" d="M803.3,120.8c-14.1-35.6-41.2-37.5-46.9-37.5c0,0-34.3-2.1-55.2,20.9c-20.9,23-15.3,57.8-9.2,76.3
		c6,18.5,20.2,45.8,45.2,52c25.1,6.2,54.2-11.9,62.9-32.8C808.8,178.8,817.4,156.3,803.3,120.8z M761.1,175.3
		c-1.7,9.7-9.3,20.9-18.5,16.1c-9.2-4.8-18.7-15.3-14.4-29.5c4.2-14.3,14.4-16.1,14.4-16.1C761.1,138.7,762.8,165.6,761.1,175.3z"/>
	<g>
		<path class="st11" d="M810.8,113.2c-14.1-35.6-41.2-37.5-46.9-37.5c0,0-34.3-2.1-55.2,20.9c-20.9,23-15.3,57.8-9.2,76.3
			c6,18.5,20.2,45.8,45.2,52c25.1,6.2,54.2-11.9,62.9-32.8C816.3,171.2,825,148.8,810.8,113.2z M768.6,167.8
			c-1.7,9.7-9.3,20.9-18.5,16.1c-9.2-4.8-18.7-15.3-14.4-29.5c4.2-14.3,14.4-16.1,14.4-16.1C768.6,131.2,770.3,158,768.6,167.8z"/>
	</g>
	<path class="st5" d="M756.2,129.2c5.5-1.1,11.5,0.4,15.8,4.1c4.4,3.7,6.5,9.7,6.7,15.3c0.1,3.7-0.4,7.4-1.4,10.8
		c-0.1-3.6-0.3-7.2-0.8-10.6C774.7,137.2,767.8,130.7,756.2,129.2L756.2,129.2z"/>
	<path class="st5" d="M747.6,84c12.2-6.4,28-5.8,39.5,1.9c3.8,2.6,7.1,5.9,9.6,9.6c-3.4-3-7-5.6-10.8-7.7
		C774.3,81.4,760.3,80.9,747.6,84L747.6,84z"/>
</g>
<g>
	<path class="st0" d="M654.7,116.4c-17.5-27.5-52.9-38.4-69.5-35.2c-16.6,3.2-18.1,5.8-22,41.3l-2.6,82.3c0,0-1.5,23.5,21.5,28.4
		c23,4.9,41.8-5.1,63.7-18.8c21.8-13.8,26.4-39.9,26.7-47.8C672.8,158.6,672.2,143.9,654.7,116.4z M622.9,173.8
		c-7.3,4.7-15.9,10.3-28.2,6.7c0.2,0,0.8-0.3,1.8-4.2c1.1-4.7,1.7-16,1-19.9c0,0-1.4-5.8,5.2-6.4c6.6-0.6,17.7,6.1,21.8,9
		C628.6,162,630.3,169.1,622.9,173.8z"/>
	<g>
		<path class="st12" d="M662.2,108.9c-17.5-27.5-52.9-38.4-69.5-35.2c-16.6,3.2-18.1,5.8-22,41.3l-2.6,82.3c0,0-1.5,23.5,21.5,28.4
			c23,4.9,41.8-5.1,63.7-18.8c21.8-13.8,26.4-39.9,26.7-47.8C680.3,151.1,679.8,136.4,662.2,108.9z M630.5,166.2
			c-7.3,4.7-15.9,10.3-28.2,6.7c0.2,0,0.8-0.3,1.8-4.2c1.1-4.7,1.7-16,1-19.9c0,0-1.4-5.8,5.2-6.4c6.6-0.6,17.7,6.1,21.8,9
			C636.1,154.5,637.8,161.6,630.5,166.2z"/>
	</g>
	<path class="st5" d="M597.8,77.6c-6.8,0.6-13.5,3.4-15.8,10.2c-0.8,2.1-1.4,4.4-2.1,6.8c-0.5-2.4-0.6-4.9-0.1-7.4
		c0.6-3.2,2.4-6.3,5.2-8.1C588.8,76.7,593.8,75.9,597.8,77.6L597.8,77.6z"/>
	<path class="st5" d="M621.3,139.1c9.5,1.4,20.9,9.7,20.1,20.3c-0.5-1.2-1-2.3-1.5-3.4C635.7,148.5,628.3,143.9,621.3,139.1
		L621.3,139.1z"/>
</g>
<g>
	<g>
		<path class="st0" d="M538.9,186.3c-4,17.8-8.8,28.2-14.6,34.9c-5.9,6.8-12.9,9.7-21.4,12.3c-16.8,5.2-61.2,2.7-68.7-26.9
			c-7.5-29.6-9.6-94.9,0.9-110.6c10.6-15.6,26-11.9,26-11.9c16.2,1.7,17.1,36.2,14.7,54.8c-2.4,18.7-3.8,41.1,2.5,48.8
			c6.2,7.7,23.4,4.9,24.9-28.1c1.5-33,4.7-44.6,7.3-55.6c2.6-10.9,12.6-26.9,26.7-13.9C551.3,103.2,547,150.5,538.9,186.3z"/>
		<path class="st13" d="M546.4,178.8c-4,17.8-8.8,28.2-14.6,34.9c-5.9,6.8-12.9,9.7-21.4,12.3c-16.8,5.2-61.2,2.7-68.7-26.9
			c-7.5-29.6-9.6-94.9,0.9-110.6c10.6-15.6,26-11.9,26-11.9c16.2,1.7,17.1,36.2,14.7,54.8c-2.4,18.7-3.8,41.1,2.5,48.8
			c6.2,7.7,23.4,4.9,24.9-28.1c1.5-33,4.7-44.6,7.3-55.6c2.6-10.9,12.6-26.9,26.7-13.9C558.8,95.7,554.5,143,546.4,178.8z"/>
	</g>
	<path class="st5" d="M534.3,83.2c-3.2,2.3-5.5,5.1-7.6,8.3c-1.6,2.5-2.9,5.2-4.6,7.8C521.6,92.3,526.7,83.3,534.3,83.2L534.3,83.2z
		"/>
	<path class="st5" d="M519,158.2c0.8,11.3-3.5,24.3-13.3,30.7c-3.3,2.1-7.2,3.3-11,3.3c3.6-1.2,6.9-2.8,9.7-5.1
		C513.1,180,516.5,168.8,519,158.2L519,158.2z"/>
</g>
<g>
	<g>
		<linearGradient id="SVGID_1_" gradientUnits="userSpaceOnUse" x1="332.9802" y1="296.3766" x2="804.2081" y2="296.3766">
			<stop  offset="8.377035e-03" style="stop-color:#F9E9DA"/>
			<stop  offset="0.1234" style="stop-color:#F8E4D3"/>
			<stop  offset="0.2955" style="stop-color:#F5D5BE"/>
			<stop  offset="0.5034" style="stop-color:#EFBD9D"/>
			<stop  offset="0.7381" style="stop-color:#E89C6F"/>
			<stop  offset="0.9728" style="stop-color:#DF7539"/>
		</linearGradient>
		<path class="st7" d="M666.7,298l0-0.4l-0.1-0.4c-0.2-0.9-0.4-1.6-0.6-2.3c-0.4-3.2-0.9-6.1-1.6-8.7c0-0.1,0-0.2,0-0.2v-0.2
			l-0.1-0.4l-0.3-2.5c-0.3-2.9-1.1-5.1-2.2-6.8l-0.1-0.1l0,0c-4.9-8.1-8.1-10-8.1-10c-2.2-1-4.7-1.5-7.5-1.5
			c-6.8,0-11.8,3.4-13.8,9.5l0,0l0,0c-0.9,2.9-1.2,7.1-1,13.4c0.1,1.4,0,2.5-0.1,3.2c0-0.3-0.1-0.6-0.1-1l-0.4-7.6
			c-0.2-4-0.8-6.8-1.9-9l0,0l0,0c-1-2-2.7-3.7-5-5c-2.3-1.4-4.5-2-6.7-2c-3.4,0-6.7,1-9.7,3c-2.4,1.6-4.3,3.9-5.4,7l-0.1,0.3
			l-0.1,0.3c-0.3,1.4-0.5,2.4-0.6,3.1l0,0.2c-3.5-5.4-8.2-9.2-14-11l-0.1,0l-0.7-0.5l-0.8-0.3c-5.2-1.8-10.9-2.8-17-2.8
			c-0.1,0-0.6,0-1.9-0.3c-1.4-0.3-2.5-0.4-3.5-0.4c-0.5,0-0.9,0-1.4,0.1c-5.5,0.7-9.7,2-12.6,4.1l-2.6,1.8l-0.6,0.4l-0.4,0.5
			c-2.4,2.8-4,5.9-4.7,9.2c-0.2,0.8-0.2,1.5-0.2,2.1c0,2.8,0.8,5.4,2.3,7.5c0.8,1.2,2.1,2.6,3.8,3.7c-1.5,0.8-3,1.9-4.4,3.2
			c-2,2-3.3,3.5-4.2,4.9l-0.2,0.3l-0.2,0.3c-0.1,0.3-0.3,0.5-0.4,0.8c-0.6-1.1-1.1-2.1-1.5-2.9c-1.3-3-3.5-5.9-6.7-8.5
			c-0.6-0.5-1.2-1-1.8-1.4c1.7-1.7,2.7-3.4,3.1-5.2c0.7-2.8,0.6-5.7-0.4-8.6c-1.1-3.4-3.6-6.4-7.4-8.9c-3.3-2.2-6.6-3.3-9.8-3.3
			c-0.5,0-0.9,0-1.4,0.1c-4.2,0.4-7.5,1.7-9.9,3.9c-1.8,1.7-4,4.7-4,9.8c0,4.2,1.4,8,4.3,11.5c0.8,0.9,1.5,1.7,2.3,2.4
			c-0.1,0.2-0.2,0.4-0.3,0.5l-0.8,1.7l0.4,1.8c0.1,0.3,0.1,0.6,1.4,4.7c0.5,1.7,0.5,2.4,0.5,2.4c0,0.6-0.1,1.5,0,4.2
			c0,0.6,0,1,0,1.4c-0.6-0.1-1.4-0.4-2.6-0.8c-3.1-1.1-5.4-1.6-7.3-1.6h-1.5c-0.2,0-0.3,0-0.3,0l-1-0.1l-0.9,0.2
			c-2.2,0.5-4.1,1.5-5.8,3.1c-0.1-0.4-0.2-0.7-0.3-1.1c-1.3-3.8-3.7-7.1-7.2-9.9c-0.3-0.3-0.7-0.5-1-0.8c4.6-2.8,9-8.4,8.3-19.7
			c-0.2-2.9-1.5-5.7-4.1-8.4c-3.4-3.6-8.4-5.4-14.7-5.4c-4,0-6.5,0.4-8.4,1.4l0,0l0,0c-1.5,0.8-2.8,2-4.1,3.8
			c0.5-1.8,0.9-3.6,1.2-5.2l0,0c0.5-2.8,0.6-6.5,0.1-11.6l-0.1-0.9l-0.4-0.8c-0.5-1.1-0.8-1.8-1.2-2.5c-1.4-3.9-3.7-6.9-7-8.9
			c-3.2-2-7.2-3-11.8-3c-1.4,0-2.9,0.2-4.7,0.5c-11,2.2-15.7,12.2-19.3,21.5c-1,2.6-5.1,10-7.2,14c-0.3,0.6-0.6,1.1-0.9,1.6
			c-0.7,1.3-1.8,4.1-3.7,8.8c-1.6,4-3.4,8.5-4.5,10.9l0,0l0,0c-0.5,1-1.3,2.1-2.4,3.1l0,0c-0.3,0.3-0.5,0.5-0.7,0.6
			c-0.2-0.1-0.4-0.3-0.6-0.5c-1.7-1.4-2.1-2-2.1-2l-0.1-0.1l-0.1-0.1c-3.7-5.2-6.5-20.9-7.6-26.9c-0.6-3.5-0.8-4.3-1.2-5.3
			c-2-4-4.6-7.7-7.9-11c-4.5-4.5-9.2-6.9-13.8-7h0c-0.1,0-0.2,0-0.3,0c-5.7,0-11.2,2.3-16.3,6.7c-5.3,4.7-8.2,10-8.5,15.9v0
			c-0.3,5.7,1.2,12.1,4.2,19.1c0.9,1.9,2.5,5.4,5,10.2c3.4,6.8,7,14.5,10.6,23l0.2,0.4l0.2,0.4l1.4,2.1l1.7,2.6l0,0l0,0
			c4.2,6.4,9.5,13,15.9,19.7c5.3,5.5,10,8.8,14.3,9.9c2.3,0.6,4.6,0.9,6.8,0.9c2.3,0,4.5-0.4,6.5-1c7.3-2.4,14.2-7.4,20.6-14.8
			c5.4-6.1,9.8-13,13.1-20.5c3.2-5.6,4.4-7.5,4.9-8.2l0.3-0.5l0.2-0.5c5.3-11.8,6.5-14.6,6.8-15.7l0,0l0,0c1.1-3.1,2.2-6.2,3.3-9.2
			c0.7,4.8,3.5,8.7,7.9,11.1c-4.4,2.7-5.4,6-5.4,8.4c0,0.8,0.1,1.4,0.3,2c-1.2,5.3-1.8,9.9-1.8,13.8c0,3.1,0.3,6,1,8.7
			c1.1,4.6,1.4,5.3,1.8,6c2.4,4.3,4.4,6.9,6.5,8.2c2,1.3,4.7,1.9,8.1,1.9c1.1,0,2.2-0.1,3.5-0.2l0.5,0l0.5-0.1
			c1.4-0.4,2.7-0.8,4-1.3c3.2-1.2,6-3.9,8.6-8.4c1.6,1.8,3.7,3.5,6.3,4.9c3,1.6,6.4,2.9,10.2,3.7c1.9,0.8,4.3,1.2,7.4,1.2
			c0.4,0,0.8,0,1.2,0h0c6.5-0.2,7.2-0.4,7.9-0.6l0.1,0l0.1,0c7-2.1,11.9-5,15.1-8.9l0.3-0.4l0.2-0.4c1.2-2.2,2-3.8,2.5-4.9
			c0-0.1,0.1-0.1,0.1-0.2c0.5,0.7,1,1.5,1.6,2.2c6.8,8.9,16.5,13.4,28.8,13.4c4.1,0,8.8-0.8,14.6-2.5l0,0l0,0
			c2.2-0.6,4.6-1.6,7.2-2.8c3.1-1.5,5.4-2.9,7-4.3c3.4-2.9,6.3-6.3,8.4-10.1c0.1-0.1,0.1-0.2,0.2-0.3c0,0.4-0.1,0.8-0.1,1.2
			c0,3.4,1,6.5,3,9.2c1.8,2.5,4.3,4.4,7.2,5.7l0.8,0.7l1.2,0.4c3.6,1.1,4.8,1.4,5.4,1.5c6,1.3,8.3,1.5,9.5,1.5c2,0,4-0.2,6-0.6
			l5.3-1c3-0.6,4.9-1.2,6.3-2l0,0l0,0c7.4-4.1,11.9-9,13.4-14.5c0.9-2.9,1.5-4.9,1.8-5.9c0.6-1.9,1-3.2,1.3-4c0-0.1,0-0.3,0.1-0.4
			c0.2-1.4,0.5-2.9,0.6-3.8c0.1-0.4,0.1-0.7,0.1-0.7c0.1-0.4,0.1-0.9,0.2-1.3l0,0l0,0C666.7,302.4,666.7,299.5,666.7,298z
			 M450,263.3c-0.9,4.3-2.3,9.3-4.2,15.1c-1.8,4.9-3.5,9.8-5.3,14.7c-0.5,1.4-2.7,6.5-6.7,15.3c-0.9,1.3-2.7,4.3-5.4,8.9
			c-3.1,7.2-7.2,13.6-12.3,19.4c-5.8,6.7-11.9,11.1-18.3,13.2c-1.5,0.5-3,0.8-4.7,0.8c-1.7,0-3.5-0.2-5.4-0.8
			c-3.3-0.9-7.2-3.7-11.7-8.4c-6.2-6.4-11.3-12.8-15.3-18.9c-0.5-0.8-1.5-2.4-3-4.7c-3.7-8.7-7.2-16.4-10.7-23.3
			c-2.4-4.8-4-8.1-4.8-9.9c-2.7-6.2-4-11.8-3.8-16.7c0.2-4.4,2.4-8.4,6.6-12c4.1-3.6,8.4-5.4,12.7-5.4c0.1,0,0.2,0,0.2,0
			c3.2,0.1,6.5,1.9,10,5.4c2.9,2.9,5.2,6.1,6.9,9.6c0.6,1.1,3.5,24.9,9.2,32.9c0.6,0.9,1.6,1.9,3.2,3.2c1.6,1.3,2.8,2,3.6,2
			c0.1,0,0.2,0,0.3,0c1.4,0,3-0.8,4.7-2.5c1.6-1.5,2.8-3.1,3.5-4.7c2.4-4.9,6.8-17.1,8.1-19.4c2.2-4.1,7.1-13,8.4-16.2
			c4.1-10.4,8-16.6,15.3-18.1c1.4-0.3,2.7-0.4,3.7-0.4c7.3,0,11.9,2.9,13.8,8.6c0.3,0.5,0.7,1.3,1.2,2.5
			C450.4,257.7,450.4,261.1,450,263.3z M454.3,283.1c0-0.7,0-1.4,0.1-2c0.1-0.9,1-2.8,2.5-5.7c1.4-2.6,2.7-4.2,3.9-4.8
			c1-0.5,2.9-0.8,5.8-0.8c4.8,0,8.4,1.2,10.7,3.7c1.6,1.7,2.5,3.4,2.6,4.9c0.5,8.1-2,13.3-7.4,15.6c-3.5,0-5.3,0-5.5-0.1
			c-2.3-0.1-4.4-0.5-6.2-1.1c-0.1-0.1-0.4-0.3-0.8-0.6C456.3,290.4,454.3,287.3,454.3,283.1z M480.7,331c-2.2,4.4-4.4,7-6.7,7.9
			c-1.1,0.4-2.3,0.8-3.5,1.1c-1.1,0.1-2.1,0.2-2.9,0.2c-2.4,0-4.1-0.4-5.3-1.1c-1.2-0.7-2.7-2.8-4.6-6.2c-0.1-0.2-0.6-1.8-1.3-4.6
			c-0.6-2.2-0.8-4.7-0.8-7.4c0-3.8,0.7-8.4,2-13.9c0-0.2,0-0.5-0.2-1c-0.2-0.5-0.3-0.8-0.3-1c0-1.6,1.4-3.1,4.1-4.4
			c1.6-0.7,3-1.1,4.3-1.1h0.8c2.8,0,5.7,1.1,8.5,3.4c2.7,2.1,4.5,4.6,5.4,7.4c0.7,1.9,1.2,5,1.6,9.3c0.1,1.4,0.2,2.7,0.2,4
			C482,326.8,481.6,329.3,480.7,331z M503,278.2c0-4.9,3-7.6,9-8.2c0.3,0,0.5,0,0.8,0c2.1,0,4.4,0.8,6.8,2.4
			c2.7,1.8,4.4,3.8,5.2,6.1c0.7,1.9,0.7,3.8,0.3,5.5c-0.2,1-1,2.1-2.3,3.3c-1.3,1.2-2.5,2-3.5,2.3c-0.4,0.2-1.8,0.3-4,0.3
			c-0.5,0.2-1.1,0.3-1.8,0.3c-2.8,0-5.3-1.3-7.4-3.9C504,283.7,503,281.1,503,278.2z M532.6,322.3c-0.3,1.8-1,3.7-1.9,5.5
			c-0.3,0.9-1.1,2.4-2.2,4.5c-2.5,3-6.6,5.4-12.4,7.2c-0.5,0.1-2.7,0.3-6.7,0.4c-0.3,0-0.7,0-1,0c-2.5,0-4.4-0.3-5.6-0.9
			c-3.6-0.7-6.7-1.8-9.3-3.3c-3.6-1.9-5.8-4.2-6.6-6.9c-0.1-0.5-0.4-3.4-0.8-8.7c0.1-0.1,0.2-0.3,0.3-0.6c0.2-1.7,0.9-3.3,2.1-4.8
			c1.2-1.5,2.6-2.5,4.2-2.8c0.3,0,0.7,0.1,1.1,0.1h1.5c1.2,0,3,0.4,5.4,1.3c2.4,0.8,4.2,1.3,5.4,1.3c3.1,0,4.6-2.4,4.5-7.2
			c0-1.8,0-3,0-3.6c0.1-1.2-0.1-2.7-0.7-4.5c-0.8-2.6-1.2-4-1.3-4.2c0.7-1.5,2-2.4,3.8-2.5c1.1-0.1,2-0.1,2.9-0.1
			c1.6,0,2.9,0.1,4,0.4c2,0.5,4,1.6,6,3.4c2.6,2.1,4.3,4.4,5.3,6.7c0.5,0.8,1,1.9,1.7,3.2c0.7,2.3,1.1,5.3,1.1,8.8
			C533.5,316.4,533.2,318.9,532.6,322.3z M602.3,312.2c-0.3,3.6-1.5,7.1-3.6,10.7c-1.9,3.3-4.3,6.2-7.2,8.7
			c-1.3,1.1-3.2,2.2-5.8,3.5c-2.3,1.1-4.5,2-6.4,2.5c-5.2,1.5-9.5,2.2-13,2.2c-10.6,0-18.7-3.7-24.5-11.2c-2.8-3.6-4.1-7-4-10.2
			c-0.1-0.4-0.2-1-0.3-1.9c0.5-1.7,1.3-3.7,2.5-5.9c0.4-1.3,1.3-3.2,2.5-5.8c0.7-1,1.8-2.3,3.5-4c1.1-1.1,2.3-1.9,3.5-2.5
			c2.6-1.1,6.8-1.8,12.8-2.1c5.9-0.3,10-0.9,12.1-1.8c0.7-0.3,1.2-1.4,1.3-3.1c0-0.7,0-1.6-0.2-2.5c-0.4-1.2-1.5-1.9-3.4-2.3
			c-0.3-0.1-0.6-0.1-0.9-0.1c-0.2,0-0.3,0-0.5,0c-1.7,0.1-3.6,0.6-5.6,1.5l-6,2.5c-0.6,0.2-1.4,0.3-2.4,0.3c-4.5,0-7.7-1.3-9.5-3.9
			c-0.9-1.3-1.3-2.7-1.3-4.4c0-0.4,0-0.6,0.1-0.8c0.5-2.5,1.7-4.8,3.5-6.9l2.6-1.8c2.2-1.5,5.6-2.6,10.2-3.2c0.2,0,0.4,0,0.7,0
			c0.7,0,1.5,0.1,2.5,0.3c1.4,0.3,2.4,0.4,2.9,0.4c5.5,0,10.5,0.8,15.2,2.5l0.8,0.6c6.3,1.8,11,6.1,14.2,13.1
			c2.4,5.3,3.6,11.3,3.6,17.9c0,0.7,0,1.8,0.1,3.4C602.4,309.7,602.4,311.1,602.3,312.2z M606.8,318.1c0.5-1.8,0.8-3.6,1-5.4
			c0-0.1,0-0.2,0-0.2c0.8,0.8,1.7,1.6,2.6,2.3c-0.4,0.3-0.9,0.7-1.3,1.1C608.2,316.5,607.4,317.3,606.8,318.1z M660.3,310.6
			c-0.2,1.5-0.4,3.2-0.6,5c-0.2,0.7-0.7,2.1-1.3,4.2c-0.3,1-0.9,3-1.8,6c-1.1,4.1-4.7,7.9-10.8,11.2c-0.8,0.5-2.4,0.9-4.8,1.4
			l-5.3,1c-1.6,0.3-3.3,0.5-4.9,0.5c-1.5,0-4.3-0.4-8.3-1.3c-0.7-0.1-2.4-0.6-5-1.4c-0.4-0.4-0.9-0.7-1.3-0.8
			c-2.1-0.9-3.8-2.2-5.1-3.9c-1.3-1.7-1.9-3.7-1.9-5.9c0-2.4,1.2-4.6,3.5-6.6c1.8-1.6,3.3-2.4,4.6-2.5c0.1,0,0.2,0,0.2,0
			c1.4,0,3.5,0.3,6.1,1.1c2.6,0.7,4.7,1.1,6.1,1.1c0.1,0,0.2,0,0.2,0h5.2c2.8-0.4,4.4-1.3,4.8-2.8c0.2-0.7,0-1.4-0.6-2.3
			c-0.6-0.9-1.2-1.5-1.8-1.7c0,0-0.3,0-0.9,0c-0.5,0-1.3,0-2.3,0c-3.1,0.4-6.1,0.7-9,0.8c-0.3,0-0.7,0-1.1,0c-0.4,0-0.9,0-1.4,0
			c-5.6-0.2-10.1-2.8-13.5-7.8c-1.5-2.2-2.5-4.4-2.9-6.7c-0.1-0.7-0.2-1.9-0.1-3.9v-14.9c0.1-0.6,0.3-1.5,0.6-2.7
			c0.7-2,1.8-3.4,3.3-4.3c2.1-1.4,4.4-2.1,6.7-2.1c1.2,0,2.5,0.4,3.9,1.3c1.4,0.8,2.4,1.8,2.9,2.8c0.7,1.5,1.1,3.7,1.3,6.9l0.4,7.6
			c0.3,4.7,2.4,7.1,6.2,7.1c3.6,0,5.2-3.3,5-9.8c-0.2-5.5,0.1-9.3,0.8-11.5c1.3-3.8,4.2-5.8,8.6-5.8c2.3,0,4.2,0.4,5.8,1.3
			c0.4,0.6,1.1,1.6,2.2,3.2l3.1,4.7c0.7,1,1.1,2.5,1.3,4.5l0.4,2.6c0,0.2,0,0.6,0.1,1c0.1,0.3,0.1,0.5,0.1,0.5c0,0,0,0,0,0
			c0.7,2.5,1.2,5.3,1.5,8.5c0.2,0.6,0.4,1.3,0.6,2.2C661.3,300.3,661,304.4,660.3,310.6z M804.1,307.8c-0.1-2-0.1-2.8-0.1-3.1
			c0-7.3-1.4-14.1-4.1-20.2c-3.7-8.1-9.3-13.4-16.6-15.8l-0.1,0l-0.7-0.5l-0.8-0.3c-5.2-1.8-10.9-2.8-17-2.8c-0.1,0-0.6,0-1.9-0.3
			c-1.4-0.3-2.5-0.4-3.5-0.4c-0.5,0-0.9,0-1.4,0.1c-5.5,0.7-9.7,2-12.7,4.1l-2.6,1.8l-0.6,0.4l-0.4,0.5c-2.4,2.8-4,5.9-4.7,9.2
			c-0.2,0.8-0.2,1.5-0.2,2.1c0,2.8,0.8,5.3,2.3,7.5c0.8,1.2,2.1,2.6,3.8,3.7c-1.5,0.8-3,1.9-4.4,3.2c-2,2-3.3,3.5-4.2,4.9l-0.2,0.3
			l-0.2,0.3c-1.2,2.5-2.1,4.5-2.6,5.9c-0.1,0.1-0.1,0.2-0.2,0.3c-2-2.5-4.6-4-7.6-4.5c0.2-1,0.3-2.2,0.3-3.3c0-4.1-1.7-6.7-3-8.1
			c-1.9-2-4.5-3.1-7.8-3.5c-0.1,0-0.2,0-0.3,0c0.4-1.9,0.6-4.4,0.6-7.7c0-1.5-0.3-3.3-0.9-5.3c-0.7-2.4-1.4-4-2.4-5.3l0,0l0,0
			c-2.8-3.5-5-5.2-7.3-5.9l0,0l0,0c-1.7-0.5-3.4-0.7-5-0.7c-0.9,0-1.9,0.1-2.8,0.2l0,0l0,0c-2.9,0.5-5.5,2-7.7,4.6
			c-1.7,2-2.9,4.2-3.5,6.5l-0.2,0.4c-0.2,0.4-0.4,0.8-0.6,1.2l-0.2,0.6l-0.1,0.7c-0.3,2.3-0.5,4.3-0.5,6.1c0,1.3,0.2,3,0.6,5.2
			c0.2,0.9,0.3,1.6,0.3,2.1c-0.9,0.3-1.8,0.6-2.6,0.9l0,0c-0.2,0.1-3,1.9-4.8,3.6c-0.9,1.1-1.6,2.2-2.2,3.2
			c-0.1,0.2-0.1,0.3-0.2,0.3l-0.9,1.1l-0.3,1.5c-0.3,2-0.3,4.1,0,6.6c0.1,0.9,0.3,1.7,0.6,2.5c0,0,1.2,5.5,7.3,7.5
			c0.7,0.2,1.5,0.4,2.3,0.5c0.6,0.1,1,0.1,1.4,0.2c0,0.1,0,0.1,0,0.2c-0.1,1.1-0.2,2-0.2,2.7c0,6.6,2.5,12.2,7.2,16.1l0,0l0,0
			c0.4,0.3,0.9,0.8,1.5,1.4l0.6,0.6l0.8,0.4c2.9,1.5,6.6,2.6,11.1,3.3c2.4,0.4,4.7,0.6,6.7,0.6c1,0,1.9,0,2.8-0.1
			c3.9-0.4,7.6-1.5,10.9-3.3c1.3-0.7,2.7-1.7,4.4-3.5c2.1-2.1,3.2-3.7,3.6-5.3c0.2-0.5,0.3-1,0.4-1.4c0,0,0.1,0.1,0.1,0.1
			c6.8,8.9,16.5,13.4,28.8,13.4c4.1,0,8.8-0.8,14.6-2.5l0,0l0,0c2.2-0.6,4.6-1.6,7.2-2.8c3.1-1.5,5.4-2.9,7-4.3
			c3.4-2.9,6.2-6.3,8.4-10.1c2.5-4.3,4-8.7,4.3-13C804.2,311.2,804.2,309.6,804.1,307.8z M729.6,324.4c-0.1,0.9-0.2,2-0.4,3.3
			c-0.2,0.7-0.7,2.1-1.3,4.1c-0.2,0.7-0.9,1.6-2.2,2.9c-1.3,1.3-2.3,2.1-3.1,2.5c-2.8,1.4-5.8,2.3-9,2.7c-0.7,0.1-1.4,0.1-2.2,0.1
			c-1.7,0-3.7-0.2-5.8-0.5c-3.9-0.7-7.1-1.6-9.5-2.8c-0.7-0.7-1.3-1.3-1.9-1.8c-3.5-2.9-5.2-6.9-5.2-11.9c0-0.5,0-1.2,0.1-2.2
			c0.1-1,0.1-1.7,0.1-2.2c0-1.8-0.7-3-2-3.5c-0.2-0.1-1.7-0.4-4.3-0.7c-3.1-0.4-4.9-2.3-5.4-5.8c-0.3-1.9-0.3-3.6-0.1-4.9
			c0.3-0.3,0.6-0.8,0.8-1.3c1.8-3.5,5-5.3,9.6-5.5c0.4-1,0.6-2.2,0.6-3.6c0-1-0.2-2.4-0.5-4.3c-0.3-1.9-0.5-3.3-0.5-4.3
			c0-1.5,0.1-3.3,0.4-5.3c0.1-0.2,0.2-0.5,0.3-0.8l0.5-1c0.4-1.7,1.2-3.4,2.5-4.9c1.3-1.5,2.7-2.4,4.4-2.7c0.6-0.1,1.2-0.2,1.9-0.2
			c1.2,0,2.3,0.2,3.5,0.5c1.1,0.3,2.6,1.7,4.6,4.1c0.5,0.7,1,1.8,1.4,3.4c0.4,1.6,0.7,2.9,0.7,3.9c0,3.3-0.2,5.7-0.6,7.2
			c-0.4,1.5-0.4,2.8,0,3.8c0.4,0.9,1.1,1.5,2.2,1.8c0.5,0.1,1.5,0.2,3,0.4c4,0.4,6,2.5,6,6.2c0,4.1-1.6,7-4.7,8.6
			c-0.7,0.4-2.3,1.1-4.8,2.2c-0.8,0.5-1.3,1.1-1.4,1.9c-0.2,1.1,0.8,2.3,2.9,3.6c0.4,0.2,0.7,0.3,1.1,0.3c1.1,0,2.4-1.2,3.9-3.7
			c0.5-0.8,0.8-1.4,1.1-1.7c0.7-1,2-1.8,3.9-2.5c0.3-0.1,0.6-0.2,1.1-0.2c2.9,0,5.1,1.4,6.7,4.3c1.3,2.3,1.9,5,1.9,8.2
			C729.8,323,729.8,323.8,729.6,324.4z M798.6,312.2c-0.3,3.6-1.5,7.1-3.6,10.7c-1.9,3.3-4.3,6.2-7.2,8.7c-1.3,1.1-3.2,2.2-5.8,3.5
			c-2.3,1.1-4.5,2-6.4,2.5c-5.2,1.5-9.5,2.2-13,2.2c-10.6,0-18.7-3.7-24.5-11.2c-2.8-3.6-4.1-7-4-10.2c-0.1-0.4-0.2-1-0.3-1.9
			c0.5-1.7,1.3-3.7,2.5-5.9c0.4-1.3,1.3-3.2,2.5-5.8c0.7-1,1.8-2.3,3.5-4c1.1-1.1,2.3-1.9,3.5-2.5c2.6-1.1,6.8-1.8,12.8-2.1
			c5.9-0.3,10-0.9,12.1-1.8c0.7-0.3,1.2-1.4,1.3-3.1c0-0.7,0-1.6-0.2-2.5c-0.4-1.2-1.5-1.9-3.4-2.3c-0.3-0.1-0.6-0.1-0.9-0.1
			c-0.2,0-0.3,0-0.5,0c-1.7,0.1-3.6,0.6-5.6,1.5l-6,2.5c-0.6,0.2-1.4,0.3-2.4,0.3c-4.5,0-7.7-1.3-9.5-3.9c-0.9-1.3-1.3-2.7-1.3-4.4
			c0-0.4,0-0.6,0.1-0.8c0.5-2.5,1.7-4.8,3.5-6.9l2.6-1.8c2.2-1.5,5.6-2.6,10.2-3.2c0.2,0,0.4,0,0.7,0c0.7,0,1.5,0.1,2.5,0.3
			c1.4,0.3,2.4,0.4,2.9,0.4c5.5,0,10.5,0.8,15.2,2.5l0.8,0.6c6.3,1.8,11,6.1,14.2,13.1c2.4,5.3,3.6,11.3,3.6,17.9
			c0,0.7,0,1.8,0.1,3.4C798.7,309.7,798.7,311.1,798.6,312.2z M673.2,290.9c0,0.1,0,0.1,0.1,0.1L673.2,290.9z M673.2,290.9
			c0,0.1,0,0.1,0.1,0.1L673.2,290.9z M673.2,290.9c0,0.1,0,0.1,0.1,0.1L673.2,290.9z"/>
		<path class="st8" d="M798.2,312.2c-0.1-1.6-0.1-2.8-0.1-3.4c0-6.6-1.2-12.6-3.6-17.9c-3.2-7-7.9-11.3-14.2-13.1l-0.8-0.6
			c-4.6-1.6-9.7-2.5-15.2-2.5c-0.6,0-1.5-0.1-2.9-0.4c-1.4-0.3-2.4-0.3-3.2-0.2c-4.6,0.6-8,1.6-10.2,3.2l-2.6,1.8
			c-1.8,2.1-3,4.4-3.5,6.9c0,0.1-0.1,0.4-0.1,0.8c0,1.7,0.4,3.2,1.3,4.4c1.8,2.6,4.9,3.9,9.5,3.9c1,0,1.8-0.1,2.4-0.3l6-2.5
			c2-0.8,3.9-1.3,5.6-1.5c0.6,0,1.1,0,1.5,0.1c1.8,0.4,2.9,1.1,3.4,2.3c0.2,0.9,0.3,1.8,0.2,2.5c-0.1,1.7-0.6,2.8-1.3,3.1
			c-2.2,0.9-6.2,1.5-12.1,1.8c-5.9,0.3-10.2,1-12.8,2.1c-1.2,0.5-2.4,1.3-3.5,2.5c-1.7,1.7-2.9,3-3.5,4c-1.3,2.6-2.1,4.5-2.5,5.8
			c-1.2,2.2-2.1,4.2-2.5,5.9c0.1,0.9,0.2,1.5,0.3,1.9c-0.1,3.2,1.2,6.6,4,10.2c5.8,7.5,13.9,11.2,24.5,11.2c3.5,0,7.9-0.8,13-2.2
			c1.9-0.6,4-1.4,6.4-2.5c2.6-1.3,4.6-2.4,5.8-3.5c2.9-2.5,5.4-5.4,7.2-8.7c2.1-3.6,3.3-7.2,3.6-10.7
			C798.3,315.2,798.3,313.8,798.2,312.2z M775,320.6c-1.4,2.5-3.3,3.7-5.5,3.7H767c-1.5,0-3.2-0.7-5-2c-2.3-1.8-3.4-3.7-3.1-5.9
			c0.1-1.3,1-2.7,2.5-4.3c1.5-1.6,2.9-2.5,4.2-2.6c2.3-0.3,3.5-0.4,3.5-0.4c5,0.6,7.5,2.1,7.6,4.7
			C776.7,316.3,776.1,318.5,775,320.6z M727.5,318c-1.5-2.9-3.8-4.3-6.7-4.3c-0.4,0-0.8,0.1-1.1,0.2c-1.9,0.6-3.2,1.4-3.9,2.5
			c-0.2,0.3-0.6,0.9-1.1,1.7c-1.5,2.5-2.7,3.7-3.9,3.7c-0.4,0-0.7-0.1-1.1-0.3c-2.2-1.3-3.1-2.5-2.9-3.6c0.1-0.7,0.6-1.4,1.4-1.9
			c2.5-1.1,4.1-1.9,4.8-2.2c3.1-1.6,4.7-4.4,4.7-8.6c0-3.7-2-5.8-6-6.2c-1.5-0.2-2.5-0.3-3-0.4c-1.1-0.3-1.9-0.9-2.2-1.8
			c-0.4-1-0.4-2.3,0-3.8c0.4-1.5,0.6-3.9,0.6-7.2c0-1-0.2-2.3-0.7-3.9c-0.4-1.6-0.9-2.7-1.4-3.4c-1.9-2.4-3.4-3.7-4.6-4.1
			c-1.9-0.5-3.7-0.6-5.4-0.3c-1.6,0.3-3.1,1.2-4.4,2.7c-1.3,1.5-2.1,3.1-2.5,4.9l-0.5,1c-0.1,0.3-0.3,0.5-0.3,0.8
			c-0.3,2-0.4,3.8-0.4,5.3c0,1,0.2,2.4,0.5,4.3c0.3,1.9,0.5,3.3,0.5,4.3c0,1.4-0.2,2.5-0.6,3.6c-4.6,0.1-7.8,2-9.6,5.5
			c-0.3,0.6-0.6,1-0.8,1.3c-0.2,1.4-0.2,3,0.1,4.9c0.5,3.5,2.3,5.4,5.4,5.8c2.7,0.3,4.1,0.6,4.3,0.7c1.4,0.5,2,1.7,2,3.5
			c0,0.5,0,1.2-0.1,2.2c-0.1,1-0.1,1.7-0.1,2.2c0,5.1,1.7,9,5.2,11.9c0.6,0.5,1.2,1.1,1.9,1.8c2.4,1.2,5.6,2.1,9.5,2.8
			c3.1,0.5,5.8,0.7,8,0.4c3.2-0.3,6.2-1.2,9-2.7c0.7-0.4,1.8-1.2,3.1-2.5c1.3-1.3,2.1-2.3,2.2-2.9c0.6-2,1-3.4,1.3-4.1
			c0.2-1.3,0.3-2.4,0.4-3.3c0.1-0.6,0.2-1.4,0.2-2.3C729.4,323,728.8,320.3,727.5,318z M672.8,295.1c0,0.1,0,0.1,0.1,0.1
			L672.8,295.1z M660.8,302.4c-0.2-0.9-0.4-1.7-0.6-2.2c-0.4-3.2-0.9-6-1.5-8.5c0,0.1,0-0.1-0.1-0.5c-0.1-0.4-0.1-0.7-0.1-1
			l-0.4-2.6c-0.2-2-0.7-3.5-1.3-4.5l-3.1-4.7c-1.1-1.5-1.8-2.6-2.2-3.2c-1.6-0.9-3.5-1.3-5.8-1.3c-4.4,0-7.3,1.9-8.6,5.8
			c-0.7,2.2-1,6-0.8,11.5c0.2,6.5-1.4,9.8-5,9.8c-3.9,0-6-2.4-6.2-7.1l-0.4-7.6c-0.2-3.1-0.6-5.4-1.3-6.9c-0.5-1-1.5-2-2.9-2.8
			c-1.4-0.8-2.7-1.3-3.9-1.3c-2.3,0-4.6,0.7-6.7,2.1c-1.4,0.9-2.5,2.4-3.3,4.3c-0.3,1.2-0.5,2.1-0.6,2.7v14.9c0,1.9,0,3.2,0.1,3.9
			c0.5,2.3,1.4,4.5,2.9,6.7c3.4,5,7.9,7.6,13.5,7.8c1,0,1.8,0,2.4,0c2.9-0.1,5.9-0.4,9-0.8c2,0,3.1,0,3.1,0c0.7,0.3,1.3,0.9,1.8,1.7
			c0.6,0.9,0.7,1.6,0.6,2.3c-0.5,1.5-2.1,2.5-4.8,2.8h-5.2c-1.5,0-3.6-0.3-6.4-1.1c-2.8-0.7-4.9-1.1-6.4-1.1c-1.2,0-2.7,0.9-4.6,2.5
			c-2.3,2-3.5,4.2-3.5,6.6c0,2.2,0.6,4.2,1.9,5.9c1.3,1.7,3,3,5.1,3.9c0.5,0.2,0.9,0.5,1.3,0.8c2.6,0.8,4.3,1.3,5,1.4
			c4.1,0.9,6.8,1.3,8.3,1.3c1.6,0,3.3-0.2,4.9-0.5l5.3-1c2.3-0.5,3.9-0.9,4.8-1.4c6.1-3.4,9.7-7.1,10.8-11.2c0.9-3,1.5-5,1.8-6
			c0.7-2.1,1.1-3.5,1.3-4.2c0.2-1.8,0.4-3.4,0.6-5C660.6,308.5,660.9,304.4,660.8,302.4z M664.8,322.3h2.1c0.8-0.1,1.4-0.2,1.9-0.4
			L664.8,322.3z M601.9,312.2c-0.1-1.6-0.1-2.8-0.1-3.4c0-6.6-1.2-12.6-3.6-17.9c-3.2-7-7.9-11.3-14.2-13.1l-0.8-0.6
			c-4.6-1.6-9.7-2.5-15.2-2.5c-0.6,0-1.5-0.1-2.9-0.4c-1.4-0.3-2.4-0.3-3.2-0.2c-4.6,0.6-8,1.6-10.2,3.2l-2.6,1.8
			c-1.8,2.1-3,4.4-3.5,6.9c0,0.1-0.1,0.4-0.1,0.8c0,1.7,0.4,3.2,1.3,4.4c1.8,2.6,4.9,3.9,9.5,3.9c1,0,1.8-0.1,2.4-0.3l6-2.5
			c2-0.8,3.9-1.3,5.6-1.5c0.6,0,1.1,0,1.5,0.1c1.8,0.4,2.9,1.1,3.4,2.3c0.2,0.9,0.3,1.8,0.2,2.5c-0.1,1.7-0.6,2.8-1.3,3.1
			c-2.1,0.9-6.2,1.5-12.1,1.8c-5.9,0.3-10.2,1-12.8,2.1c-1.2,0.5-2.4,1.3-3.5,2.5c-1.7,1.7-2.9,3-3.5,4c-1.3,2.6-2.1,4.5-2.5,5.8
			c-1.2,2.2-2.1,4.2-2.5,5.9c0.1,0.9,0.2,1.5,0.3,1.9c-0.1,3.2,1.2,6.6,4,10.2c5.8,7.5,13.9,11.2,24.5,11.2c3.5,0,7.9-0.8,13-2.2
			c1.9-0.6,4-1.4,6.4-2.5c2.6-1.3,4.6-2.4,5.8-3.5c2.9-2.5,5.4-5.4,7.2-8.7c2.1-3.6,3.3-7.2,3.6-10.7
			C602,315.2,602,313.8,601.9,312.2z M578.6,320.6c-1.4,2.5-3.3,3.7-5.5,3.7h-2.4c-1.5,0-3.2-0.7-5-2c-2.3-1.8-3.4-3.7-3.1-5.9
			c0.1-1.3,1-2.7,2.5-4.3c1.5-1.6,2.9-2.5,4.2-2.6c2.3-0.3,3.5-0.4,3.5-0.4c5,0.6,7.5,2.1,7.6,4.7
			C580.4,316.3,579.8,318.5,578.6,320.6z M532.1,310.2c-0.7-1.4-1.2-2.4-1.7-3.2c-0.9-2.3-2.7-4.6-5.3-6.7c-2.1-1.7-4.1-2.9-6-3.4
			c-1.7-0.4-4-0.5-6.9-0.3c-1.8,0.1-3,1-3.8,2.5c0,0.2,0.5,1.6,1.3,4.2c0.6,1.8,0.8,3.3,0.7,4.5c0,0.6,0,1.8,0,3.6
			c0.1,4.8-1.4,7.2-4.5,7.2c-1.2,0-3-0.4-5.4-1.3c-2.4-0.8-4.2-1.3-5.4-1.3h-1.5c-0.4,0-0.8,0-1.1-0.1c-1.6,0.3-3,1.3-4.2,2.8
			c-1.2,1.5-1.9,3.2-2.1,4.8c-0.1,0.2-0.3,0.4-0.3,0.6c0.4,5.3,0.6,8.2,0.8,8.7c0.8,2.7,3,5,6.6,6.9c2.7,1.4,5.8,2.5,9.3,3.3
			c1.4,0.7,3.6,1,6.7,0.9c3.9-0.1,6.1-0.3,6.7-0.4c5.8-1.7,9.9-4.1,12.4-7.2c1.2-2.1,1.9-3.6,2.2-4.5c0.9-1.9,1.6-3.7,1.9-5.5
			c0.6-3.4,0.9-5.9,0.9-7.4C533.1,315.5,532.8,312.5,532.1,310.2z M524.3,282.5c-0.7-2.2-2.5-4.3-5.2-6.1c-2.7-1.8-5.2-2.6-7.6-2.3
			c-6,0.6-9,3.3-9,8.2c0,2.9,1,5.6,3,8c2.1,2.6,4.6,3.9,7.4,3.9c0.7,0,1.3-0.1,1.8-0.3c2.2,0,3.6-0.2,4-0.3c1-0.3,2.2-1.1,3.5-2.3
			c1.3-1.2,2.1-2.3,2.3-3.3C525.1,286.3,525,284.4,524.3,282.5z M479.7,282.6c-0.1-1.5-1-3.2-2.6-4.9c-2.3-2.5-5.9-3.7-10.7-3.7
			c-2.9,0-4.8,0.3-5.8,0.8c-1.2,0.7-2.5,2.3-3.9,4.8c-1.5,2.9-2.4,4.7-2.5,5.7c-0.1,0.6-0.1,1.3-0.1,2c0,4.3,1.9,7.3,5.8,9.1
			c0.4,0.3,0.6,0.5,0.8,0.6c1.9,0.7,4,1,6.2,1.1c0.1,0,2,0.1,5.5,0.1C477.7,295.9,480.2,290.7,479.7,282.6z M481.4,323.7
			c-0.4-4.3-1-7.3-1.6-9.3c-0.9-2.8-2.7-5.3-5.4-7.4c-2.8-2.2-5.6-3.4-8.5-3.4h-0.8c-1.3,0-2.7,0.4-4.3,1.1
			c-2.8,1.3-4.1,2.8-4.1,4.4c0,0.2,0.1,0.5,0.3,1c0.2,0.5,0.3,0.8,0.2,1c-1.3,5.5-2,10.1-2,13.9c0,2.7,0.3,5.1,0.8,7.4
			c0.7,2.8,1.1,4.4,1.3,4.6c1.8,3.4,3.3,5.4,4.6,6.2c1.6,1,4.3,1.3,8.2,0.9c1.2-0.3,2.4-0.7,3.5-1.1c2.3-0.8,4.5-3.5,6.7-7.9
			c0.9-1.8,1.3-4.3,1.3-7.5C481.6,326.4,481.5,325.1,481.4,323.7z M449.6,257.4c-0.5-1.1-0.9-2-1.2-2.5c-1.9-5.7-6.5-8.6-13.8-8.6
			c-1,0-2.2,0.1-3.7,0.4c-7.3,1.4-11.2,7.6-15.3,18.1c-1.3,3.3-6.2,12.2-8.4,16.2c-1.3,2.4-5.8,14.6-8.1,19.4
			c-0.8,1.6-2,3.2-3.5,4.7c-1.9,1.8-3.6,2.6-5.1,2.5c-0.8-0.1-2-0.8-3.6-2c-1.6-1.3-2.7-2.4-3.2-3.2c-5.7-8-8.7-31.7-9.2-32.9
			c-1.7-3.5-4-6.7-6.9-9.6c-3.5-3.5-6.8-5.3-10-5.4c-4.4-0.1-8.8,1.7-13,5.4c-4.2,3.7-6.4,7.7-6.6,12c-0.2,4.9,1,10.4,3.8,16.7
			c0.8,1.8,2.4,5.1,4.8,9.9c3.5,6.9,7.1,14.7,10.7,23.3c1.5,2.4,2.5,3.9,3,4.7c4,6.2,9.1,12.5,15.3,18.9c4.5,4.7,8.4,7.5,11.7,8.4
			c3.8,1,7.2,1,10.1,0c6.4-2.1,12.5-6.6,18.3-13.2c5.1-5.7,9.2-12.2,12.3-19.4c2.6-4.7,4.4-7.6,5.4-8.9c3.9-8.7,6.2-13.8,6.7-15.3
			c1.7-4.9,3.5-9.9,5.3-14.7c1.9-5.7,3.3-10.7,4.2-15.1C450,265.2,450,261.9,449.6,257.4z"/>
		
			<linearGradient id="SVGID_00000018933958132230330320000001673519128115669661_" gradientUnits="userSpaceOnUse" x1="568.2041" y1="240.9547" x2="568.2041" y2="349.3063">
			<stop  offset="8.377035e-03" style="stop-color:#8B3217"/>
			<stop  offset="0.2082" style="stop-color:#A14612"/>
			<stop  offset="0.5033" style="stop-color:#BB5E0C"/>
			<stop  offset="0.7674" style="stop-color:#CB6D08"/>
			<stop  offset="0.9728" style="stop-color:#D17207"/>
		</linearGradient>
		<path style="fill:url(#SVGID_00000018933958132230330320000001673519128115669661_);" d="M798.2,306.9c-0.1-1.6-0.1-2.8-0.1-3.4
			c0-6.6-1.2-12.6-3.6-17.9c-3.2-7-7.9-11.3-14.2-13.1l-0.8-0.6c-4.6-1.6-9.7-2.5-15.2-2.5c-0.6,0-1.5-0.1-2.9-0.4
			c-1.4-0.3-2.4-0.3-3.2-0.2c-4.6,0.6-8,1.6-10.2,3.2l-2.6,1.8c-1.8,2.1-3,4.4-3.5,6.9c0,0.1-0.1,0.4-0.1,0.8c0,1.7,0.4,3.2,1.3,4.4
			c1.8,2.6,4.9,3.9,9.5,3.9c1,0,1.8-0.1,2.4-0.3l6-2.5c2-0.8,3.9-1.3,5.6-1.5c0.6,0,1.1,0,1.5,0.1c1.8,0.4,2.9,1.1,3.4,2.3
			c0.2,0.9,0.3,1.8,0.2,2.5c-0.1,1.7-0.6,2.8-1.3,3.1c-2.2,0.9-6.2,1.5-12.1,1.8c-5.9,0.3-10.2,1-12.8,2.1c-1.2,0.5-2.4,1.3-3.5,2.5
			c-1.7,1.7-2.9,3-3.5,4c-1.3,2.6-2.1,4.5-2.5,5.8c-1.2,2.2-2.1,4.2-2.5,5.9c0.1,0.9,0.2,1.5,0.3,1.9c-0.1,3.2,1.2,6.6,4,10.2
			c5.8,7.5,13.9,11.2,24.5,11.2c3.5,0,7.9-0.8,13-2.2c1.9-0.6,4-1.4,6.4-2.5c2.6-1.3,4.6-2.4,5.8-3.5c2.9-2.5,5.4-5.4,7.2-8.7
			c2.1-3.6,3.3-7.2,3.6-10.7C798.3,309.8,798.3,308.4,798.2,306.9z M775,315.2c-1.4,2.5-3.3,3.7-5.5,3.7H767c-1.5,0-3.2-0.7-5-2
			c-2.3-1.8-3.4-3.7-3.1-5.9c0.1-1.3,1-2.7,2.5-4.3c1.5-1.6,2.9-2.5,4.2-2.6c2.3-0.3,3.5-0.4,3.5-0.4c5,0.6,7.5,2.1,7.6,4.7
			C776.7,310.9,776.1,313.2,775,315.2z M727.5,312.6c-1.5-2.9-3.8-4.3-6.7-4.3c-0.4,0-0.8,0.1-1.1,0.2c-1.9,0.6-3.2,1.4-3.9,2.5
			c-0.2,0.3-0.6,0.9-1.1,1.7c-1.5,2.5-2.7,3.7-3.9,3.7c-0.4,0-0.7-0.1-1.1-0.3c-2.2-1.3-3.1-2.5-2.9-3.6c0.1-0.7,0.6-1.4,1.4-1.9
			c2.5-1.1,4.1-1.9,4.8-2.2c3.1-1.6,4.7-4.4,4.7-8.6c0-3.7-2-5.8-6-6.2c-1.5-0.2-2.5-0.3-3-0.4c-1.1-0.3-1.9-0.9-2.2-1.8
			c-0.4-1-0.4-2.3,0-3.8c0.4-1.5,0.6-3.9,0.6-7.2c0-1-0.2-2.3-0.7-3.9c-0.4-1.6-0.9-2.7-1.4-3.4c-1.9-2.4-3.4-3.7-4.6-4.1
			c-1.9-0.5-3.7-0.6-5.4-0.3c-1.6,0.3-3.1,1.2-4.4,2.7c-1.3,1.5-2.1,3.1-2.5,4.9l-0.5,1c-0.1,0.3-0.3,0.5-0.3,0.8
			c-0.3,2-0.4,3.8-0.4,5.3c0,1,0.2,2.4,0.5,4.3c0.3,1.9,0.5,3.3,0.5,4.3c0,1.4-0.2,2.5-0.6,3.6c-4.6,0.1-7.8,2-9.6,5.5
			c-0.3,0.6-0.6,1-0.8,1.3c-0.2,1.4-0.2,3,0.1,4.9c0.5,3.5,2.3,5.4,5.4,5.8c2.7,0.3,4.1,0.6,4.3,0.7c1.4,0.5,2,1.7,2,3.5
			c0,0.5,0,1.2-0.1,2.2c-0.1,1-0.1,1.7-0.1,2.2c0,5.1,1.7,9,5.2,11.9c0.6,0.5,1.2,1.1,1.9,1.8c2.4,1.2,5.6,2.1,9.5,2.8
			c3.1,0.5,5.8,0.7,8,0.4c3.2-0.3,6.2-1.2,9-2.7c0.7-0.4,1.8-1.2,3.1-2.5c1.3-1.3,2.1-2.3,2.2-2.9c0.6-2,1-3.4,1.3-4.1
			c0.2-1.3,0.3-2.4,0.4-3.3c0.1-0.6,0.2-1.4,0.2-2.3C729.4,317.6,728.8,314.9,727.5,312.6z M672.8,289.7c0,0.1,0,0.1,0.1,0.1
			L672.8,289.7z M660.8,297c-0.2-0.9-0.4-1.7-0.6-2.2c-0.4-3.2-0.9-6-1.5-8.5c0,0.1,0-0.1-0.1-0.5c-0.1-0.4-0.1-0.7-0.1-1l-0.4-2.6
			c-0.2-2-0.7-3.5-1.3-4.5l-3.1-4.7c-1.1-1.5-1.8-2.6-2.2-3.2c-1.6-0.9-3.5-1.3-5.8-1.3c-4.4,0-7.3,1.9-8.6,5.8
			c-0.7,2.2-1,6-0.8,11.5c0.2,6.5-1.4,9.8-5,9.8c-3.9,0-6-2.4-6.2-7.1l-0.4-7.6c-0.2-3.1-0.6-5.4-1.3-6.9c-0.5-1-1.5-2-2.9-2.8
			c-1.4-0.8-2.7-1.3-3.9-1.3c-2.3,0-4.6,0.7-6.7,2.1c-1.4,0.9-2.5,2.4-3.3,4.3c-0.3,1.2-0.5,2.1-0.6,2.7V294c0,1.9,0,3.2,0.1,3.9
			c0.5,2.3,1.4,4.5,2.9,6.7c3.4,5,7.9,7.6,13.5,7.8c1,0,1.8,0,2.4,0c2.9-0.1,5.9-0.4,9-0.8c2,0,3.1,0,3.1,0c0.7,0.3,1.3,0.9,1.8,1.7
			c0.6,0.9,0.7,1.6,0.6,2.3c-0.5,1.5-2.1,2.5-4.8,2.8h-5.2c-1.5,0-3.6-0.3-6.4-1.1c-2.8-0.7-4.9-1.1-6.4-1.1c-1.2,0-2.7,0.9-4.6,2.5
			c-2.3,2-3.5,4.2-3.5,6.6c0,2.2,0.6,4.2,1.9,5.9c1.3,1.7,3,3,5.1,3.9c0.5,0.2,0.9,0.5,1.3,0.8c2.6,0.8,4.3,1.3,5,1.4
			c4.1,0.9,6.8,1.3,8.3,1.3c1.6,0,3.3-0.2,4.9-0.5l5.3-1c2.3-0.5,3.9-0.9,4.8-1.4c6.1-3.4,9.7-7.1,10.8-11.2c0.9-3,1.5-5,1.8-6
			c0.7-2.1,1.1-3.5,1.3-4.2c0.2-1.8,0.4-3.4,0.6-5C660.6,303.1,660.9,299,660.8,297z M664.8,316.9h2.1c0.8-0.1,1.4-0.2,1.9-0.4
			L664.8,316.9z M601.9,306.9c-0.1-1.6-0.1-2.8-0.1-3.4c0-6.6-1.2-12.6-3.6-17.9c-3.2-7-7.9-11.3-14.2-13.1l-0.8-0.6
			c-4.6-1.6-9.7-2.5-15.2-2.5c-0.6,0-1.5-0.1-2.9-0.4c-1.4-0.3-2.4-0.3-3.2-0.2c-4.6,0.6-8,1.6-10.2,3.2l-2.6,1.8
			c-1.8,2.1-3,4.4-3.5,6.9c0,0.1-0.1,0.4-0.1,0.8c0,1.7,0.4,3.2,1.3,4.4c1.8,2.6,4.9,3.9,9.5,3.9c1,0,1.8-0.1,2.4-0.3l6-2.5
			c2-0.8,3.9-1.3,5.6-1.5c0.6,0,1.1,0,1.5,0.1c1.8,0.4,2.9,1.1,3.4,2.3c0.2,0.9,0.3,1.8,0.2,2.5c-0.1,1.7-0.6,2.8-1.3,3.1
			c-2.1,0.9-6.2,1.5-12.1,1.8c-5.9,0.3-10.2,1-12.8,2.1c-1.2,0.5-2.4,1.3-3.5,2.5c-1.7,1.7-2.9,3-3.5,4c-1.3,2.6-2.1,4.5-2.5,5.8
			c-1.2,2.2-2.1,4.2-2.5,5.9c0.1,0.9,0.2,1.5,0.3,1.9c-0.1,3.2,1.2,6.6,4,10.2c5.8,7.5,13.9,11.2,24.5,11.2c3.5,0,7.9-0.8,13-2.2
			c1.9-0.6,4-1.4,6.4-2.5c2.6-1.3,4.6-2.4,5.8-3.5c2.9-2.5,5.4-5.4,7.2-8.7c2.1-3.6,3.3-7.2,3.6-10.7
			C602,309.8,602,308.4,601.9,306.9z M578.6,315.2c-1.4,2.5-3.3,3.7-5.5,3.7h-2.4c-1.5,0-3.2-0.7-5-2c-2.3-1.8-3.4-3.7-3.1-5.9
			c0.1-1.3,1-2.7,2.5-4.3c1.5-1.6,2.9-2.5,4.2-2.6c2.3-0.3,3.5-0.4,3.5-0.4c5,0.6,7.5,2.1,7.6,4.7
			C580.4,310.9,579.8,313.2,578.6,315.2z M532.1,304.8c-0.7-1.4-1.2-2.4-1.7-3.2c-0.9-2.3-2.7-4.6-5.3-6.7c-2.1-1.7-4.1-2.9-6-3.4
			c-1.7-0.4-4-0.5-6.9-0.3c-1.8,0.1-3,1-3.8,2.5c0,0.2,0.5,1.6,1.3,4.2c0.6,1.8,0.8,3.3,0.7,4.5c0,0.6,0,1.8,0,3.6
			c0.1,4.8-1.4,7.2-4.5,7.2c-1.2,0-3-0.4-5.4-1.3c-2.4-0.8-4.2-1.3-5.4-1.3h-1.5c-0.4,0-0.8,0-1.1-0.1c-1.6,0.3-3,1.3-4.2,2.8
			c-1.2,1.5-1.9,3.2-2.1,4.8c-0.1,0.2-0.3,0.4-0.3,0.6c0.4,5.3,0.6,8.2,0.8,8.7c0.8,2.7,3,5,6.6,6.9c2.7,1.4,5.8,2.5,9.3,3.3
			c1.4,0.7,3.6,1,6.7,0.9c3.9-0.1,6.1-0.3,6.7-0.4c5.8-1.7,9.9-4.1,12.4-7.2c1.2-2.1,1.9-3.6,2.2-4.5c0.9-1.9,1.6-3.7,1.9-5.5
			c0.6-3.4,0.9-5.9,0.9-7.4C533.1,310.1,532.8,307.2,532.1,304.8z M524.3,277.1c-0.7-2.2-2.5-4.3-5.2-6.1c-2.7-1.8-5.2-2.6-7.6-2.3
			c-6,0.6-9,3.3-9,8.2c0,2.9,1,5.6,3,8c2.1,2.6,4.6,3.9,7.4,3.9c0.7,0,1.3-0.1,1.8-0.3c2.2,0,3.6-0.2,4-0.3c1-0.3,2.2-1.1,3.5-2.3
			c1.3-1.2,2.1-2.3,2.3-3.3C525.1,280.9,525,279,524.3,277.1z M479.7,277.2c-0.1-1.5-1-3.2-2.6-4.9c-2.3-2.5-5.9-3.7-10.7-3.7
			c-2.9,0-4.8,0.3-5.8,0.8c-1.2,0.7-2.5,2.3-3.9,4.8c-1.5,2.9-2.4,4.7-2.5,5.7c-0.1,0.6-0.1,1.3-0.1,2c0,4.3,1.9,7.3,5.8,9.1
			c0.4,0.3,0.6,0.5,0.8,0.6c1.9,0.7,4,1,6.2,1.1c0.1,0,2,0.1,5.5,0.1C477.7,290.5,480.2,285.3,479.7,277.2z M481.4,318.3
			c-0.4-4.3-1-7.3-1.6-9.3c-0.9-2.8-2.7-5.3-5.4-7.4c-2.8-2.2-5.6-3.4-8.5-3.4h-0.8c-1.3,0-2.7,0.4-4.3,1.1
			c-2.8,1.3-4.1,2.8-4.1,4.4c0,0.2,0.1,0.5,0.3,1c0.2,0.5,0.3,0.8,0.2,1c-1.3,5.5-2,10.1-2,13.9c0,2.7,0.3,5.1,0.8,7.4
			c0.7,2.8,1.1,4.4,1.3,4.6c1.8,3.4,3.3,5.4,4.6,6.2c1.6,1,4.3,1.3,8.2,0.9c1.2-0.3,2.4-0.7,3.5-1.1c2.3-0.8,4.5-3.5,6.7-7.9
			c0.9-1.8,1.3-4.3,1.3-7.5C481.6,321,481.5,319.7,481.4,318.3z M449.6,252c-0.5-1.1-0.9-2-1.2-2.5c-1.9-5.7-6.5-8.6-13.8-8.6
			c-1,0-2.2,0.1-3.7,0.4c-7.3,1.4-11.2,7.6-15.3,18.1c-1.3,3.3-6.2,12.2-8.4,16.2c-1.3,2.4-5.8,14.6-8.1,19.4
			c-0.8,1.6-2,3.2-3.5,4.7c-1.9,1.8-3.6,2.6-5.1,2.5c-0.8-0.1-2-0.8-3.6-2s-2.7-2.4-3.2-3.2c-5.7-8-8.7-31.7-9.2-32.9
			c-1.7-3.5-4-6.7-6.9-9.6c-3.5-3.5-6.8-5.3-10-5.4c-4.4-0.1-8.8,1.7-13,5.4c-4.2,3.7-6.4,7.7-6.6,12c-0.2,4.9,1,10.4,3.8,16.7
			c0.8,1.8,2.4,5.1,4.8,9.9c3.5,6.9,7.1,14.7,10.7,23.3c1.5,2.4,2.5,3.9,3,4.7c4,6.2,9.1,12.5,15.3,18.9c4.5,4.7,8.4,7.5,11.7,8.4
			c3.8,1,7.2,1,10.1,0c6.4-2.1,12.5-6.6,18.3-13.2c5.1-5.7,9.2-12.2,12.3-19.4c2.6-4.7,4.4-7.6,5.4-8.9c3.9-8.7,6.2-13.8,6.7-15.3
			c1.7-4.9,3.5-9.9,5.3-14.7c1.9-5.7,3.3-10.7,4.2-15.1C450,259.8,450,256.5,449.6,252z"/>
	</g>
	<g>
		<path class="st15" d="M841,331.6c-6.9,0-12.6-0.7-18.3-2c-6.7-1.5-11.1-5.7-13.8-12c-1.2-2.9-1.6-5.9-1.5-9c0-1.1,0.6-2.1,0.9-3.1
			c4.2-12.5,8.5-24.9,12.7-37.4c1.2-3.5,2.3-7,3.5-10.5c0.3-0.8,0.1-1.2-0.4-1.9c-8.8-10.9-9.6-28.9,4.1-39.4
			c9.6-7.4,22.9-5.7,30.9,3.9c5.3,6.4,7.1,13.8,5.8,21.8c-0.9,5.4-2.9,10.5-7.1,14.4c-0.5,0.5-0.5,0.9-0.3,1.5
			c3.5,12.3,6.9,24.5,10.4,36.8c1.3,4.5,2.5,9.1,3.9,13.6c0.5,1.7,0.2,3.3,0,4.9c-1.3,7.7-6.4,14.3-14.5,16.3
			c-3.3,0.8-6.7,1.2-10.1,1.6C844.8,331.5,842.4,331.7,841,331.6z M840,329.2c4-0.2,7.6-0.5,11.2-1.1c2.9-0.4,5.8-0.7,8.5-2.1
			c7.4-3.6,11.1-11.7,8.9-19.6c-1.9-6.9-3.8-13.9-6-20.8c-1.6-5.1-2.8-10.4-4.4-15.5c-1.1-3.6-2.1-7.3-3-11
			c-0.2-0.7-0.3-1.5-1.3-1.2c-2.1,0.6-4.3,0.5-6.4,0.8c-2,0.2-4,0.7-5.9,0.6c-4.3-0.3-8.6-1-12.9-1.6c-1-0.1-1.6,0-2,1.2
			c-5.2,15.5-10.5,31-15.8,46.5c-0.8,2.2-1.4,4.4-1,6.9c1.2,6.8,4.6,11.9,11.1,14.3C827.2,328.7,833.9,328.8,840,329.2z
			 M841.8,214.3c-4.2-0.1-8.1,1.2-11.5,3.6c-12.7,9.2-13,25.5-4.4,36.3c0.4,0.5,0.9,0.8,1.5,0.9c3.3,0.3,6.5,1.1,9.9,0.8
			c5.3-0.5,10.7,0.5,16-0.2c2.1-0.3,3.3-1.3,4.4-2.8c6.1-8.5,7-17.7,2.2-27C856.2,218.8,850.1,214.6,841.8,214.3z"/>
		<path class="st16" d="M840,329.2c-6.2-0.4-12.8-0.5-19-2.7c-6.6-2.3-9.9-7.5-11.1-14.3c-0.4-2.5,0.2-4.7,1-6.9
			c5.3-15.5,10.6-31,15.8-46.5c0.4-1.2,0.9-1.3,2-1.2c4.3,0.6,8.6,1.2,12.9,1.6c1.9,0.2,3.9-0.3,5.9-0.6c2.1-0.2,4.3-0.2,6.4-0.8
			c1.1-0.3,1.2,0.5,1.3,1.2c0.9,3.7,1.9,7.4,3,11c1.6,5.1,2.8,10.4,4.4,15.5c2.1,6.9,4,13.9,6,20.8c2.2,7.9-1.5,15.9-8.9,19.6
			c-2.7,1.3-5.6,1.6-8.5,2.1C847.6,328.7,844,329,840,329.2z"/>
		<path class="st16" d="M841.8,214.3c8.4,0.3,14.4,4.5,18.2,11.7c4.8,9.3,3.8,18.5-2.2,27c-1,1.4-2.3,2.5-4.4,2.8
			c-5.4,0.7-10.7-0.3-16,0.2c-3.3,0.3-6.6-0.5-9.9-0.8c-0.7-0.1-1.2-0.4-1.5-0.9c-8.5-10.8-8.3-27.2,4.4-36.3
			C833.7,215.5,837.5,214.2,841.8,214.3z M845.9,227.5c-2,0-3.2,1.1-3.2,3c0,2.2,1.9,4.4,3.8,4.4c2,0,3.4-1.5,3.4-3.6
			C849.8,229.3,847.9,227.5,845.9,227.5z"/>
		<path class="st17" d="M845.9,227.5c2,0,3.9,1.9,3.9,3.8c0,2.1-1.4,3.6-3.4,3.6c-1.9,0-3.8-2.3-3.8-4.4
			C842.7,228.6,843.9,227.5,845.9,227.5z"/>
	</g>
	<g>
		<path class="st15" d="M812.8,349.4c-6.9,0-12.6-0.7-18.3-2c-6.7-1.5-11.1-5.7-13.8-12c-1.2-2.9-1.6-5.9-1.5-9
			c0-1.1,0.6-2.1,0.9-3.1c4.2-12.5,8.5-24.9,12.7-37.4c1.2-3.5,2.3-7,3.5-10.5c0.3-0.8,0.1-1.2-0.4-1.9c-8.8-10.9-9.6-28.9,4.1-39.4
			c9.6-7.4,22.9-5.7,30.9,3.9c5.3,6.4,7.1,13.8,5.8,21.8c-0.9,5.4-2.9,10.5-7.1,14.4c-0.5,0.5-0.5,0.9-0.3,1.5
			c3.5,12.3,6.9,24.5,10.4,36.8c1.3,4.5,2.5,9.1,3.9,13.6c0.5,1.7,0.2,3.3,0,4.9c-1.3,7.7-6.4,14.3-14.5,16.3
			c-3.3,0.8-6.7,1.2-10.1,1.6C816.6,349.3,814.2,349.5,812.8,349.4z M811.9,347c4-0.2,7.6-0.5,11.2-1.1c2.9-0.4,5.8-0.7,8.5-2.1
			c7.4-3.6,11.1-11.7,8.9-19.6c-1.9-6.9-3.8-13.9-6-20.8c-1.6-5.1-2.8-10.4-4.4-15.5c-1.1-3.6-2.1-7.3-3-11
			c-0.2-0.7-0.3-1.5-1.3-1.2c-2.1,0.6-4.3,0.5-6.4,0.8c-2,0.2-4,0.7-5.9,0.6c-4.3-0.3-8.6-1-12.9-1.6c-1-0.1-1.6,0-2,1.2
			c-5.2,15.5-10.5,31-15.8,46.5c-0.8,2.2-1.4,4.4-1,6.9c1.2,6.8,4.6,11.9,11.1,14.3C799.1,346.5,805.7,346.6,811.9,347z
			 M813.6,232.1c-4.2-0.1-8.1,1.2-11.5,3.6c-12.7,9.2-13,25.5-4.4,36.3c0.4,0.5,0.9,0.8,1.5,0.9c3.3,0.3,6.5,1.1,9.9,0.8
			c5.3-0.5,10.7,0.5,16-0.2c2.1-0.3,3.3-1.3,4.4-2.8c6.1-8.5,7-17.7,2.2-27C828.1,236.6,822,232.4,813.6,232.1z"/>
		<path class="st18" d="M811.9,347c-6.2-0.4-12.8-0.5-19-2.7c-6.6-2.3-9.9-7.5-11.1-14.3c-0.4-2.5,0.2-4.7,1-6.9
			c5.3-15.5,10.6-31,15.8-46.5c0.4-1.2,0.9-1.3,2-1.2c4.3,0.6,8.6,1.2,12.9,1.6c1.9,0.2,3.9-0.3,5.9-0.6c2.1-0.2,4.3-0.2,6.4-0.8
			c1.1-0.3,1.2,0.5,1.3,1.2c0.9,3.7,1.9,7.4,3,11c1.6,5.1,2.8,10.4,4.4,15.5c2.1,6.9,4,13.9,6,20.8c2.2,7.9-1.5,15.9-8.9,19.6
			c-2.7,1.3-5.6,1.6-8.5,2.1C819.5,346.5,815.9,346.8,811.9,347z"/>
		<path class="st18" d="M813.6,232.1c8.4,0.3,14.4,4.5,18.2,11.7c4.8,9.3,3.8,18.5-2.2,27c-1,1.4-2.3,2.5-4.4,2.8
			c-5.4,0.7-10.7-0.3-16,0.2c-3.3,0.3-6.6-0.5-9.9-0.8c-0.7-0.1-1.2-0.4-1.5-0.9c-8.5-10.8-8.3-27.2,4.4-36.3
			C805.6,233.3,809.4,232,813.6,232.1z M817.8,245.3c-2,0-3.2,1.1-3.2,3c0,2.2,1.9,4.4,3.8,4.4c2,0,3.4-1.5,3.4-3.6
			C821.7,247.1,819.8,245.3,817.8,245.3z"/>
		<path class="st17" d="M817.8,245.3c2,0,3.9,1.9,3.9,3.8c0,2.1-1.4,3.6-3.4,3.6c-1.9,0-3.8-2.3-3.8-4.4
			C814.6,246.4,815.8,245.3,817.8,245.3z"/>
	</g>
	<g>
		<g>
			<path class="st15" d="M315.1,273.9c-1.5-0.8-2.6-1.6-3.7-2.5c-1.3-1.1-1.7-2.5-1.6-4.1c0.1-0.7,0.3-1.4,0.7-2.1
				c0.1-0.2,0.4-0.4,0.5-0.6c2.3-2.2,4.7-4.4,7-6.5c0.6-0.6,1.3-1.2,1.9-1.8c0.2-0.1,0.2-0.3,0.1-0.4c-0.7-3.3,1.2-7.3,5.4-7.9
				c2.9-0.5,5.6,1.4,6.2,4.3c0.4,2,0,3.8-1.2,5.3c-0.8,1.1-1.8,1.9-3.2,2.3c-0.2,0-0.2,0.1-0.2,0.3c-0.7,3-1.3,6-2,9
				c-0.2,1.1-0.5,2.2-0.7,3.3c-0.1,0.4-0.3,0.7-0.6,1c-1.2,1.5-3,2.3-5,1.8c-0.8-0.2-1.6-0.5-2.3-0.8
				C315.9,274.3,315.4,274.1,315.1,273.9z M315.2,273.3c0.9,0.4,1.7,0.8,2.5,1c0.7,0.2,1.3,0.5,2.1,0.5c2,0.1,3.7-1.2,4.1-3.2
				c0.4-1.7,0.8-3.4,1.1-5.1c0.2-1.3,0.6-2.5,0.8-3.8c0.2-0.9,0.4-1.8,0.6-2.7c0-0.2,0.1-0.3-0.2-0.4c-0.5-0.1-1-0.4-1.5-0.6
				c-0.4-0.2-0.9-0.3-1.3-0.6c-0.9-0.6-1.7-1.2-2.6-1.8c-0.2-0.1-0.3-0.2-0.5,0c-2.9,2.7-5.8,5.4-8.7,8.1c-0.4,0.4-0.8,0.8-1,1.4
				c-0.5,1.6-0.4,3.1,0.7,4.3C312.5,271.8,313.9,272.5,315.2,273.3z M328.6,249c-0.9-0.5-1.9-0.7-2.9-0.5c-3.7,0.5-5.7,4-5.1,7.3
				c0,0.2,0.1,0.3,0.2,0.4c0.7,0.4,1.3,1,2,1.3c1.2,0.5,2.2,1.3,3.4,1.8c0.5,0.2,0.9,0.1,1.2-0.1c2.3-1.1,3.5-3,3.6-5.5
				C331.2,251.6,330.4,250,328.6,249z"/>
			<path class="st18" d="M315.2,273.3c-1.3-0.8-2.7-1.6-3.8-2.7c-1.1-1.2-1.3-2.7-0.7-4.3c0.2-0.6,0.6-1,1-1.4
				c2.9-2.7,5.8-5.4,8.7-8.1c0.2-0.2,0.3-0.2,0.5,0c0.9,0.6,1.7,1.2,2.6,1.8c0.4,0.3,0.9,0.4,1.3,0.6c0.5,0.2,0.9,0.5,1.5,0.6
				c0.3,0.1,0.2,0.2,0.2,0.4c-0.2,0.9-0.4,1.8-0.6,2.7c-0.2,1.3-0.6,2.5-0.8,3.8c-0.3,1.7-0.7,3.4-1.1,5.1c-0.4,1.9-2.1,3.2-4.1,3.2
				c-0.7,0-1.4-0.3-2.1-0.5C316.8,274.1,316,273.7,315.2,273.3z"/>
			<path class="st18" d="M328.6,249c1.8,1,2.6,2.6,2.5,4.6c0,2.5-1.3,4.4-3.6,5.5c-0.4,0.2-0.8,0.3-1.2,0.1
				c-1.2-0.5-2.3-1.3-3.4-1.8c-0.7-0.3-1.3-0.9-2-1.3c-0.1-0.1-0.2-0.2-0.2-0.4c-0.6-3.3,1.3-6.7,5.1-7.3
				C326.8,248.3,327.7,248.5,328.6,249z M328,252.2c-0.4-0.2-0.8-0.1-1,0.3c-0.3,0.5-0.1,1.2,0.3,1.4c0.4,0.2,0.9,0.1,1.1-0.4
				C328.6,253.1,328.4,252.5,328,252.2z"/>
			<path class="st17" d="M328,252.2c0.4,0.2,0.6,0.8,0.4,1.3c-0.2,0.5-0.7,0.6-1.1,0.4c-0.4-0.2-0.6-0.9-0.3-1.4
				C327.2,252.1,327.6,252,328,252.2z"/>
		</g>
		<g>
			<path class="st15" d="M251.2,274.6c-0.8,0.3-1.5,0.6-2.3,0.8c-2,0.5-3.8-0.3-5-1.8c-0.2-0.3-0.5-0.6-0.6-1
				c-0.2-1.1-0.5-2.2-0.7-3.3c-0.7-3-1.3-6-2-9c0-0.1-0.1-0.2-0.2-0.3c-1.3-0.4-2.4-1.2-3.2-2.3c-1.2-1.6-1.6-3.4-1.2-5.3
				c0.6-3,3.2-4.8,6.2-4.3c4.1,0.7,6,4.6,5.4,7.9c0,0.2,0,0.3,0.1,0.4c0.7,0.6,1.3,1.2,1.9,1.8c2.3,2.2,4.7,4.4,7,6.5
				c0.2,0.2,0.4,0.3,0.5,0.6c0.4,0.6,0.6,1.3,0.7,2.1c0.1,1.6-0.3,3.1-1.6,4.1c-1.1,0.9-2.2,1.7-3.7,2.5
				C252.2,274.1,251.7,274.3,251.2,274.6z M256.2,270.6c1.1-1.2,1.3-2.7,0.7-4.3c-0.2-0.6-0.6-1-1-1.4c-2.9-2.7-5.8-5.4-8.7-8.1
				c-0.2-0.2-0.3-0.2-0.5,0c-0.9,0.6-1.7,1.2-2.6,1.8c-0.4,0.3-0.9,0.4-1.3,0.6c-0.5,0.2-0.9,0.5-1.5,0.6c-0.3,0.1-0.2,0.2-0.2,0.4
				c0.2,0.9,0.4,1.8,0.6,2.7c0.2,1.3,0.6,2.5,0.8,3.8c0.3,1.7,0.7,3.4,1.1,5.1c0.4,1.9,2.1,3.2,4.1,3.2c0.7,0,1.4-0.3,2.1-0.5
				c0.8-0.3,1.6-0.6,2.5-1C253.7,272.5,255.1,271.8,256.2,270.6z M236.5,253.5c0,2.5,1.3,4.4,3.6,5.5c0.4,0.2,0.8,0.3,1.2,0.1
				c1.2-0.5,2.3-1.3,3.4-1.8c0.7-0.3,1.3-0.9,2-1.3c0.1-0.1,0.2-0.2,0.2-0.4c0.6-3.3-1.3-6.7-5.1-7.3c-1-0.1-2,0-2.9,0.5
				C237.2,250,236.4,251.6,236.5,253.5z"/>
			<path class="st18" d="M252.5,273.3c1.3-0.8,2.7-1.6,3.8-2.7c1.1-1.2,1.3-2.7,0.7-4.3c-0.2-0.6-0.6-1-1-1.4
				c-2.9-2.7-5.8-5.4-8.7-8.1c-0.2-0.2-0.3-0.2-0.5,0c-0.9,0.6-1.7,1.2-2.6,1.8c-0.4,0.3-0.9,0.4-1.3,0.6c-0.5,0.2-0.9,0.5-1.5,0.6
				c-0.3,0.1-0.2,0.2-0.2,0.4c0.2,0.9,0.4,1.8,0.6,2.7c0.2,1.3,0.6,2.5,0.8,3.8c0.3,1.7,0.7,3.4,1.1,5.1c0.4,1.9,2.1,3.2,4.1,3.2
				c0.7,0,1.4-0.3,2.1-0.5C250.8,274.1,251.6,273.7,252.5,273.3z"/>
			<path class="st18" d="M241.9,248.4c3.7,0.5,5.7,4,5.1,7.3c0,0.2-0.1,0.3-0.2,0.4c-0.7,0.4-1.3,1-2,1.3c-1.2,0.5-2.2,1.3-3.4,1.8
				c-0.5,0.2-0.9,0.1-1.2-0.1c-2.3-1.1-3.5-3-3.6-5.5c0-2,0.8-3.6,2.5-4.6C239.9,248.5,240.9,248.3,241.9,248.4z M239.2,253.5
				c0.2,0.5,0.7,0.6,1.1,0.4c0.4-0.2,0.6-0.9,0.3-1.4c-0.2-0.4-0.6-0.5-1-0.3C239.2,252.5,239,253.1,239.2,253.5z"/>
			<path class="st17" d="M239.6,252.2c-0.4,0.2-0.6,0.8-0.4,1.3c0.2,0.5,0.7,0.6,1.1,0.4c0.4-0.2,0.6-0.9,0.3-1.4
				C240.4,252.1,240,252,239.6,252.2z"/>
		</g>
		
			<linearGradient id="SVGID_00000095333641223797431800000002343846693333775785_" gradientUnits="userSpaceOnUse" x1="285.0773" y1="335.4227" x2="256.6518" y2="265.0625">
			<stop  offset="8.377096e-03" style="stop-color:#FB5108"/>
			<stop  offset="1" style="stop-color:#F0E002"/>
		</linearGradient>
		<path style="fill:url(#SVGID_00000095333641223797431800000002343846693333775785_);" d="M283.9,354.3v-93.9c0,0-30.7,0-44.2,17.9
			C239.7,278.3,234.3,319.9,283.9,354.3z"/>
		
			<linearGradient id="SVGID_00000047767226113145586270000009579153586838682273_" gradientUnits="userSpaceOnUse" x1="307.3602" y1="364.9135" x2="304.8273" y2="274.0082">
			<stop  offset="8.377096e-03" style="stop-color:#FB5108"/>
			<stop  offset="1" style="stop-color:#F0E002"/>
		</linearGradient>
		<path style="fill:url(#SVGID_00000047767226113145586270000009579153586838682273_);" d="M283.9,354.3v-93.9c0,0,30.7,0,44.2,17.9
			C328.1,278.3,333.4,319.9,283.9,354.3z"/>
		<path class="st24" d="M283.9,255.4v-37.6l11,12c0,0-8,11.3-2.8,15.4c5.2,4.2,10.8-1.8,6.8-5.6l18.4-4.6l-10.4,14.8l4.8,10.5
			C311.6,260.3,304.5,255.4,283.9,255.4z"/>
		<path class="st24" d="M283.9,255.4v-37.6l-11,12c0,0,8,11.3,2.8,15.4c-5.2,4.2-10.8-1.8-6.8-5.6l-18.4-4.6l10.4,14.8l-4.8,10.5
			C256.1,260.3,263.2,255.4,283.9,255.4z"/>
		<g>
			<circle class="st25" cx="284" cy="253.2" r="5"/>
			<circle class="st26" cx="284.4" cy="252.8" r="5"/>
			<ellipse transform="matrix(0.866 -0.5 0.5 0.866 -86.9762 177.2811)" class="st5" cx="287.3" cy="250.9" rx="0.7" ry="1.7"/>
		</g>
		<g>
			<g>
				<path class="st5" d="M283.7,344.7l-0.1-4.2l-1.9-3.1c0.1,0,7.6-4.8,15.3-14c10.1-12.3,15.6-26.4,16.3-41.9l7.2,0.3
					c-0.4,9.4-2.5,18.6-6.2,27.1c-3,6.8-7,13.3-11.9,19.2C293.9,338.3,284,344.5,283.7,344.7z"/>
			</g>
			<g>
				<path class="st5" d="M283.7,344.7c-0.3-0.2-10.5-6.4-18.9-16.5c-4.9-5.9-8.9-12.4-11.9-19.2c-3.7-8.5-5.8-17.7-6.2-27.1l7.2-0.3
					c0.7,15.5,6.1,29.6,16.3,41.9c7.6,9.3,15.2,14,15.3,14L283.7,344.7z"/>
			</g>
			<path class="st5" d="M246.7,281.9c0,0,4.4-3.9,6.8-5l0.4,5H246.7z"/>
			<path class="st5" d="M320.4,281.9c0,0-4.4-4.2-6.8-5.3l-0.4,5L320.4,281.9z"/>
		</g>
	</g>
</g>
<g>
	<path class="st14" d="M385.1,72.6c0,0,0.9-4.2-12.5-0.5c-13.4,3.7-33.2,18.4-38.1,44.3s-10.9,55.1-11.1,68.4
		c-0.1,7.2-10.4,44.6,10.5,44.5c11.3,0,16.6,0,28,0c15.7,0,47.5-9.2,56.4-26c10.8-20.4,1.2-24.8-2.5-23.1c-8.8,4-13.5,9.1-27,7.2
		c-5.8-0.8-19.2-3.1-28.1,1.7c0,0-12.2,10.2,9.4-36.9c12.8-28.1,4.9-52.9,9.3-61.3S386.7,78,385.1,72.6z"/>
	<path class="st5" d="M401.3,210c5.2-1.2,9.1-4,11.4-8.7c0.8-1.5,1.5-3.2,2.3-4.9c1,3.8,0.1,8.2-2.6,11.1
		C409.6,210.5,404.9,211.8,401.3,210L401.3,210z"/>
</g>
<g>
	<path class="st1" d="M395.1,85.1c-0.7-1.3-1.9-2.4-3.7-3.1l-4.2-10.2c2.2-3,2.9-5.5,2-7.5c-0.5-1.3-1.7-2.4-3.4-3.1
		c-0.6-1.8-1.3-4.2-1.9-7c-0.8-3.7-1.7-8.8-1.9-14.5c-0.1-2-0.1-4,0.1-6l0.3-0.1c2.4-1,3.7-3.4,2.9-5.3c-0.8-1.9-3.4-2.7-5.8-1.7
		c-0.8,0.3-1.4,0.8-1.9,1.3c-1.1,1.2-1.5,2.7-1,4c0.5,1.3,1.8,2,3.3,2.1c0.1,0,0.2,0,0.3,0c0,0.2-0.1,0.4-0.1,0.5
		c-1.7,9.9-5.6,18.2-8.2,23c-1.3-1.2-3.1-2.8-4.9-4.8c-0.9-4.1-1.6-8.5-1.9-13c0.1,0,0.3-0.1,0.4-0.1c1-0.4,1.5-1.3,1.2-2.1
		c-0.3-0.8-1.4-1-2.3-0.6c-1,0.4-1.5,1.3-1.2,2.1c0.3,0.6,1,0.9,1.9,0.8c0,3.5-0.2,6.9-0.6,10c-3.4-4.2-6.8-9.5-8.8-15.6
		c1.9-1.1,2.9-3.2,2.2-4.9c-0.8-1.9-3.4-2.7-5.8-1.7c-2.4,1-3.7,3.4-2.9,5.3c0.7,1.7,2.7,2.5,4.8,2c1.1,6.4,0.6,12.7-0.3,17.9
		c-2.8-4.3-5.5-9.4-7.5-15c0.1,0,0.1,0,0.2-0.1c1-0.4,1.5-1.3,1.2-2.1c-0.3-0.7-1.4-1-2.3-0.6c-1,0.4-1.5,1.3-1.2,2.1
		c0.3,0.7,1.2,1,2,0.7c2.2,8.5,2.2,16.7,1.7,22.7c-5.7-3.2-15.2-9.5-20.2-19c1.8-1.2,2.7-3.2,2-4.8c-0.8-1.9-3.4-2.7-5.8-1.7
		c-2.4,1-3.7,3.4-2.9,5.3c0.7,1.7,2.8,2.5,4.9,2c3.2,10.3,1,21.5-0.8,27.7c-4.7-3.9-10.4-9.7-14.9-17.3c0.8-0.5,1.2-1.3,0.9-2
		c-0.3-0.7-1.4-1-2.3-0.6c-1,0.4-1.5,1.3-1.2,2.1c0.3,0.7,1.4,1,2.3,0.6c0.1,0,0.1-0.1,0.2-0.1c2.5,5.3,4.2,10.8,5.3,15.9
		c-4.4-3-9.2-7.1-12.9-12.4c1.8-1.2,2.6-3.1,1.9-4.8c-0.8-1.9-3.4-2.7-5.8-1.7c-2.4,1-3.7,3.4-2.9,5.3c0.7,1.7,2.9,2.5,5,2
		c2.9,5.8,4.2,11.9,4.8,17.3c-2.5-1.9-5-4.1-7.5-6.6c0.7-0.5,1-1.2,0.8-1.9c-0.3-0.7-1.4-1-2.3-0.6c-1,0.4-1.5,1.4-1.2,2.1
		c0.3,0.7,1.4,1,2.3,0.6c0.1-0.1,0.2-0.1,0.4-0.2c3,3.4,5.6,7,7.8,10.5c0.1,2.7,0,5.1-0.1,6.9c-2.8-0.8-6.7-2.2-10.9-4.1
		c0.2,0.4,0.3,0.7,0.5,1.1c-1.5-0.7-3.1-1.5-4.7-2.3c-0.6-0.3-1.2-0.6-1.8-1c-2.1-1.2-4.2-2.5-6.2-4c-0.1,0-0.1,0.1-0.2,0.1l0.4,0.4
		c0,0,0.1,0.1,0.1,0.1c0.3,0.3,0.6,0.6,0.9,0.8c0,0,0.1,0.1,0.1,0.1c0.6,0.6,1.2,1.2,1.8,1.8c0,0,0,0,0.1,0.1
		c0.6,0.6,1.2,1.2,1.7,1.8c0,0,0,0,0,0c0,0,0,0,0,0c5.4,6,9.2,12.2,11.4,16.4c0.3-0.5,0.6-1,0.9-1.5c0.2-0.3,0.5-0.7,0.8-1
		c-2.8-5-6.4-9.7-6.4-9.7s1,0.5,2.7,1.2c0.2,0.4,0.3,0.7,0.5,1.1c2.1,0.9,4.9,1.9,7.7,2.8c-1.5,1.3-2.8,2.6-3.9,3.9
		c-0.9-1.6-1.9-3.2-2.8-4.6c0.9,2,1.9,4,2.8,5.9c-2.1,2.7-2.9,5.2-2.2,7.1c0.7,1.7,2.7,2.8,5.6,3.3c-0.2-0.5-0.4-1.5-0.4-2.8v-0.1
		l0-0.1c0.1-0.3,0.2-0.6,0.3-0.9c0.2,0.3,0.4,0.7,0.5,1c0,0,0,0.1,0,0.1c0,0,0,0,0,0c0,0.2,0,0.3,0,0.5c0,0.2,0,0.3,0,0.5
		c0,0.1,0,0.2,0,0.3c0,0.2,0.1,0.3,0.1,0.5c0,0.2,0.1,0.4,0.1,0.5c0,0.1,0.1,0.2,0.1,0.3c0.1,0.2,0.2,0.4,0.2,0.4l2.2,5.1
		c0-0.1,0-0.2,0-0.4l2.2,4.7c0,0,0,0,0,0l-1.4-3.2c0.3-0.5,0.7-0.9,1.1-1.4c0.8,1.2,1.5,2.2,2.3,3.2c0.6,0.8,1.3,1.5,1.9,2.2
		c-1.2,2-2,4-2.5,5.9c0.8-1.7,1.8-3.4,3.2-5.2c0.7,0.7,1.4,1.2,2.1,1.6c1.8,1.1,2.2-0.6,3.6-2c11-11.4,51-24.2,51-24.2
		c7.9-3.9,12.4-3.8,17.3-4.6c1.3-0.2,4.4,3.1,5.9,2.3c0.4-0.2,0.7-0.7,0.9-1.3C395.1,87.3,395.1,86.3,395.1,85.1z M332.6,62.3
		c0.2-1.7,0.4-3.2,0.5-4.2c0.8,0.7,1.9,1.6,3.3,2.6c2.3,2.3,5.2,5,8.2,6.9c-2.1,0.8-4.3,1.6-6.5,2.5c-2.2,0.9-4.3,1.8-6.4,2.8
		C332.4,69.6,332.6,65.5,332.6,62.3z M367.2,61.3c-1,0.2-2.1,0.4-3.1,0.6c0.3-1.1,0.5-2.3,0.8-3.3c0.7,0.7,1.5,1.4,2.2,2.1
		C367.1,60.9,367.1,61.1,367.2,61.3z M357.7,58.9c0.7-2.8,1.1-5.3,1.4-7c0.9,1.2,2.3,3,4.1,4.8c-0.5,2.1-1,4-1.5,5.6
		c-0.3,0.1-0.6,0.2-1,0.2C359.8,61.6,358.7,60.3,357.7,58.9z M357.8,63.4c-0.5,0.1-1.1,0.3-1.6,0.5c0.2-0.6,0.4-1.1,0.6-1.7
		C357.1,62.6,357.4,63,357.8,63.4z M380.9,60.2c-1.6-0.1-3.5-0.1-5.5,0c1.5-2.8,2.8-5.9,3.7-8C379.5,54.3,380.1,57.3,380.9,60.2z
		 M320.8,78.5c-0.5,0.3-1,0.5-1.5,0.8c0-0.5-0.1-1.1-0.2-1.6C319.7,78,320.2,78.3,320.8,78.5z M310.9,78.5c-0.1-2.5-0.4-4.8-0.6-6.3
		c1.4,1,3.5,2.5,5.9,3.9c0.2,1.8,0.4,3.4,0.5,4.8c-0.3,0.2-0.6,0.3-0.9,0.5C314.4,80.6,312.7,79.7,310.9,78.5z M313.8,82.7
		c-0.9,0.6-1.8,1.2-2.7,1.8c-0.1-0.2-0.2-0.3-0.3-0.5c0.1-1,0.1-2.1,0.1-3.1C311.8,81.5,312.8,82.1,313.8,82.7z M350.5,53.2
		c0,0,0.8,1.3,2.1,3.3c-0.6,2.4-1.2,4.4-1.8,6c-0.2-0.1-0.4-0.2-0.6-0.3C350.7,57.4,350.5,53.2,350.5,53.2z M323.7,73.1
		c-0.1,0.2-0.2,0.4-0.2,0.6c-1.5-0.7-3.3-1.7-5.5-3c-0.5-2.3-0.8-3.8-0.8-3.8S320.1,70.1,323.7,73.1z M283,70.7
		c-0.6-1.5-2.7-2.1-4.7-1.2c-2,0.8-3.1,2.7-2.4,4.2c0.6,1.5,2.7,2.1,4.7,1.2C282.6,74.1,283.7,72.2,283,70.7z"/>
	<g>
		<g>
			<path class="st2" d="M384.7,60.9c-0.5-0.2-1.1-0.3-1.7-0.4c-0.4-0.1-0.8-0.1-1.3-0.2c-1.5-5.5-2.3-11.4-2.3-11.4
				s-2.2,6.1-5.1,11.4c-0.2,0-0.3,0-0.5,0c-0.7,0.1-1.3,0.1-2,0.2c-0.1,0-0.2,0-0.3,0c-0.9,0.1-1.9,0.3-2.9,0.4
				c-5.5-4.6-10.1-11.2-10.1-11.2s-0.8,7.7-3.4,14.3c-0.7,0.2-1.5,0.4-2.2,0.7c-0.7,0.2-1.4,0.4-2.1,0.7c-1,0.3-2,0.7-3,1
				c-8-3.2-15.5-10.1-15.5-10.1s-0.4,10.3-3.8,18.2c-1,0.5-1.9,0.9-2.8,1.4c-0.7,0.3-1.3,0.7-2,1c-0.7,0.4-1.4,0.7-2,1.1
				c-6.5-2.9-12.5-7.7-12.5-7.7s1.4,7.9,0.7,15.1c-0.8,0.6-1.6,1.2-2.4,1.7c-0.1,0.1-0.2,0.1-0.3,0.2c-0.5,0.4-1.1,0.9-1.6,1.3
				c-0.1,0.1-0.3,0.2-0.4,0.3c-3.3-1-6.7-2.3-8.9-3.2c-1.7-0.7-2.7-1.2-2.7-1.2s3.6,4.7,6.4,9.7c-0.3,0.3-0.5,0.7-0.8,1
				c-0.4,0.5-0.7,1-0.9,1.5c-2.2-4.2-6-10.4-11.4-16.4c0,0,0,0,0,0c0,0,0,0,0,0c-0.6-0.6-1.1-1.2-1.7-1.8c0,0,0,0-0.1-0.1
				c-0.6-0.6-1.2-1.2-1.8-1.8c0,0-0.1-0.1-0.1-0.1c-0.3-0.3-0.6-0.6-0.9-0.8c0,0-0.1-0.1-0.1-0.1l-0.4-0.4c0.1,0,0.1-0.1,0.2-0.1
				c2.1,1.5,4.2,2.8,6.2,4c0.6,0.3,1.2,0.7,1.8,1c1.6,0.8,3.2,1.6,4.7,2.3c0.8,0.3,1.5,0.7,2.3,1c1.1,0.5,2.2,0.9,3.2,1.3
				c2.1,0.8,4,1.4,5.6,1.8c0,0,0,0,0,0c0-0.2,0-0.4,0-0.6c0-0.1,0-0.1,0-0.2c0-0.2,0-0.3,0-0.5c0-0.1,0-0.2,0-0.2c0-0.2,0-0.3,0-0.5
				c0-0.1,0-0.2,0-0.2c0-0.2,0-0.4,0-0.6c0-0.1,0-0.1,0-0.2c0-0.2,0-0.5,0-0.7c0-0.1,0-0.2,0-0.2c0-0.2,0-0.4,0-0.5v-1.1
				c0-0.2,0-0.4,0-0.5c0-0.1,0-0.2,0-0.3c0-0.3,0-0.5,0-0.8c0-0.1,0-0.2,0-0.3c0-0.2,0-0.4,0-0.6c0-0.1,0-0.3,0-0.4
				c0-0.2,0-0.3,0-0.5c0-0.1,0-0.3,0-0.4c0-0.2,0-0.3,0-0.5c0-0.1,0-0.3,0-0.4c0-0.2,0-0.5-0.1-0.7c0-0.2,0-0.3,0-0.5
				c0-0.2,0-0.4-0.1-0.6c0-0.1,0-0.3,0-0.4c0-0.2,0-0.3-0.1-0.5c0-0.2,0-0.3-0.1-0.5c0-0.2,0-0.3-0.1-0.5c0-0.2,0-0.3-0.1-0.5
				c0-0.2-0.1-0.4-0.1-0.6c0-0.2-0.1-0.4-0.1-0.6c0-0.2-0.1-0.5-0.1-0.7c0-0.2-0.1-0.3-0.1-0.5c0-0.2-0.1-0.3-0.1-0.5
				c0-0.2-0.1-0.3-0.1-0.5c0-0.2-0.1-0.3-0.1-0.5c0-0.2-0.1-0.3-0.1-0.5c0-0.2-0.1-0.4-0.1-0.5c0-0.2-0.1-0.3-0.1-0.5
				c-0.1-0.3-0.2-0.6-0.2-0.9c0-0.2-0.1-0.3-0.1-0.5c0-0.2-0.1-0.4-0.2-0.5c0-0.2-0.1-0.3-0.1-0.5c0-0.2-0.1-0.4-0.2-0.5
				c0-0.2-0.1-0.3-0.2-0.5c-0.1-0.2-0.1-0.4-0.2-0.5c0-0.2-0.1-0.3-0.2-0.5c-0.3-1-0.7-1.9-1.1-2.8c-0.2-0.4-0.3-0.8-0.5-1.2
				c0,0,0,0,0,0c-0.2-0.3-0.3-0.7-0.5-1c0.1,0,0.1-0.1,0.2-0.1c3.2,4.6,7.2,8.3,11.2,11.3c1.1,0.8,2.2,1.6,3.3,2.3
				c0.5,0.4,1.1,0.7,1.6,1c0.3,0.2,0.5,0.3,0.8,0.5c0.5,0.3,1,0.6,1.5,0.9c1.5,0.8,2.9,1.5,4.2,2.1c0.2-0.4,0.3-0.9,0.5-1.3
				c0.2-0.5,0.3-1,0.5-1.5c0.3-1.1,0.7-2.3,1-3.6c0.2-0.7,0.3-1.3,0.5-2c0.1-0.3,0.2-0.7,0.2-1.1c0.1-0.7,0.3-1.5,0.4-2.2
				c0.1-0.4,0.1-0.8,0.2-1.2c0.2-1.5,0.4-3.2,0.5-4.8c0.1-1.2,0.1-2.5,0.1-3.8c0-3.7-0.5-7.5-1.6-11.2c0,0,0.1,0,0.1,0
				c0,0,0.1,0,0.1-0.1c0.8,1.5,1.7,2.9,2.6,4.2c2.3,3.2,5,6,7.9,8.3c0.3,0.3,0.6,0.5,0.9,0.8c0.9,0.8,1.9,1.5,2.8,2.1
				c0.6,0.4,1.2,0.9,1.9,1.3c0.9,0.6,1.8,1.2,2.7,1.7c2.3,1.4,4.4,2.4,6,3.1c1.5-4.2,3.2-10.3,3.7-17c0.1-1.8,0.2-3.6,0.1-5.5
				c0-0.7-0.1-1.5-0.1-2.2c-0.1-1.3-0.3-2.7-0.5-4c0.1,0,0.1,0,0.2-0.1c0.1,0.3,0.2,0.7,0.4,1c0,0,0,0,0,0c0.1,0.4,0.3,0.8,0.5,1.2
				c0.4,1,0.8,1.9,1.2,2.8c0.1,0.1,0.1,0.3,0.2,0.4c0.1,0.2,0.2,0.3,0.3,0.5c0.1,0.2,0.2,0.3,0.2,0.5c0.1,0.2,0.2,0.3,0.3,0.5
				c0.1,0.2,0.2,0.3,0.2,0.4c0.1,0.2,0.2,0.3,0.3,0.5c0.1,0.1,0.2,0.3,0.2,0.4c0.2,0.3,0.3,0.6,0.5,0.8c0.1,0.1,0.2,0.3,0.2,0.4
				c0.1,0.2,0.2,0.3,0.3,0.5c0.1,0.1,0.2,0.3,0.3,0.4c0.1,0.1,0.2,0.3,0.3,0.4l0.3,0.4c0.1,0.2,0.2,0.3,0.3,0.4
				c0.1,0.1,0.2,0.3,0.3,0.4c0.1,0.2,0.3,0.4,0.4,0.6c0.1,0.2,0.2,0.3,0.4,0.5c0.1,0.2,0.2,0.3,0.4,0.5c0.1,0.1,0.2,0.2,0.3,0.4
				c0.1,0.1,0.2,0.3,0.3,0.4c0.1,0.1,0.2,0.2,0.3,0.4c0.1,0.1,0.2,0.3,0.3,0.4c0.1,0.1,0.2,0.2,0.3,0.3c0.1,0.2,0.3,0.3,0.4,0.5
				c0.1,0.1,0.2,0.2,0.3,0.4c0.2,0.2,0.3,0.4,0.5,0.6c0.1,0.1,0.2,0.2,0.3,0.3c0.1,0.1,0.2,0.3,0.3,0.4c0.1,0.1,0.2,0.2,0.3,0.3
				c0.1,0.1,0.2,0.3,0.3,0.4c0.1,0.1,0.2,0.2,0.3,0.3c0.1,0.1,0.3,0.3,0.4,0.4c0.1,0.1,0.1,0.1,0.2,0.2c0.2,0.2,0.4,0.4,0.6,0.6
				l0.2,0.2c0.1,0.1,0.3,0.3,0.4,0.4c0.1,0.1,0.2,0.2,0.2,0.2c0.1,0.1,0.2,0.2,0.4,0.4c0.1,0.1,0.2,0.1,0.2,0.2
				c0.1,0.1,0.2,0.3,0.4,0.4c0.1,0.1,0.1,0.1,0.2,0.2c0.2,0.2,0.4,0.3,0.5,0.5c0,0,0.1,0.1,0.1,0.1c0.1,0.1,0.3,0.3,0.4,0.4
				c0.1,0.1,0.1,0.1,0.2,0.2c0.1,0.1,0.2,0.2,0.3,0.3c0.1,0.1,0.1,0.1,0.2,0.2c0.1,0.1,0.2,0.2,0.3,0.3c0.1,0,0.1,0.1,0.2,0.1
				c0.2,0.1,0.3,0.3,0.5,0.4c0.4-0.7,0.9-1.6,1.3-2.4c0.2-0.4,0.5-0.9,0.7-1.4c0.1-0.2,0.2-0.5,0.3-0.7c0.2-0.5,0.5-1,0.7-1.5
				c0.5-1,0.9-2.1,1.4-3.3c0.1-0.3,0.2-0.6,0.3-0.9c0.3-0.9,0.7-1.8,1-2.7c0.7-1.9,1.3-3.8,1.8-5.8c0.2-0.7,0.3-1.4,0.5-2.1
				c0.2-0.7,0.3-1.4,0.4-2.1c0,0,0,0,0,0c0.1-0.7,0.3-1.4,0.4-2c0.1,0,0.1,0,0.2,0c0,0.2,0,0.4,0,0.6c0,0.1,0,0.1,0,0.2
				c0,0.4,0,0.8,0,1.2v0.1c0,0.5,0,0.9,0,1.4c0,0,0,0,0,0c0,0.4,0,0.7,0,1.1v0.1c0,0.9,0,1.7,0.1,2.5
				C381.6,49.3,383.3,56.4,384.7,60.9z"/>
			<path class="st2" d="M388.4,64.6c-2.8-6.8-25.2-3.9-50,6.4c-17.9,7.4-32.2,16.7-37.7,23.8c-2.1,2.7-2.9,5.2-2.2,7.1
				c0.7,1.7,2.7,2.8,5.6,3.3c-0.2-0.5-0.4-1.5-0.4-2.8v-0.1l0-0.1c0.1-0.3,0.2-0.6,0.3-0.9c1.6-3.9,7-8.2,11.4-11.3
				c6.7-4.6,15.7-9.3,25.3-13.3c10.2-4.2,20.3-7.3,28.6-8.7c6-1,13.7-1.6,16.6,1.2l0.1,0.1l0,0.1c0.4,0.6,0.7,1.1,0.8,1.5
				C388.5,68.5,389.1,66.3,388.4,64.6z"/>
			<path class="st2" d="M388.9,78.3c-2.2-0.4-4.7-0.5-7.7-0.4l-1.3-3.1l0.2,2.7l-1.2-2.9l-2.5-6l0.1,1.6l0.5,7.5l-2.6-7.7l1.3,8.4
				c-3,0.4-6.2,1-9.6,1.9l-1-2.5l0.1,1.9l-2.6-6.2l0.4,6.4l-1.8-5.4l1,6.8c-5.5,1.5-11.3,3.5-17.2,6c-5.9,2.5-11.5,5.2-16.4,8
				l-4.1-5.6l2.5,5.1l-4.2-4.8l2.6,6.2l-1.2-1.4l1,2.5c-3,1.8-5.7,3.7-8.1,5.5l-2.1-2.9l-0.8-1.1l-2.1-2.9l3.6,7.3l-6-6.9l3.7,8.9
				l-1.7-2l1.3,3.1c-1.5,1.3-2.7,2.6-3.8,3.9c-0.4,0.5-0.8,0.9-1.1,1.4l1.4,3.2c0,0,0,0,0,0l-2.2-4.7c0,0.1,0,0.2,0,0.4l-2.2-5.1
				c0,0-0.1-0.1-0.2-0.4c0-0.1-0.1-0.2-0.1-0.3c0-0.1-0.1-0.3-0.1-0.5c0-0.1-0.1-0.3-0.1-0.5c0-0.1,0-0.2,0-0.3c0-0.1,0-0.3,0-0.5
				c0-0.2,0-0.3,0-0.5c0,0,0,0,0,0c0,0,0-0.1,0-0.1c0-0.1,0-0.1,0-0.2c0,0,0-0.1,0-0.1c0-0.1,0-0.1,0.1-0.2c0,0,0-0.1,0-0.1
				c0-0.1,0-0.1,0.1-0.2c0,0,0-0.1,0.1-0.1c0,0,0-0.1,0.1-0.2c0,0,0-0.1,0.1-0.2c0,0,0-0.1,0.1-0.1c0-0.1,0.1-0.1,0.1-0.2
				c0,0,0-0.1,0.1-0.1c0-0.1,0.1-0.1,0.1-0.2c0,0,0.1-0.1,0.1-0.1c0-0.1,0.1-0.1,0.1-0.2c0,0,0.1-0.1,0.1-0.1c0-0.1,0.1-0.1,0.1-0.2
				c0,0,0-0.1,0.1-0.1c0.1-0.1,0.1-0.1,0.2-0.2c0,0,0-0.1,0.1-0.1c0.2-0.3,0.5-0.6,0.7-1c0.2-0.2,0.3-0.4,0.5-0.6l0,0
				c0.1-0.1,0.2-0.2,0.3-0.3c0,0,0,0,0,0c1.2-1.3,2.7-2.7,4.5-4.1c0,0,0,0,0,0c0.3-0.3,0.7-0.5,1.1-0.8c0,0,0,0,0,0
				c0.2-0.2,0.4-0.3,0.6-0.5c0,0,0,0,0,0c0.3-0.2,0.6-0.4,0.9-0.6c0.2-0.2,0.4-0.3,0.6-0.5c0,0,0,0,0,0c0.3-0.2,0.5-0.4,0.8-0.6
				c0,0,0,0,0,0c0.6-0.4,1.2-0.8,1.8-1.2c0,0,0,0,0,0c0.3-0.2,0.6-0.4,0.9-0.6c0,0,0,0,0.1,0c1.6-1,3.2-2,5-3c0,0,0,0,0.1,0
				c0.3-0.2,0.7-0.4,1-0.6c0,0,0,0,0.1,0c0.2-0.1,0.5-0.2,0.7-0.4c0,0,0.1,0,0.1-0.1c0.3-0.1,0.5-0.3,0.8-0.4
				c0.2-0.1,0.5-0.2,0.7-0.4c0,0,0,0,0,0c0.4-0.2,0.9-0.4,1.3-0.7c0,0,0,0,0,0c0.9-0.4,1.8-0.9,2.7-1.3c0,0,0.1,0,0.1-0.1
				c0.4-0.2,0.9-0.4,1.3-0.6c0,0,0.1,0,0.1-0.1c0.9-0.4,1.8-0.8,2.7-1.3c0.1,0,0.1-0.1,0.2-0.1c0.4-0.2,0.9-0.4,1.3-0.6
				c0.1,0,0.1-0.1,0.2-0.1c0.5-0.2,0.9-0.4,1.4-0.6c0,0,0,0,0,0c0.6-0.3,1.2-0.5,1.9-0.8c0.6-0.3,1.3-0.5,1.9-0.8c0,0,0.1,0,0.1,0
				c0.7-0.3,1.5-0.6,2.2-0.9c0,0,0.1,0,0.1,0c0.7-0.3,1.5-0.6,2.2-0.8c0,0,0,0,0.1,0c1.5-0.6,3-1.1,4.5-1.6c0,0,0,0,0,0v0
				c0.2-0.1,0.5-0.2,0.7-0.2v0c0.3-0.1,0.7-0.2,1-0.3c0,0,0,0,0,0c0.2-0.1,0.5-0.2,0.7-0.2v0c0.4-0.1,0.8-0.3,1.2-0.4c0,0,0,0,0,0
				c1.9-0.6,3.8-1.1,5.6-1.6c0.1,0,0.1,0,0.2,0c0.1,0,0.2,0,0.3-0.1c0.6-0.1,1.1-0.3,1.7-0.4c0,0,0,0,0.1,0c0.7-0.2,1.4-0.3,2.1-0.5
				c0,0,0,0,0,0c0.3-0.1,0.5-0.1,0.8-0.2c0,0,0,0,0,0c0.3-0.1,0.7-0.1,1-0.2c0,0,0,0,0.1,0c0.3,0,0.5-0.1,0.8-0.1c0,0,0,0,0.1,0
				c0.4-0.1,0.8-0.1,1.2-0.2c0,0,0,0,0,0c2.1-0.4,4.1-0.6,5.9-0.7c0.1,0,0.2,0,0.3,0c0.1,0,0.3,0,0.4,0c0.1,0,0.2,0,0.3,0
				c0.1,0,0.2,0,0.3,0c0.1,0,0.2,0,0.3,0s0.2,0,0.3,0h0.6c0.5,0,1,0,1.5,0.1h0c0.2,0,0.4,0,0.7,0.1h0c0.4,0,0.8,0.1,1.2,0.2
				c0,0,0.1,0,0.1,0c0.4,0.1,0.7,0.2,1.1,0.2c0,0,0.1,0,0.1,0c0.1,0,0.3,0.1,0.4,0.1c0,0,0,0,0,0c0.2,0.1,0.3,0.1,0.4,0.2
				c0,0,0.1,0,0.1,0c0.1,0,0.2,0.1,0.3,0.2c0,0,0.1,0,0.1,0c0.1,0.1,0.2,0.1,0.4,0.2c0,0,0,0,0.1,0c0.1,0.1,0.2,0.1,0.3,0.2
				c0,0,0.1,0,0.1,0.1c0.1,0.1,0.2,0.2,0.3,0.2c0.1,0.2,0.3,0.4,0.4,0.6c0,0.1,0.1,0.1,0.1,0.2c0.1,0.1,0.1,0.2,0.2,0.3
				c0.1,0.1,0.1,0.2,0.1,0.3c0,0.1,0.1,0.2,0.1,0.3c0,0.1,0.1,0.2,0.1,0.2l2.1,5.2c0,0,0,0,0,0L388.9,78.3z"/>
			<path class="st2" d="M394.5,85.8c-3-7.2-24.5-5.1-48.1,4.7c-16.5,6.8-29.7,15.7-35.1,22.8c0.6,0.8,1.2,1.6,1.8,2.2
				c-1.2,2-1.8,3.9-2.3,5.8c0.8-1.7,1.8-3.3,3.2-5.1c0.7,0.7,1.4,1.2,2,1.6c1.8,1.1,3.2-1.3,4.6-2.7c11-11.4,49.3-23.5,49.3-23.5
				c7.9-3.9,12.2-3.2,17.2-3.9c1.3-0.2,5.3,2.4,6.8,1.6c0.4-0.2,0.7-0.7,0.9-1.3C394.9,87.3,394.8,86.5,394.5,85.8z"/>
			<path class="st2" d="M328.5,37.1c-0.6-1.5-2.7-2.1-4.7-1.2c-2,0.8-3.1,2.7-2.4,4.2c0.6,1.5,2.7,2.1,4.7,1.2
				C328.1,40.5,329.1,38.6,328.5,37.1z"/>
			<path class="st2" d="M356.9,29.7c-0.6-1.5-2.7-2.1-4.7-1.2c-2,0.8-3.1,2.7-2.4,4.2c0.6,1.5,2.7,2.1,4.7,1.2
				C356.4,33.1,357.5,31.2,356.9,29.7z"/>
			<path class="st2" d="M303.2,51.9c-0.6-1.5-2.7-2.1-4.7-1.2c-2,0.8-3.1,2.7-2.4,4.2c0.6,1.5,2.7,2.1,4.7,1.2
				C302.8,55.3,303.8,53.4,303.2,51.9z"/>
			<path class="st2" d="M384.4,28.7c-0.6-1.5-2.7-2.1-4.7-1.2c-0.8,0.3-1.5,0.8-1.9,1.4c-0.7,0.9-0.9,1.9-0.5,2.8
				c0.4,0.9,1.2,1.4,2.2,1.6c0.8,0.1,1.6,0,2.5-0.3C384,32.1,385,30.2,384.4,28.7z"/>
			<path class="st2" d="M283,70.7c-0.6-1.5-2.7-2.1-4.7-1.2c-2,0.8-3.1,2.7-2.4,4.2c0.6,1.5,2.7,2.1,4.7,1.2
				C282.6,74.1,283.7,72.2,283,70.7z"/>
		</g>
	</g>
	<g>
		<path class="st3" d="M380.6,36.1c-0.1,0.7-0.3,1.4-0.5,2.1c-0.2,0.7-0.3,1.4-0.5,2.1c-0.5,2-1.1,4-1.8,5.8c-0.3,0.9-0.7,1.8-1,2.7
			c-0.1,0.3-0.2,0.6-0.3,0.9c-0.5,1.1-0.9,2.2-1.4,3.3c-0.2,0.5-0.5,1-0.7,1.5c-0.1,0.2-0.2,0.5-0.3,0.7c-0.2,0.5-0.5,0.9-0.7,1.4
			c-0.5,0.9-0.9,1.7-1.3,2.4c-0.2-0.1-0.3-0.3-0.5-0.4c-0.1,0-0.1-0.1-0.2-0.1c-0.1-0.1-0.2-0.2-0.4-0.3c-0.1-0.1-0.1-0.1-0.2-0.2
			c-0.1-0.1-0.2-0.2-0.3-0.3c-0.1-0.1-0.1-0.1-0.2-0.2c-0.1-0.1-0.3-0.3-0.4-0.4c0,0-0.1-0.1-0.1-0.1c-0.2-0.2-0.4-0.3-0.5-0.5
			c-0.1-0.1-0.1-0.1-0.2-0.2c-0.1-0.1-0.3-0.2-0.4-0.4c-0.1-0.1-0.1-0.1-0.2-0.2c-0.1-0.1-0.2-0.2-0.4-0.4c-0.1-0.1-0.2-0.2-0.2-0.2
			c-0.1-0.1-0.3-0.3-0.4-0.4c-0.1-0.1-0.1-0.1-0.2-0.2c-0.2-0.2-0.4-0.4-0.6-0.6c-0.1-0.1-0.1-0.1-0.2-0.2c-0.1-0.1-0.3-0.3-0.4-0.4
			c-0.1-0.1-0.2-0.2-0.3-0.3c-0.1-0.1-0.2-0.3-0.3-0.4c-0.1-0.1-0.2-0.2-0.3-0.3c-0.1-0.1-0.2-0.3-0.3-0.4c-0.1-0.1-0.2-0.2-0.3-0.3
			c-0.2-0.2-0.3-0.4-0.5-0.6c-0.1-0.1-0.2-0.2-0.3-0.4c-0.1-0.2-0.3-0.3-0.4-0.5c-0.1-0.1-0.2-0.2-0.3-0.3c-0.1-0.1-0.2-0.3-0.3-0.4
			c-0.1-0.1-0.2-0.2-0.3-0.4c-0.1-0.1-0.2-0.3-0.3-0.4c-0.1-0.1-0.2-0.2-0.3-0.4c-0.1-0.2-0.2-0.3-0.4-0.5c-0.1-0.2-0.2-0.3-0.4-0.5
			c-0.1-0.2-0.3-0.4-0.4-0.6c-0.1-0.1-0.2-0.3-0.3-0.4c-0.1-0.1-0.2-0.3-0.3-0.4c-0.1-0.1-0.2-0.3-0.3-0.4c-0.1-0.1-0.2-0.3-0.3-0.4
			c-0.1-0.1-0.2-0.3-0.3-0.4c-0.1-0.2-0.2-0.3-0.3-0.5c-0.1-0.1-0.2-0.3-0.2-0.4c-0.2-0.3-0.3-0.5-0.5-0.8c-0.1-0.1-0.2-0.3-0.2-0.4
			c-0.1-0.2-0.2-0.3-0.3-0.5c-0.1-0.1-0.2-0.3-0.2-0.4c-0.1-0.2-0.2-0.3-0.3-0.5c-0.1-0.1-0.2-0.3-0.2-0.5c-0.1-0.2-0.2-0.3-0.3-0.5
			c-0.1-0.1-0.1-0.3-0.2-0.4c-0.1-0.3-0.3-0.6-0.4-0.9c3.6,9.6,10.6,17.3,15.5,21.7c0.7-0.1,1.4-0.2,2-0.2
			c2.5-4.6,5.5-11.4,7.3-19.1c0,0,0,0,0,0c0-0.8-0.1-1.7-0.1-2.5c0,0,0-0.1,0-0.1c0-0.8,0-1.7,0-2.5c0,0,0-0.1,0-0.1
			c0-0.4,0-0.8,0-1.2c0-0.1,0-0.1,0-0.2c0-0.2,0-0.4,0-0.6c-0.1,0-0.1,0-0.2,0C380.9,34.7,380.7,35.4,380.6,36.1z"/>
		<path class="st3" d="M326.3,42.2c1.1,3.7,1.6,7.5,1.6,11.2c0,1.3,0,2.5-0.1,3.8c-0.1,1.7-0.3,3.3-0.5,4.8
			c-0.1,0.4-0.1,0.8-0.2,1.1c-0.1,0.8-0.3,1.5-0.4,2.2c-0.1,0.4-0.2,0.7-0.2,1.1c-0.2,0.7-0.3,1.4-0.5,2c-0.3,1.3-0.7,2.5-1,3.6
			c-0.2,0.5-0.3,1.1-0.5,1.5c-0.2,0.5-0.3,0.9-0.5,1.3c-1.3-0.6-2.7-1.3-4.2-2.1c-0.5-0.3-1-0.6-1.5-0.9c-0.3-0.2-0.5-0.3-0.8-0.5
			c-0.5-0.3-1.1-0.7-1.6-1c-1.1-0.7-2.2-1.5-3.3-2.3c-4-3-8-6.7-11.2-11.3c-0.1,0-0.1,0.1-0.2,0.1c0.2,0.3,0.3,0.7,0.5,1
			c0,0,0,0,0,0c0.2,0.4,0.4,0.8,0.5,1.2v0c6,8.9,15.2,14.8,21.6,17.9c0.6-0.3,1.3-0.7,2-1c2.5-7.3,5.8-21.6,0.8-33.8
			C326.4,42.1,326.3,42.1,326.3,42.2z"/>
		<path class="st3" d="M355.6,36.9c-0.2-0.4-0.3-0.8-0.5-1.2c0,0,0,0,0,0c-0.1-0.3-0.2-0.7-0.4-1c-0.1,0-0.1,0-0.2,0.1
			c0.2,1.3,0.4,2.7,0.5,4c0.1,0.7,0.1,1.5,0.1,2.2c0.1,1.9,0,3.7-0.1,5.5c-0.5,6.8-2.2,12.9-3.7,17c-1.6-0.7-3.7-1.8-6-3.1
			c-0.9-0.5-1.8-1.1-2.7-1.7c-0.6-0.4-1.2-0.8-1.9-1.3c-0.9-0.7-1.9-1.4-2.8-2.1c-0.3-0.3-0.6-0.5-0.9-0.8c-2.8-2.4-5.6-5.1-7.9-8.3
			c-1-1.3-1.8-2.7-2.6-4.2c0,0-0.1,0-0.1,0.1c5.1,12.1,17.5,20,24.4,23.4c0.7-0.2,1.4-0.5,2.1-0.7C355.2,58.1,357.6,47.4,355.6,36.9
			C355.6,36.9,355.6,36.9,355.6,36.9z"/>
		<path class="st3" d="M307.3,87.3c-0.5,0.4-1.1,0.9-1.6,1.3c-2.7-0.8-6-2-9.6-3.6c-2.9-1.3-6-2.9-9.1-4.8c0,0,0,0,0,0c0,0,0,0,0,0
			c-0.6-0.6-1.1-1.2-1.7-1.8c0,0,0,0-0.1-0.1c-0.6-0.6-1.2-1.2-1.8-1.8c0,0-0.1-0.1-0.1-0.1c-0.3-0.3-0.6-0.6-0.9-0.8
			c0,0-0.1-0.1-0.1-0.1l-0.4-0.4c0.1,0,0.1-0.1,0.2-0.1c2.1,1.5,4.2,2.8,6.2,4c0.6,0.3,1.2,0.7,1.8,1c1.6,0.8,3.2,1.6,4.7,2.3
			c0.8,0.3,1.5,0.7,2.3,1c1.1,0.5,2.2,0.9,3.2,1.3c2.1,0.8,4,1.4,5.6,1.8c0,0,0,0,0,0c0-0.2,0-0.4,0-0.6c0-0.1,0-0.1,0-0.2
			c0-0.2,0-0.3,0-0.5c0-0.1,0-0.2,0-0.2c0-0.2,0-0.3,0-0.5c0-0.1,0-0.2,0-0.2c0-0.2,0-0.4,0-0.6c0-0.1,0-0.1,0-0.2
			c0-0.2,0-0.5,0-0.7c0-0.1,0-0.2,0-0.2c0-0.2,0-0.4,0-0.5v-1.1c0-0.2,0-0.4,0-0.5c0-0.1,0-0.2,0-0.3c0-0.3,0-0.5,0-0.8
			c0-0.1,0-0.2,0-0.3c0-0.2,0-0.4,0-0.6c0-0.1,0-0.3,0-0.4c0-0.2,0-0.3,0-0.5c0-0.1,0-0.3,0-0.4c0-0.2,0-0.3,0-0.5
			c0-0.1,0-0.3,0-0.4c0-0.2,0-0.5-0.1-0.7c0-0.2,0-0.3,0-0.5c0-0.2,0-0.4-0.1-0.6c0-0.1,0-0.3,0-0.4c0-0.2,0-0.3-0.1-0.5
			c0-0.2,0-0.3-0.1-0.5c0-0.2,0-0.3-0.1-0.5c0-0.2,0-0.3-0.1-0.5c0-0.2-0.1-0.4-0.1-0.6c0-0.2-0.1-0.4-0.1-0.6
			c0-0.2-0.1-0.5-0.1-0.7c0-0.2-0.1-0.3-0.1-0.5c0-0.2-0.1-0.3-0.1-0.5c0-0.2-0.1-0.3-0.1-0.5c0-0.2-0.1-0.3-0.1-0.5
			c0-0.2-0.1-0.3-0.1-0.5c0-0.2-0.1-0.4-0.1-0.5c0-0.2-0.1-0.3-0.1-0.5c-0.1-0.3-0.2-0.6-0.2-0.9c0-0.2-0.1-0.3-0.1-0.5
			c0-0.2-0.1-0.4-0.2-0.5c0-0.2-0.1-0.3-0.1-0.5c0-0.2-0.1-0.4-0.2-0.5c0-0.2-0.1-0.3-0.2-0.5c-0.1-0.2-0.1-0.4-0.2-0.5
			c0-0.2-0.1-0.3-0.2-0.5c-0.1-0.3-0.2-0.6-0.3-0.9C307.1,70.3,307.6,80.7,307.3,87.3z"/>
		<g>
			<path class="st3" d="M321.3,80.7c-2.7,1.6-4.5,3.4-4.2,3.9c0.3,0.5,2.8-0.4,5.4-2c2.7-1.6,4.5-3.4,4.2-3.9
				C326.4,78.2,323.9,79.1,321.3,80.7z"/>
			<path class="st3" d="M315.7,83.4c-0.2,0.1-0.3,0.4-0.2,0.6c0.1,0.2,0.4,0.2,0.6,0.1s0.3-0.4,0.2-0.6
				C316.2,83.3,316,83.3,315.7,83.4z"/>
			<path class="st3" d="M315.2,85.2c-0.4,0.2-0.5,0.7-0.3,1c0.2,0.3,0.6,0.3,1,0.1c0.4-0.2,0.5-0.7,0.3-1
				C316,85,315.6,84.9,315.2,85.2z"/>
			<polygon class="st3" points="349,67.8 348.6,70.4 351.3,69.5 351.7,66.9 			"/>
			<polygon class="st3" points="345.5,69.1 345.1,71.8 345.8,71.5 346.2,68.8 			"/>
		</g>
		<g>
			<path class="st3" d="M307.7,107.8c-0.2,0.4-0.3,0.8-0.4,1.2c0,0.4,0,0.7,0,1.1c0,0.1,0,0.2,0,0.4l-2.2-5.1c0,0-0.1-0.1-0.2-0.4
				c0-0.1-0.1-0.2-0.1-0.3c0-0.1-0.1-0.3-0.1-0.5c0-0.1-0.1-0.3-0.1-0.5c0-0.1,0-0.2,0-0.3c0-0.1,0-0.3,0-0.5c0-0.2,0-0.3,0-0.5
				c0,0,0,0,0,0c0,0,0-0.1,0-0.1c0-0.1,0-0.1,0-0.2c0,0,0-0.1,0-0.1c0-0.1,0-0.1,0.1-0.2c0,0,0-0.1,0-0.1c0-0.1,0-0.1,0.1-0.2
				c0,0,0-0.1,0.1-0.1c0,0,0-0.1,0.1-0.2c0,0,0-0.1,0.1-0.2c0,0,0-0.1,0.1-0.1c0-0.1,0.1-0.1,0.1-0.2c0,0,0-0.1,0.1-0.1
				c0-0.1,0.1-0.1,0.1-0.2c0,0,0.1-0.1,0.1-0.1c0-0.1,0.1-0.1,0.1-0.2c0,0,0.1-0.1,0.1-0.1c0-0.1,0.1-0.1,0.1-0.2c0,0,0-0.1,0.1-0.1
				c0.1-0.1,0.1-0.1,0.2-0.2c0,0,0-0.1,0.1-0.1c0.2-0.3,0.5-0.6,0.7-1c0.2-0.2,0.3-0.4,0.5-0.6l0,0c0.1-0.1,0.2-0.2,0.3-0.3
				c0,0,0,0,0,0l2.7,6.5C309.1,105.4,308.2,106.6,307.7,107.8z"/>
			<path class="st3" d="M321.8,95.2l-2.7-6.5c0,0,0,0-0.1,0c-0.3,0.2-0.6,0.4-0.9,0.6c0,0,0,0,0,0c-0.6,0.4-1.2,0.8-1.8,1.2
				c0,0,0,0,0,0c-0.3,0.2-0.6,0.4-0.8,0.6c0,0,0,0,0,0l2.7,6.5C319.3,96.8,320.5,96,321.8,95.2z"/>
			<path class="st3" d="M317.5,98.1l-2.7-6.5c0,0,0,0,0,0c-0.3,0.2-0.6,0.4-0.9,0.6c0,0,0,0,0,0l2.7,6.5
				C316.9,98.5,317.2,98.3,317.5,98.1z"/>
			<path class="st3" d="M328,91.6l-2.7-6.5c0,0,0,0-0.1,0c-0.3,0.2-0.7,0.4-1,0.6c0,0,0,0-0.1,0l2.7,6.5
				C327.2,92,327.6,91.8,328,91.6z"/>
			<path class="st3" d="M342,85.1l-2.8-6.7c0,0,0,0,0,0c-0.5,0.2-0.9,0.4-1.4,0.6c-0.1,0-0.1,0.1-0.2,0.1c-0.5,0.2-0.9,0.4-1.3,0.6
				c-0.1,0-0.1,0.1-0.2,0.1c-0.9,0.4-1.8,0.8-2.7,1.3c0,0-0.1,0-0.1,0.1c-0.4,0.2-0.9,0.4-1.3,0.6c0,0-0.1,0-0.1,0.1
				c-0.9,0.4-1.8,0.9-2.7,1.3c0,0,0,0,0,0c-0.4,0.2-0.9,0.4-1.3,0.7c0,0,0,0,0,0l2.7,6.5C331.9,89.5,340.3,85.9,342,85.1z"/>
			<path class="st3" d="M329.6,90.7l-2.7-6.5c-0.3,0.1-0.6,0.3-0.8,0.4c0,0-0.1,0-0.1,0.1l2.7,6.5C329,91,329.3,90.9,329.6,90.7z"/>
			<path class="st3" d="M315.1,99.8c0.3-0.2,0.5-0.4,0.8-0.6l-2.7-6.5c0,0,0,0,0,0c-0.4,0.3-0.7,0.5-1.1,0.8c0,0,0,0,0,0l2.2,5.2
				L315.1,99.8z"/>
			<path class="st3" d="M356.6,79.3l-2.7-6.5c0,0,0,0,0,0c-0.3,0.1-0.6,0.2-1,0.3l2.7,6.5C355.9,79.5,356.3,79.4,356.6,79.3z"/>
			<path class="st3" d="M358.6,78.7l-2.7-6.5c0,0,0,0,0,0c-0.4,0.1-0.8,0.3-1.2,0.4l2.7,6.5C357.8,78.9,358.2,78.8,358.6,78.7z"/>
			<path class="st3" d="M372.5,75.3l-2.7-6.5c0,0,0,0,0,0c-0.4,0.1-0.8,0.1-1.2,0.2c0,0,0,0-0.1,0l2.7,6.5
				C371.6,75.5,372,75.4,372.5,75.3z"/>
			<path class="st3" d="M370.3,75.7l-2.7-6.5c0,0,0,0-0.1,0c-0.3,0.1-0.7,0.1-1,0.2c0,0,0,0,0,0l2.7,6.5
				C369.6,75.9,370,75.8,370.3,75.7z"/>
			<path class="st3" d="M368.5,76.1l-2.7-6.5c0,0,0,0,0,0c-0.7,0.1-1.4,0.3-2.1,0.5c0,0,0,0-0.1,0c-0.6,0.1-1.1,0.3-1.7,0.4
				c-0.1,0-0.2,0-0.3,0.1c-0.1,0-0.1,0-0.2,0l2.7,6.5C365.7,76.7,367.1,76.4,368.5,76.1z"/>
			<path class="st3" d="M376.5,68.6l2.5,6c4.4-0.2,7.6,0.4,9.1,1.8c0.1,0.2,0.2,0.4,0.3,0.5l-2.2-5.2c0,0,0-0.1-0.1-0.2
				c0-0.1,0-0.2-0.1-0.3c0-0.1-0.1-0.2-0.1-0.3c0-0.1-0.1-0.2-0.2-0.3c0-0.1-0.1-0.1-0.1-0.2c-0.1-0.2-0.2-0.4-0.4-0.6c0,0,0,0,0,0
				c-0.1-0.1-0.2-0.2-0.3-0.2c0,0-0.1,0-0.1-0.1c-0.1-0.1-0.2-0.1-0.3-0.2c0,0,0,0-0.1,0c-0.1-0.1-0.2-0.1-0.4-0.2c0,0-0.1,0-0.1,0
				c-0.1-0.1-0.2-0.1-0.3-0.2c0,0-0.1,0-0.1,0c-0.1-0.1-0.3-0.1-0.4-0.2c0,0,0,0,0,0c-0.1,0-0.3-0.1-0.4-0.1c0,0-0.1,0-0.1,0
				c-0.3-0.1-0.7-0.2-1.1-0.2c0,0-0.1,0-0.1,0c-0.4-0.1-0.8-0.1-1.2-0.2c0,0,0,0,0,0c-0.2,0-0.4,0-0.7-0.1c0,0,0,0,0,0
				c-0.5,0-1,0-1.5-0.1c0,0,0,0,0,0c-0.2,0-0.4,0-0.6,0c-0.1,0-0.2,0-0.3,0c-0.1,0-0.2,0-0.3,0c-0.1,0-0.2,0-0.4,0
				c-0.1,0-0.2,0-0.3,0c-0.1,0-0.3,0-0.4,0c-0.1,0-0.2,0-0.3,0l0.9,2.1L376.5,68.6z"/>
			<path class="st3" d="M354.9,79.9l-2.7-6.5c0,0,0,0,0,0c-1.5,0.5-3,1-4.5,1.6c0,0,0,0-0.1,0c-0.7,0.3-1.5,0.5-2.2,0.8
				c0,0-0.1,0-0.1,0c-0.7,0.3-1.5,0.6-2.2,0.9c0,0-0.1,0-0.1,0l2.8,6.7C346.6,83.2,354.1,80.2,354.9,79.9z"/>
		</g>
		<g>
			<path class="st3" d="M331.4,101.5c2.5-1.5,4.3-3.2,4-3.7c-0.3-0.5-2.6,0.4-5.1,1.9c-2.5,1.5-4.3,3.2-4,3.7
				C326.5,103.9,328.8,103,331.4,101.5z"/>
			<path class="st3" d="M325.4,102.9c0.2-0.1,0.2-0.3,0.1-0.5c-0.1-0.2-0.3-0.2-0.5-0.1c-0.2,0.1-0.2,0.3-0.1,0.5
				C324.9,103,325.2,103.1,325.4,102.9z"/>
			<path class="st3" d="M324.2,104.8c0.2,0.3,0.6,0.3,0.9,0.1c0.3-0.2,0.4-0.6,0.3-0.9c-0.2-0.3-0.6-0.3-0.9-0.1
				C324.2,104.2,324,104.6,324.2,104.8z"/>
		</g>
		<polygon class="st3" points="358.8,89.1 359.1,86.6 356.6,87.5 356.2,90 		"/>
		<polygon class="st3" points="353.6,91 353.9,88.5 353.2,88.7 352.8,91.2 		"/>
	</g>
	<path class="st1" d="M346.9,71.2c0.4-0.2,0.8-0.3,1.2-0.4l0.5-2.8c-0.4,0.1-0.8,0.3-1.2,0.4L346.9,71.2z"/>
	<path class="st4" d="M314.2,86.7c-0.2-0.4-0.1-1,0.4-1.7c-7.9,6.1-12.2,12.5-13.7,18.5c2.4-5.3,7.4-10.9,14.8-16.4
		C315,87.2,314.4,87.1,314.2,86.7z"/>
	<path class="st1" d="M371.1,65.4c0.4,0,0.8-0.1,1.2-0.1l0.3-1.9c-0.4,0-0.8,0-1.2,0L371.1,65.4z"/>
	<path class="st4" d="M327.5,76.9c1.3-0.3,2.2-0.2,2.5,0.2c0.2,0.3,0.1,0.9-0.3,1.5c3.1-1.6,6.4-3.1,10-4.6c1.7-0.7,3.3-1.3,4.8-1.9
		l0.5-2.9c-2,0.7-4.1,1.6-6.3,2.5C334.6,73.4,330.8,75.1,327.5,76.9z"/>
	<path class="st1" d="M352.4,69.3c6.2-2,11.6-3.1,16.4-3.7l0.4-2.1c-4.7,0.3-10,1.2-16.2,3L352.4,69.3z"/>
	<path class="st1" d="M376.6,63.7l-0.3,1.6c4.5,0.1,8.3,0.9,11.6,2.2C384.8,65.6,381.1,64.3,376.6,63.7z"/>
	<g>
		<g>
			<path class="st4" d="M356.2,87.6c-0.4,0.1-0.8,0.3-1.2,0.4l-0.5,2.7c0.4-0.1,0.8-0.3,1.2-0.4L356.2,87.6z"/>
			<path class="st4" d="M324.9,105.8c-4.7,3.4-8.3,6.9-10.9,10.4c-1.3,1.8-2.4,3.5-3.2,5.2c0.5-2,1.3-3.9,2.5-5.9
				c2.2-3.9,5.7-7.8,10.6-11.6c-0.5,0.7-0.6,1.2-0.4,1.6C323.7,105.8,324.2,105.9,324.9,105.8z"/>
			<path class="st4" d="M378.9,83.4c-0.4,0-0.7,0-1.1,0l-0.3,1.9c0.4,0,0.8-0.1,1.1-0.1L378.9,83.4z"/>
			<path class="st4" d="M338.5,96.3c0.2,0.3,0.1,0.8-0.3,1.4c2.9-1.5,6.1-3,9.5-4.4c1.6-0.7,3.1-1.3,4.6-1.8l0.5-2.7
				c-1.9,0.7-3.9,1.5-6,2.3c-3.9,1.6-7.4,3.3-10.6,4.9C337.3,95.8,338.2,95.9,338.5,96.3z"/>
			<path class="st4" d="M375.7,83.4c-4.4,0.3-9.5,1.2-15.4,2.9l-0.4,2.6c5.9-1.9,11-3,15.5-3.5L375.7,83.4z"/>
			<path class="st4" d="M382.7,83.6l-0.2,1.5c4.2,0.1,7.8,0.9,11,2.1C390.5,85.4,387,84.1,382.7,83.6z"/>
			<path class="st4" d="M392.6,89.8l-3,0.5c0,0.1,0,0.3,0,0.4c-4.9,0.8-9.3-1.2-17.1,2.7c0,0-40.7,12.6-51.7,24
				c-1.3,1.4-2.5,1.6-4.3,0.5c3.1-5.1,15.9-13.5,32.8-20.5c18.1-7.5,34.2-11,38.9-8.8L392.6,89.8z"/>
		</g>
	</g>
	<path class="st1" d="M327.5,37.6c-0.4-1.1-2-1.5-3.4-0.9c-1.4,0.6-2.2,1.9-1.7,3c0.1,0.3,0.4,0.6,0.7,0.8c0.1-0.4,0.4-0.8,0.9-1
		c0.7-0.3,1.4-0.1,1.6,0.4c0.1,0.2,0.1,0.5-0.1,0.7c0.1,0,0.2-0.1,0.3-0.1C327.2,40,328,38.6,327.5,37.6z"/>
	<path class="st1" d="M355.9,30.1c-0.4-1.1-1.9-1.5-3.4-0.9c-1.4,0.6-2.2,1.9-1.7,3c0.1,0.3,0.4,0.6,0.7,0.8c0.1-0.4,0.4-0.8,0.9-1
		c0.7-0.3,1.4-0.1,1.6,0.4c0.1,0.2,0.1,0.5,0,0.7c0.1,0,0.2-0.1,0.3-0.1C355.5,32.5,356.3,31.2,355.9,30.1z"/>
	<path class="st1" d="M383.4,29.1c-0.4-1.1-1.9-1.5-3.4-0.9c-0.9,0.4-1.6,1.1-1.8,1.8c-0.1,0.4-0.1,0.8,0,1.2
		c0.1,0.3,0.4,0.6,0.7,0.8c0,0,0,0,0-0.1c0.1-0.4,0.4-0.7,0.8-0.9c0.7-0.3,1.4-0.1,1.6,0.4c0.1,0.2,0.1,0.5-0.1,0.7
		c0.1,0,0.2-0.1,0.3-0.1C383.1,31.5,383.8,30.2,383.4,29.1z"/>
	<g>
		<path class="st5" d="M325,37.7c-0.2-0.4-0.7-0.6-1.3-0.3c-0.5,0.2-0.8,0.7-0.7,1.1c0.2,0.4,0.7,0.6,1.3,0.3
			C324.9,38.6,325.2,38.1,325,37.7z"/>
		<path class="st5" d="M326.5,39c0.3-0.1,0.5-0.4,0.4-0.7c-0.1-0.3-0.5-0.3-0.8-0.2c-0.3,0.1-0.5,0.4-0.4,0.7
			C325.8,39,326.2,39.1,326.5,39z"/>
		<path class="st5" d="M353.4,30.3c-0.2-0.4-0.7-0.6-1.3-0.3c-0.5,0.2-0.8,0.7-0.7,1.1c0.2,0.4,0.7,0.6,1.3,0.3
			C353.2,31.2,353.5,30.7,353.4,30.3z"/>
		<path class="st5" d="M354.9,31.6c0.3-0.1,0.5-0.4,0.4-0.7c-0.1-0.3-0.5-0.3-0.8-0.2c-0.3,0.1-0.5,0.4-0.4,0.7
			C354.2,31.6,354.5,31.7,354.9,31.6z"/>
		<path class="st5" d="M299.7,52.5c-0.2-0.4-0.7-0.6-1.3-0.3c-0.5,0.2-0.8,0.7-0.7,1.1c0.2,0.4,0.7,0.6,1.3,0.3
			S299.9,52.9,299.7,52.5z"/>
		<path class="st5" d="M301.2,53.8c0.3-0.1,0.5-0.4,0.4-0.7c-0.1-0.3-0.5-0.3-0.8-0.2c-0.3,0.1-0.5,0.4-0.4,0.7
			C300.5,53.8,300.9,53.9,301.2,53.8z"/>
		<path class="st5" d="M379.6,28.9c-0.5,0.2-0.8,0.7-0.7,1.1c0.2,0.4,0.7,0.6,1.3,0.3c0.5-0.2,0.8-0.7,0.7-1.1
			C380.8,28.9,380.2,28.7,379.6,28.9z"/>
		<path class="st5" d="M382,29.6c-0.3,0.1-0.5,0.4-0.4,0.7c0.1,0.3,0.5,0.3,0.8,0.2c0.3-0.1,0.5-0.4,0.4-0.7
			C382.7,29.6,382.4,29.5,382,29.6z"/>
		<ellipse transform="matrix(0.9239 -0.3827 0.3827 0.9239 -6.2213 112.0795)" class="st5" cx="278.6" cy="71.7" rx="1" ry="0.8"/>
		<path class="st5" d="M280.6,71.6c-0.3,0.1-0.5,0.4-0.4,0.7c0.1,0.3,0.5,0.3,0.8,0.2s0.5-0.4,0.4-0.7
			C281.3,71.6,281,71.5,280.6,71.6z"/>
	</g>
</g>
</svg>
